<svg id="Layer_1" data-name="Layer 1" xmlns="http://www.w3.org/2000/svg" width="100" height="100" viewBox="0 0 100 100"><defs><style>.cls-1{fill:#f7b284;}.cls-2{fill:#f99b55;}.cls-3{fill:#fc7f10;}</style></defs><polygon class="cls-1" points="56.91 16.86 61.31 17.59 58.05 20.64 58.72 25.05 54.81 22.9 50.82 24.89 51.66 20.51 48.53 17.33 52.96 16.78 55.02 12.82 56.91 16.86"/><polygon class="cls-1" points="74.02 37.46 78.42 38.19 75.16 41.24 75.83 45.65 71.92 43.5 67.93 45.49 68.78 41.11 65.64 37.93 70.07 37.38 72.13 33.42 74.02 37.46"/><polygon class="cls-1" points="78.5 16.4 83.66 19.39 78.15 21.66 76.9 27.49 73.04 22.95 67.11 23.56 70.23 18.49 67.82 13.04 73.61 14.44 78.05 10.47 78.5 16.4"/><polygon class="cls-2" points="56.88 37.55 17.4 89.62 14 87.04 54.34 35.63 56.88 37.55"/><polygon class="cls-3" points="56.88 37.55 17.4 89.62 20.81 92.21 59.42 39.48 56.88 37.55"/><polygon class="cls-1" points="62.45 26.08 55.68 33.93 58.19 35.83 64.44 27.59 62.45 26.08"/><polygon class="cls-2" points="66.42 29.1 64.44 27.59 58.19 35.83 60.7 37.73 66.42 29.1"/></svg>