<svg id="Layer_1" data-name="Layer 1" xmlns="http://www.w3.org/2000/svg" xmlns:xlink="http://www.w3.org/1999/xlink" width="365" height="450" viewBox="0 0 365 450"><defs><style>.cls-1{fill:none;}.cls-2{fill:#eeb12c;}.cls-3{fill:#a72437;}.cls-4{fill:#f7b284;}.cls-5{fill:#f99b55;}.cls-6{fill:#fc7f10;}.cls-7{fill:#2d2823;}.cls-8{fill:url(#New_Pattern_Swatch_7);}.cls-9{fill:url(#New_Pattern_Swatch_7-3);}</style><pattern id="New_Pattern_Swatch_7" data-name="New Pattern Swatch 7" width="55" height="55" patternTransform="translate(-263.31 55.51)" patternUnits="userSpaceOnUse" viewBox="0 0 55 55"><rect class="cls-1" width="55" height="55"/><rect class="cls-2" width="55" height="55"/><polygon class="cls-1" points="0 10.21 44.78 55 51.47 55 0 3.54 0 10.21"/><polygon class="cls-1" points="31.04 0 55 23.96 55 17.29 37.72 0 31.04 0"/><polygon class="cls-1" points="44.78 0 55 10.21 55 3.54 51.47 0 44.78 0"/><polygon class="cls-1" points="3.54 0 55 51.47 55 44.78 10.21 0 3.54 0"/><polygon class="cls-1" points="17.29 0 55 37.72 55 31.04 23.96 0 17.29 0"/><polygon class="cls-1" points="0 51.47 3.54 55 10.21 55 0 44.78 0 51.47"/><polygon class="cls-1" points="0 37.72 17.29 55 23.96 55 0 31.04 0 37.72"/><polygon class="cls-1" points="0 23.96 31.04 55 37.72 55 0 17.29 0 23.96"/><polygon class="cls-3" points="55 3.54 55 0 51.47 0 55 3.54"/><polygon class="cls-3" points="37.72 0 55 17.29 55 10.21 44.78 0 37.72 0"/><polygon class="cls-3" points="23.96 0 55 31.04 55 23.96 31.04 0 23.96 0"/><polygon class="cls-3" points="10.21 0 55 44.78 55 37.72 17.29 0 10.21 0"/><polygon class="cls-3" points="0 0 0 3.54 51.47 55 55 55 55 51.47 3.54 0 0 0"/><polygon class="cls-3" points="0 17.29 37.72 55 44.78 55 0 10.21 0 17.29"/><polygon class="cls-3" points="0 31.04 23.96 55 31.04 55 0 23.96 0 31.04"/><polygon class="cls-3" points="0 44.78 10.21 55 17.29 55 0 37.72 0 44.78"/><polygon class="cls-3" points="0 55 3.54 55 0 51.47 0 55"/></pattern><pattern id="New_Pattern_Swatch_7-3" data-name="New Pattern Swatch 7" width="55" height="55" patternTransform="translate(-257.81 122.88)" patternUnits="userSpaceOnUse" viewBox="0 0 55 55"><rect class="cls-1" width="55" height="55"/><rect class="cls-2" width="55" height="55"/><polygon class="cls-1" points="0 10.21 44.78 55 51.47 55 0 3.54 0 10.21"/><polygon class="cls-1" points="31.04 0 55 23.96 55 17.29 37.72 0 31.04 0"/><polygon class="cls-1" points="44.78 0 55 10.21 55 3.54 51.47 0 44.78 0"/><polygon class="cls-1" points="3.54 0 55 51.47 55 44.78 10.21 0 3.54 0"/><polygon class="cls-1" points="17.29 0 55 37.72 55 31.04 23.96 0 17.29 0"/><polygon class="cls-1" points="0 51.47 3.54 55 10.21 55 0 44.78 0 51.47"/><polygon class="cls-1" points="0 37.72 17.29 55 23.96 55 0 31.04 0 37.72"/><polygon class="cls-1" points="0 23.96 31.04 55 37.72 55 0 17.29 0 23.96"/><polygon class="cls-3" points="55 3.54 55 0 51.47 0 55 3.54"/><polygon class="cls-3" points="37.72 0 55 17.29 55 10.21 44.78 0 37.72 0"/><polygon class="cls-3" points="23.96 0 55 31.04 55 23.96 31.04 0 23.96 0"/><polygon class="cls-3" points="10.21 0 55 44.78 55 37.72 17.29 0 10.21 0"/><polygon class="cls-3" points="0 0 0 3.54 51.47 55 55 55 55 51.47 3.54 0 0 0"/><polygon class="cls-3" points="0 17.29 37.72 55 44.78 55 0 10.21 0 17.29"/><polygon class="cls-3" points="0 31.04 23.96 55 31.04 55 0 23.96 0 31.04"/><polygon class="cls-3" points="0 44.78 10.21 55 17.29 55 0 37.72 0 44.78"/><polygon class="cls-3" points="0 55 3.54 55 0 51.47 0 55"/></pattern></defs><path class="cls-4" d="M356.73,246.76c0,30.48-12.62,57.79-45.15,76.24v63.24a8.17,8.17,0,0,1-8.17,8.17H286.79v9.95a7,7,0,0,1-7,7H255.37c-19.19,23.88-43,38-68.87,38-1.34,0-2.67,0-4-.11-24.3-1.38-46.68-15.27-64.88-37.91H85.3a7,7,0,0,1-7-7v-9.95H60.57a8.17,8.17,0,0,1-8.17-8.17V319.85C21.67,301.51,8.27,275.54,8.27,246.76S21.68,192,52.4,173.67V128.1a8.17,8.17,0,0,1,8.17-8.17H78.33V110a7,7,0,0,1,7-7h34.77c17.74-20.89,39.21-33.63,62.43-34.94,1.33-.08,2.66-.12,4-.12,24.74,0,47.66,13,66.42,35.06h26.89a7,7,0,0,1,7,7v10h16.62a8.16,8.16,0,0,1,8.16,8.17v42.42C344.12,189,356.73,216.28,356.73,246.76Z"/><path class="cls-5" d="M356.73,246.76c0,30.48-12.62,57.79-45.15,76.24v63.24a8.17,8.17,0,0,1-8.17,8.17H286.79v9.95a7,7,0,0,1-7,7H255.37c-19.19,23.88-43,38-68.87,38-1.34,0-2.67,0-4-.11V68.06c1.33-.08,2.66-.12,4-.12,24.74,0,47.66,13,66.42,35.06h26.89a7,7,0,0,1,7,7v10h16.62a8.16,8.16,0,0,1,8.16,8.17v42.42C344.12,189,356.73,216.28,356.73,246.76Z"/><path class="cls-5" d="M337.29,248.08c0,27.08-11.21,51.34-40.11,67.73V372a7.26,7.26,0,0,1-7.26,7.25H275.15v8.84a6.21,6.21,0,0,1-6.2,6.21H247.24c-17.05,21.21-38.24,33.77-61.18,33.77-1.19,0-2.37,0-3.56-.1-21.58-1.22-41.47-13.56-57.63-33.68H96.15a6.2,6.2,0,0,1-6.2-6.2v-8.84H74.18A7.26,7.26,0,0,1,66.93,372V313c-27.31-16.3-39.22-39.37-39.22-64.94s11.91-48.64,39.22-64.93V142.67a7.26,7.26,0,0,1,7.25-7.26H90v-8.84a6.19,6.19,0,0,1,6.2-6.2H127c15.76-18.56,34.84-29.88,55.46-31,1.19-.07,2.37-.11,3.56-.11,22,0,42.34,11.53,59,31.15H269a6.2,6.2,0,0,1,6.2,6.2v8.84h14.77a7.26,7.26,0,0,1,7.26,7.26v37.68C326.08,196.74,337.29,221,337.29,248.08Z"/><path class="cls-6" d="M337.29,248.08c0,27.08-11.21,51.34-40.11,67.73V372a7.26,7.26,0,0,1-7.26,7.25H275.15v8.84a6.21,6.21,0,0,1-6.2,6.21H247.24c-17.05,21.21-38.24,33.77-61.18,33.77-1.19,0-2.37,0-3.56-.1V89.33c1.19-.07,2.37-.11,3.56-.11,22,0,42.34,11.53,59,31.15H269a6.2,6.2,0,0,1,6.2,6.2v8.84h14.77a7.26,7.26,0,0,1,7.26,7.26v37.68C326.08,196.74,337.29,221,337.29,248.08Z"/><path class="cls-3" d="M285.68,188.09V154.6a6.49,6.49,0,0,0-6.53-6.45H265.87V140.3a5.54,5.54,0,0,0-5.58-5.51H238.8a93.22,93.22,0,0,0-16.51-15.25,71.09,71.09,0,0,0-10.76-6.38,1.28,1.28,0,0,0-.24-.11h0a62.12,62.12,0,0,0-11-4,56.81,56.81,0,0,0-11.16-1.78c-1.14-.08-2.29-.11-3.44-.11s-2.14,0-3.2.09l-.53,0h-.19a57.88,57.88,0,0,0-15.42,3.21c-1.57.54-3.13,1.15-4.65,1.84h0a65.58,65.58,0,0,0-7.83,4.08h0a89.35,89.35,0,0,0-21.26,18.39H104.82a5.54,5.54,0,0,0-5.59,5.51v7.85H85.05a6.5,6.5,0,0,0-6.53,6.45v36c-24.57,14.48-35.29,35-35.29,57.69S54,291.48,78.52,306v52.41a6.49,6.49,0,0,0,6.53,6.44H99.23v7.86a5.55,5.55,0,0,0,5.59,5.51h25.83C145.2,396,163.09,407,182.51,408.09c1.06.06,2.13.09,3.2.09,20.64,0,39.71-11.16,55-30h19.53a5.55,5.55,0,0,0,5.58-5.51V364.8h13.28a6.48,6.48,0,0,0,6.53-6.44V308.44c26-14.56,36.09-36.12,36.09-60.18S311.68,202.65,285.68,188.09ZM166.47,163.25c-4.06.08-6.65-1.38-8-3.49a2.39,2.39,0,0,1-.13-.21,12.41,12.41,0,0,0,1.3.69c2.33,1.06,4.73,2,7.1,3A1.22,1.22,0,0,1,166.47,163.25Z"/><path class="cls-7" d="M126.46,6.53c-.33-.1-.65-.22-1-.33A3.91,3.91,0,0,1,126.46,6.53Z"/><path class="cls-3" d="M245.55,4.72c0-3.82-.24-4-4.09-4q-31.49,0-63,0v0c-21.2,0-42.39,0-63.58,0-2.22,0-2.89.58-2.89,2.83.07,32,.12,69.93,0,101.89,0,7.3,2.19,13.92,5.07,20.39,4.62,10.38,12.31,18.35,20.39,26.14C148.28,162.26,161.34,169,174.22,176a9.27,9.27,0,0,0,8.59.25,161.73,161.73,0,0,0,30.1-16.49h-11l-.59.37a151.53,151.53,0,0,1-20.45,10.56c-1.22.52-2.32.95-3.67.26-7.76-4-15.29-8.39-22.8-12.81-.23-.14-.35-.47-.52-.72-12.13-8-22.38-17.83-29.69-30.47-6.18-10.7-7.32-22.47-6.71-34.56.13-2.48,1.68-2,3.09-2h54.33c4,0,4,0,4-4,0-18.72,0-37.44-.05-56.17,0-2.48.65-3.2,3.15-3.19q27.17.18,54.33.06c2.56,0,3.19.82,3.08,3.24-.31,6.75.51,13.52-.38,20.27a4.8,4.8,0,0,1,.79,3.4q0,27.16,0,54.34a41.49,41.49,0,0,1-.43,6v17.8a45.14,45.14,0,0,0,6.14-22.52C245.63,76.64,245.57,37.68,245.55,4.72ZM123.65,6.2a3.91,3.91,0,0,1,1,.33C124.28,6.43,124,6.31,123.65,6.2Z"/><path class="cls-2" d="M239,50.62c-3.94-.86-5.6-3.4-5.05-7.7.1-.74.77-1.56-.13-2.18s-1.73,0-2.51.36a8.55,8.55,0,0,0-4.67,8.57c.14,1.38.48,2.86-.89,3.84s-2.09-.61-3-1.15c-2.22-1.32-4.69-.52-7-1-5.14-1.11-5.86-2.16-4.17-7.09.12-.38.26-.75.4-1.12-2.55-.52-7.5,2.44-8.83,5.24-1.79,3.77-2.33,7.23,1.24,10.54,2.23,2.07.68,6.66-2.18,7.4-.62.15-.8-.13-1.07-.64-2.4-4.43-5.12-5.06-9.83-2.31.06.17.06.45.18.51,4.84,2.31,5.38,4.49,2.08,8.67a8.61,8.61,0,0,1-2.3,2.32c-3.23,1.84-4.36,4.71-4.43,8.21a3.31,3.31,0,0,1-1.38,2.77c-5.2,4.16-8.63,9.8-12.34,15.18-1.15,1.67-1.1,3.36.69,5,1.43,1.29,3.47,1.54,4.63,3.13a15.56,15.56,0,0,1,0,3c-.58,3.43,1,5.73,3.38,8,2.21,2,4.79,3.87,6.16,6.72-1.84,1.5-4.08-.28-6,.73-.63-.76-1.23-1.56-1.91-2.27s-1.6-.84-1.56.38c.1,3.15-1.07,6.57,1.62,9.28-3.14,4.85-11.68,7.71-15.8,4.39-1.87-1.52-2.53-.42-2.61,1.16-.21,4.74-1.24,6,5.4,7.76-4.2,3.44-7.53,8.09-13.32,9.2-12.13-8-22.38-17.83-29.69-30.47-6.18-10.7-7.32-22.47-6.71-34.56.13-2.48,1.68-2,3.09-2h54.33c4,0,4,0,4-4,0-18.72,0-37.44-.05-56.17,0-2.48.65-3.2,3.15-3.19q27.17.18,54.33.06c2.56,0,3.19.82,3.08,3.24C239.1,37.1,239.92,43.87,239,50.62Z"/><path class="cls-2" d="M188.05,126.82c-1.37-2.86-3.94-4.67-6.15-6.73-2.42-2.25-4-4.56-3.39-8a16.41,16.41,0,0,0,0-3c1.48,2.21,3.05,4.32,5.91,4.84,1.92,1.78,3.5,3.92,5.76,5.34a10,10,0,0,0,2.81,2.76c2,3.08,5,5.15,7.37,7.82.77.86,1.84,1.55,1.4,3A32.41,32.41,0,0,1,188.05,126.82Z"/><path class="cls-3" d="M201.72,132.86c.44-1.42-.63-2.11-1.4-3-2.39-2.67-5.41-4.74-7.37-7.82,2.58.48,5.25,1.57,7.4-1a4.38,4.38,0,0,0,3.21,3.2,8.07,8.07,0,0,0,1,5.09c.52.87,1.93,1.57,1.09,2.74C204.71,133.39,203.19,133.33,201.72,132.86Z"/><path class="cls-2" d="M180.22,134.93c-2.69-2.71-1.51-6.13-1.62-9.28,0-1.21.87-1.11,1.57-.38s1.27,1.51,1.9,2.27c-.74,1.11-1.93,2.32.82,2.24.59,0,1.22.61,1.81,1s1.63.71,1.48,1.65-1,1.33-2,1.52C182.88,134.21,181.56,134.59,180.22,134.93Z"/><path class="cls-2" d="M203.56,124.24a4.38,4.38,0,0,1-3.21-3.2c0-1.76,1.56-2.31,2.61-3.24,1.72.11,2.22,2.06,3.73,2.51a2.35,2.35,0,0,0,.79,2.34c.76.77,1.61,1.7.47,2.72-.94.84-2,.39-2.93-.24C204.55,124.81,204.05,124.53,203.56,124.24Z"/><path class="cls-3" d="M190.14,119.31c-2.26-1.42-3.84-3.56-5.76-5.34,1.4-1.56,3.29-1.85,5.22-2a5.4,5.4,0,0,1,2.57,2.7C192.23,116.52,190.5,117.62,190.14,119.31Z"/><path class="cls-2" d="M192.17,114.64a5.4,5.4,0,0,0-2.57-2.7c.67-2.12,2.35-3.52,3.64-5.2,1.47,1.33,2.63,3,4.38,4A9,9,0,0,1,192.17,114.64Z"/><path class="cls-3" d="M197.62,110.77c-1.75-1-2.91-2.7-4.38-4,1.23-2.45,3.21-2.18,4.81-.84C199.88,107.43,199.55,109.3,197.62,110.77Z"/><path class="cls-3" d="M206.69,120.31c-1.51-.45-2-2.4-3.73-2.51,0-1.09,1-1.46,1.59-2a2.65,2.65,0,0,1,3.51-.36c1.31,1.06.3,2.1-.33,3.08C207.37,119.12,207,119.72,206.69,120.31Z"/><rect class="cls-8" x="117.49" y="27.05" width="61.42" height="65.36"/><rect class="cls-3" x="177.74" y="27.05" width="6.13" height="2.86"/><path class="cls-3" d="M239.41,114.32v17.8A67.51,67.51,0,0,1,231,143.63a107.8,107.8,0,0,1-18.12,16.15h-11c9.18-5.71,17.86-12,25-20.17C233.43,132.18,238,123.9,239.41,114.32Z"/><path class="cls-9" d="M239.41,94.42v19.9c-1.37,9.58-6,17.86-12.48,25.29-7.15,8.18-15.83,14.46-25,20.17H178V94.42Z"/><path class="cls-7" d="M239.84,108.36c0,12.17-5.1,22.32-12.91,31.25-7.3,8.35-16.2,14.73-25.6,20.54a151.53,151.53,0,0,1-20.45,10.56c-1.22.52-2.32.95-3.67.26-7.76-4-15.29-8.39-22.8-12.81-.23-.14-.35-.47-.52-.72,5.79-1.11,9.12-5.76,13.32-9.2-6.64-1.77-5.61-3-5.4-7.76.08-1.58.74-2.68,2.61-1.16,4.12,3.32,12.66.46,15.8-4.39,1.33-.34,2.66-.72,4-1,.94-.2,1.8-.57,2-1.53s-.83-1.23-1.48-1.65-1.22-1-1.81-1c-2.75.08-1.56-1.14-.82-2.24,1.9-1,4.14.77,6-.73a32.45,32.45,0,0,0,13.66,6.05c1.47.47,3,.53,3.95-.8.84-1.17-.56-1.86-1.08-2.73a8.07,8.07,0,0,1-1-5.09c.49.29,1,.57,1.46.89.94.63,2,1.08,2.93.23,1.14-1,.29-1.94-.47-2.71a2.37,2.37,0,0,1-.8-2.34c.35-.59.69-1.19,1-1.77.62-1,1.64-2,.33-3.08-1.16-.94-2.5-.5-3.51.36-.62.52-1.61.88-1.59,2-1.05.94-2.58,1.49-2.61,3.24h0a7.44,7.44,0,0,1-.62.63l-.21.17a5,5,0,0,1-.51.34l-.29.14a3.43,3.43,0,0,1-1,.31l-.4.05a6.79,6.79,0,0,1-1.42,0c-.64-.08-1.3-.23-1.95-.37-.33-.08-.65-.15-1-.21a10,10,0,0,1-2.82-2.75c.36-1.7,2.1-2.79,2-4.68a9,9,0,0,0,5.46-3.87c1.92-1.47,2.26-3.33.43-4.86-1.6-1.34-3.59-1.61-4.81.84-1.29,1.68-3,3.08-3.64,5.2-1.93.18-3.82.47-5.22,2-2.86-.53-4.43-2.64-5.92-4.84-1.16-1.59-3.2-1.84-4.63-3.13-1.79-1.62-1.84-3.31-.69-5,3.71-5.38,7.14-11,12.34-15.18a3.31,3.31,0,0,0,1.38-2.77c.07-3.5,1.2-6.37,4.43-8.21a8.61,8.61,0,0,0,2.3-2.32c3.3-4.18,2.76-6.36-2.08-8.67-.12-.06-.12-.34-.18-.51,4.71-2.75,7.43-2.12,9.83,2.31.27.51.45.79,1.07.64,2.86-.74,4.41-5.33,2.18-7.4-3.57-3.31-3-6.77-1.24-10.54,1.33-2.8,6.28-5.76,8.83-5.24-.14.37-.28.74-.4,1.12-1.69,4.93-1,6,4.17,7.09,2.32.5,4.79-.3,7,1,.91.54,1.53,2.19,3,1.15s1-2.46.89-3.84a8.55,8.55,0,0,1,4.67-8.57c.78-.4,1.61-1,2.51-.36s.23,1.44.13,2.18c-.55,4.3,1.11,6.84,5.05,7.7a4.8,4.8,0,0,1,.79,3.4Q239.82,81.18,239.84,108.36Z"/><path d="M155.89,10.08a2.16,2.16,0,0,1-1.19,2.11,4.55,4.55,0,0,1-2.33.57,4.84,4.84,0,0,1-1.89-.42,5.77,5.77,0,0,1-2.18-1.61A4.54,4.54,0,0,0,144.86,13a6,6,0,0,0-.8,3,6.69,6.69,0,0,0,2.14,4.87A6.24,6.24,0,0,0,151,22.8a1.38,1.38,0,0,0,.91-.28,2.16,2.16,0,0,0,.48-1.33c0-.46.08-1.38.08-2.75a7.6,7.6,0,0,0-.2-2.07,1.21,1.21,0,0,0-1.22-.94,2,2,0,0,0-1.14.35,1.11,1.11,0,0,0-.57.94c0,.39.19.59.55.59.21,0,.32-.13.32-.4a1.21,1.21,0,0,0,0-.25.57.57,0,0,1,.37-.12,1,1,0,0,1,.74.34,1.33,1.33,0,0,1-.83,2.24,3.19,3.19,0,0,1,.19,1q0,1.41-1.62,1.41a1.49,1.49,0,0,1-1.12-.44,1.22,1.22,0,0,1-.39-.78l.6.14a.89.89,0,0,0,.68-.08.37.37,0,0,0,.13-.47q-.36-.46-.72-1a3.94,3.94,0,0,1-.64-2.17,2.9,2.9,0,0,1,1.07-2.34,3.8,3.8,0,0,1,2.5-.82,3.9,3.9,0,0,1,3,1.61,4.87,4.87,0,0,1,1.23,3.12,6,6,0,0,1-1.09,2.77,9.34,9.34,0,0,1-1.71,2.17,3.19,3.19,0,0,1-1.23.68,6.85,6.85,0,0,1-1.78.21,9.57,9.57,0,0,1-5.85-1.83,6.5,6.5,0,0,1-2.79-5.48A8.09,8.09,0,0,1,144.81,10a24.36,24.36,0,0,1,2.27-1.2,7,7,0,0,0,2-1.31,1.66,1.66,0,0,1,.49.29,1.65,1.65,0,0,1-.29.74,2.63,2.63,0,0,1,.79-.28,1,1,0,0,1,.53.43c.2.25.39.51.58.76a3.61,3.61,0,0,0,2.75,1.41c.57,0,.86-.15.86-.46a.41.41,0,0,0-.05-.16c-.54,0-.82-.24-.82-.72a.69.69,0,0,1,.24-.52.89.89,0,0,1,.58-.22C155.45,8.71,155.85,9.17,155.89,10.08Z"/><path d="M162.33,11.88c0,.11-.08.21-.23.3l-1.44.89c-.13.09-.22.1-.27,0L160.3,13a.11.11,0,0,1,0-.15l.2-.17c.08-.06.08-.18,0-.36L160.07,11c-.08-.21-.14-.31-.19-.31s-.07.11-.06.32v.42c0,.28,0,.65,0,1.13s0,1,.08,1.85c0,.44.08,1.29.19,2.55,0,.18,0,.46,0,.84s.06.36.12.41l.27.16c.1.07.16.13.16.2s0,0-.11,0l-.48,0h-2.35l-.39,0c-.06,0-.11,0-.17-.13s.07-.1.19-.18l.32-.23a.34.34,0,0,0,.15-.27v-6.1a4.38,4.38,0,0,0,0-.93c0-.21-.11-.31-.35-.31h-.76c-.16,0-.23,0-.22-.07a.45.45,0,0,1,.16-.16l2.15-1.5a1.06,1.06,0,0,1,.4-.2.86.86,0,0,1,.39.17.24.24,0,0,1,.09.22l.07.79c0,.2.06.27.15.22l.52-.32c.13-.07.28-.16.45-.24s.45.1.69.62c.07.15.21.49.41,1l.18.42A2.06,2.06,0,0,1,162.33,11.88Z"/><path d="M168.24,13c-.4.9-.89,1.87-1.47,2.92-.25.45-.65,1.16-1.22,2.13-.44.76-.8,1.34-1.05,1.72s-.37.58-.64,1l-.63.92c-.24.36-.45.64-.61.84a.54.54,0,0,1-.41.18,10.46,10.46,0,0,1-1.63-.14c-.44-.07-.87-.16-1.3-.26s-.88-.26-1.38-.44c-.35-.14-.78-.33-1.29-.58-.07,0-.08-.1,0-.19a1.7,1.7,0,0,1,.17-.3,4.42,4.42,0,0,1,.65-.73l.17-.15a.42.42,0,0,1,.31-.05l1.38.13c.15,0,.23,0,.22.1s-.08.06-.21.1l-1.11.31c-.05,0-.08.06-.12.14l-.1.29a.18.18,0,0,0,.13.26,4.92,4.92,0,0,0,.54.12c.23,0,.59.1,1.07.15a11.53,11.53,0,0,0,1.19.07,6,6,0,0,0,1,0c.1-.18.27-.44.51-.8l1-1.54c-.13-.43-.56-1.91-1.31-4.43q-.1-.34-.27-.78a.4.4,0,0,0-.3-.15c-.1,0-.15,0-.16-.09s0-.12.13-.12c.5,0,1,0,1.52,0l1.36,0c.18,0,.26,0,.25.07s-.06.08-.17.12l-.23.09a.23.23,0,0,0-.12.12.6.6,0,0,0,0,.23c0,.19.12.54.26,1.07s.26,1,.44,1.56c.18-.31.43-.74.75-1.31.12-.2.33-.59.62-1.18a7,7,0,0,0,.37-1l-.59-.42,1.17.07Z"/><path d="M177.19,7.46s.05.09,0,.18a.27.27,0,0,1-.11.17,17.91,17.91,0,0,1-2,1.5.47.47,0,0,1-.17,0A2.3,2.3,0,0,1,173.86,9l-1-.61c0,.07,0,.54,0,1.42,0,.63,0,1.25,0,1.87a5,5,0,0,1,.81.18,6.33,6.33,0,0,1,1.67.81c.07.06.11.1.11.13a.46.46,0,0,1-.11.12c-.2.14-.45.32-.73.55s-.22.38-.12.45a.81.81,0,0,0,.25.08.57.57,0,0,1,.71-.51,1.17,1.17,0,0,0-.34,1,3.76,3.76,0,0,1-1-.17,1.54,1.54,0,0,1-.83-.46.23.23,0,0,1,0-.31,2.64,2.64,0,0,1,1.48-.64,4.37,4.37,0,0,0-1.91-.45v.76c0,.67,0,1.76-.08,3.28-.06,1.28-.15,2.38-.25,3.29.05.09.12.24.22.44a.85.85,0,0,0,.23.35.43.43,0,0,0,.38.07l.27-.06c.1,0,.17,0,.2.08l0,.11c0,.07,0,.15-.2.22l-1.42.56a2.41,2.41,0,0,1-.61.22.58.58,0,0,1-.43-.13s-.1-.13-.27-.34-.17-.28-.31-.49l-.67.27c-.16.06-.26.05-.29,0l0-.09c0-.08,0-.15.12-.23l.25-.16a.74.74,0,0,0,.26-.29,1.3,1.3,0,0,0,.08-.38c0-.19,0-.47.07-.86.09-.93.16-1.91.22-2.93,0-.54,0-1.29.05-2.24,0-.33,0-.71,0-1.12a4.83,4.83,0,0,0-1,.43.22.22,0,0,1-.31-.07c-.2-.27-.49-.62-.88-1.07a6.35,6.35,0,0,1,2.19-.47c0-1,0-2.4,0-4.15l1.15-.56,1-.47a1.43,1.43,0,0,1,.31-.12.75.75,0,0,1,.3.1c.27.18.65.42,1.15.71a3.23,3.23,0,0,0,1.77.56,3.79,3.79,0,0,1,.38-.21A.27.27,0,0,1,177.19,7.46Z"/><path d="M184.66,7.46s.05.09,0,.18a.27.27,0,0,1-.11.17,16.15,16.15,0,0,1-2,1.5.47.47,0,0,1-.17,0A2.3,2.3,0,0,1,181.33,9l-1-.61c0,.07,0,.54,0,1.42,0,.63,0,1.25,0,1.87a5,5,0,0,1,.81.18,6.25,6.25,0,0,1,1.68.81c.07.06.1.1.1.13a.58.58,0,0,1-.1.12,7.74,7.74,0,0,0-.73.55c-.19.23-.23.38-.13.45a.81.81,0,0,0,.25.08.57.57,0,0,1,.71-.51,1.17,1.17,0,0,0-.34,1,3.63,3.63,0,0,1-1-.17,1.54,1.54,0,0,1-.84-.46.23.23,0,0,1,0-.31,2.64,2.64,0,0,1,1.48-.64,4.37,4.37,0,0,0-1.91-.45v.76c0,.67,0,1.76-.08,3.28-.06,1.28-.14,2.38-.25,3.29.05.09.13.24.22.44a.85.85,0,0,0,.23.35.43.43,0,0,0,.38.07l.27-.06a.16.16,0,0,1,.21.08l0,.11c0,.07,0,.15-.19.22l-1.43.56a2.41,2.41,0,0,1-.61.22.6.6,0,0,1-.43-.13l-.26-.34c-.07-.12-.18-.28-.32-.49l-.67.27c-.16.06-.26.05-.29,0l0-.09c0-.08,0-.15.13-.23l.24-.16a.67.67,0,0,0,.26-.29,1.18,1.18,0,0,0,.09-.38c0-.19,0-.47.07-.86.08-.93.15-1.91.22-2.93,0-.54,0-1.29,0-2.24,0-.33,0-.71,0-1.12a4.77,4.77,0,0,0-1,.43.23.23,0,0,1-.32-.07c-.2-.27-.49-.62-.87-1.07a6.23,6.23,0,0,1,2.18-.47c0-1,0-2.4,0-4.15l1.15-.56,1-.47a1.43,1.43,0,0,1,.31-.12.75.75,0,0,1,.3.1c.27.18.66.42,1.15.71a3.23,3.23,0,0,0,1.77.56,3.79,3.79,0,0,1,.38-.21A.27.27,0,0,1,184.66,7.46Z"/><path d="M187.49,8.92c0,.09,0,.15-.11.21l-1.23.64a2.73,2.73,0,0,1-.63.25.55.55,0,0,1-.4-.12l-.29-.33-.26-.38c0-.06-.13-.07-.26,0l-.29.07a.17.17,0,0,1-.2-.06c-.09-.1-.07-.18.05-.24l.22-.1,1-.45.86-.4a.32.32,0,0,1,.44.11c.05.07.13.17.22.32s.16.23.28.38.19.18.29.13l.19-.09C187.41,8.79,187.46,8.82,187.49,8.92Zm1.21,11.46-.11.17c-.05.06-.15.06-.29,0l-1.89-.94a2.39,2.39,0,0,1-.56-.35.94.94,0,0,1-.28-.69,5.55,5.55,0,0,0,0-.6c0-.3,0-.53,0-.66s0-.36,0-.79,0-.71,0-.94c0-.7,0-1.3,0-1.81,0-.33,0-1,0-2,0-.24-.13-.35-.32-.31l-.49.12c-.1,0-.15,0-.16-.13s0-.21.07-.24l.82-.33,1.15-.49c.3-.16.68-.34,1.13-.54a.25.25,0,0,1,.2,0,.19.19,0,0,1,.1.16.13.13,0,0,1,0,.09,1.2,1.2,0,0,0-.41.78c0,.24,0,.59,0,1.06s0,1.45,0,2.58c0,.24,0,.62,0,1.13s0,.78,0,.94v1.7c0,.31,0,.56,0,.77a1.85,1.85,0,0,0,0,.38.57.57,0,0,0,.27.27l.62.42Q188.76,20.27,188.7,20.38Z"/><path d="M196.81,23.14l-.17.33c0,.08-.13.09-.3,0l-1.67-.61a1.64,1.64,0,0,1-.58-.35,1,1,0,0,1-.29-.68,11.63,11.63,0,0,1-.05-1.25c0-.25,0-.59,0-1s0-.82,0-1c0-.79,0-1.26,0-1.43,0-1.07,0-1.86-.07-2.36l-.09-1.23a.41.41,0,0,0-.32-.43,1,1,0,0,0-.56.14,5.26,5.26,0,0,0-.67.37v1.62c0,1.49,0,2.46.07,2.91A7.8,7.8,0,0,1,192,20.3l-.23.88c-.07.23-.18.36-.34.37a.66.66,0,0,1-.48-.18l-1.61-1.3a.55.55,0,0,1-.14-.15s.07-.05.2-.07l.32,0a.35.35,0,0,0,.3-.39V15.54c0-.59,0-1.27,0-2a.48.48,0,0,0-.08-.32.35.35,0,0,0-.29,0l-.75.25c-.15.05-.22,0-.22-.08a.33.33,0,0,1,.16-.26l2.23-1.5a2,2,0,0,1,.5-.29.59.59,0,0,1,.27.08.38.38,0,0,1,.09.23l.1.71a14.12,14.12,0,0,1,1.33-.6.55.55,0,0,1,.5,0,4.69,4.69,0,0,1,.63.44,11.13,11.13,0,0,1,.85.78.87.87,0,0,1,.24.51q.1.6.18,1.35c.05.59.08,1,.09,1.36s0,.84.06,1.4,0,1.23-.05,1.94,0,1.26,0,2c0,.22,0,.52.06.92a1.19,1.19,0,0,0,.07.23.32.32,0,0,0,.32.23h.51S196.86,23,196.81,23.14Z"/><path d="M204.1,18.79s0,.08-.17.16l-2.28,1.47a.82.82,0,0,1-.51.17,3,3,0,0,1-.29-.17.22.22,0,0,1-.08-.22l0-.63a12.79,12.79,0,0,1-1.32.56.53.53,0,0,1-.48-.06c-.07,0-.31-.2-.7-.48a6.53,6.53,0,0,1-.86-.73,1.08,1.08,0,0,1-.24-.52c-.05-.32-.08-.77-.12-1.37S197,15.8,197,15.61c0-.36,0-.81,0-1.35a15.61,15.61,0,0,1,.14-1.65,1.84,1.84,0,0,1,.23-.55,1.3,1.3,0,0,1,.54-.48c.1-.05.61-.23,1.54-.57a2.58,2.58,0,0,1,.6-.13.75.75,0,0,1,.58.23l.33.26c0-1,0-1.51,0-1.56,0-.41-.05-1-.08-1.72a.2.2,0,0,0-.22-.21h-.88c-.07,0-.11,0-.11-.14s0-.14.15-.2a10.38,10.38,0,0,0,1-.69,10.76,10.76,0,0,0,1-.9c.18-.18.48-.51.89-1l.2-.26c.1-.12.15-.07.15.14,0,.54,0,1.37,0,2.47,0,.19,0,1.21-.06,3.08,0,.91-.05,2.33-.11,4.24,0,1.11-.1,2.37-.17,3.76,0,.21.1.32.35.32l.76,0C204,18.73,204.1,18.75,204.1,18.79Zm-3.29-5c0-.55,0-1,0-1.34a.5.5,0,0,0-.11-.28c-.07-.09-.17-.2-.29-.33a.34.34,0,0,0-.38-.11,1.71,1.71,0,0,0-.55.37.5.5,0,0,0-.18.31,8.38,8.38,0,0,0-.08.9c0,.34-.05.82-.07,1.43,0,1.08,0,1.87,0,2.35,0,.28,0,.68,0,1.21a.42.42,0,0,0,.32.43,1,1,0,0,0,.49,0c.22-.07.47-.16.74-.27l.06-1.72C200.79,15.18,200.81,14.21,200.81,13.77Z"/><path d="M210.67,17.87a4.58,4.58,0,0,1-.15,1.22,2.22,2.22,0,0,1-.2.56,3.12,3.12,0,0,1-1.35.92,5.48,5.48,0,0,1-1.28.48.72.72,0,0,1-.57-.17,11.91,11.91,0,0,1-1-.85l-.67-.64a3.43,3.43,0,0,1-.41-.49,1,1,0,0,1-.17-.41c0-.77,0-1.64,0-2.62,0-.3,0-.75,0-1.34a3.84,3.84,0,0,0-.86-.23,1.07,1.07,0,0,1,.16-.63l.41.13.34.13c0-.09,0-.26.09-.49a.37.37,0,0,1,.16-.24l1.34-.76a11.69,11.69,0,0,1,1.37-.69.57.57,0,0,1,.49,0,6.09,6.09,0,0,1,.73.46,5.39,5.39,0,0,1,.9.74,1.05,1.05,0,0,1,.29.52c.1.56.17,1.06.21,1.52s.09.89.14,1.51S210.67,17.51,210.67,17.87Zm-2.46-5.1a.82.82,0,0,0,0-.28l-1.31.92a1.8,1.8,0,0,0,0,.28v.11a.33.33,0,0,1,0,.14,2.39,2.39,0,0,0,.38-.16,3.35,3.35,0,0,0,.45-.26,1.15,1.15,0,0,0,.35-.35A1.55,1.55,0,0,0,208.21,12.77Zm.35,4.37q0-.78-.06-1.53c0-.46-.07-.86-.1-1.2q0-.16-.24-.18a1.16,1.16,0,0,0-.53.06,6.12,6.12,0,0,0-.76.29v1.73c0,.39,0,1,.06,1.85,0,.32,0,.78.07,1.4a.43.43,0,0,0,.12.28,2.73,2.73,0,0,0,.3.32.25.25,0,0,0,.27.05,4.4,4.4,0,0,0,.55-.24.39.39,0,0,0,.17-.29c0-.28.07-.63.1-1.07S208.56,17.55,208.56,17.14Z"/><path d="M216.5,11.88c0,.11-.07.21-.22.3l-1.44.89c-.13.09-.22.1-.27,0l-.09-.11a.1.1,0,0,1,0-.15l.2-.17c.07-.06.08-.18,0-.36L214.24,11c-.07-.21-.13-.31-.19-.31s-.06.11-.06.32v.42c0,.28,0,.65,0,1.13s0,1,.08,1.85c0,.44.08,1.29.18,2.55q0,.27.06.84c0,.23.06.36.12.41l.26.16c.11.07.17.13.17.2s-.05,0-.11,0l-.48,0H212l-.4,0c-.05,0-.1,0-.16-.13s.06-.1.19-.18l.32-.23a.34.34,0,0,0,.15-.27v-6.1a6.58,6.58,0,0,0,0-.93c0-.21-.11-.31-.35-.31h-.77c-.15,0-.22,0-.21-.07a.45.45,0,0,1,.16-.16L213,8.72a1,1,0,0,1,.4-.2.91.91,0,0,1,.39.17c.05,0,.08.1.09.22l.07.79c0,.2.06.27.15.22l.52-.32c.13-.07.28-.16.45-.24s.45.1.68.62c.07.15.21.49.42,1l.17.42A1.59,1.59,0,0,1,216.5,11.88Z"/><rect class="cls-2" x="178.91" y="27.05" width="8.92" height="7.19"/></svg>