<svg id="Layer_1" data-name="Layer 1" xmlns="http://www.w3.org/2000/svg" xmlns:xlink="http://www.w3.org/1999/xlink" width="171.37" height="182" viewBox="0 0 171.37 182"><defs><style>.cls-1{fill:none;}.cls-2{fill:#eeb12c;}.cls-3{fill:#a72437;}.cls-4{fill:#2d2823;}.cls-5{fill:url(#New_Pattern_Swatch_7);}.cls-6{fill:url(#New_Pattern_Swatch_7-3);}</style><pattern id="New_Pattern_Swatch_7" data-name="New Pattern Swatch 7" width="55" height="55" patternTransform="translate(-182.16 165.13)" patternUnits="userSpaceOnUse" viewBox="0 0 55 55"><rect class="cls-1" width="55" height="55"/><rect class="cls-2" width="55" height="55"/><polygon class="cls-1" points="0 10.21 44.78 55 51.47 55 0 3.54 0 10.21"/><polygon class="cls-1" points="31.04 0 55 23.96 55 17.29 37.72 0 31.04 0"/><polygon class="cls-1" points="44.78 0 55 10.21 55 3.54 51.47 0 44.78 0"/><polygon class="cls-1" points="3.54 0 55 51.47 55 44.78 10.21 0 3.54 0"/><polygon class="cls-1" points="17.29 0 55 37.72 55 31.04 23.96 0 17.29 0"/><polygon class="cls-1" points="0 51.47 3.54 55 10.21 55 0 44.78 0 51.47"/><polygon class="cls-1" points="0 37.72 17.29 55 23.96 55 0 31.04 0 37.72"/><polygon class="cls-1" points="0 23.96 31.04 55 37.72 55 0 17.29 0 23.96"/><polygon class="cls-3" points="55 3.54 55 0 51.47 0 55 3.54"/><polygon class="cls-3" points="37.72 0 55 17.29 55 10.21 44.78 0 37.72 0"/><polygon class="cls-3" points="23.96 0 55 31.04 55 23.96 31.04 0 23.96 0"/><polygon class="cls-3" points="10.21 0 55 44.78 55 37.72 17.29 0 10.21 0"/><polygon class="cls-3" points="0 0 0 3.54 51.47 55 55 55 55 51.47 3.54 0 0 0"/><polygon class="cls-3" points="0 17.29 37.72 55 44.78 55 0 10.21 0 17.29"/><polygon class="cls-3" points="0 31.04 23.96 55 31.04 55 0 23.96 0 31.04"/><polygon class="cls-3" points="0 44.78 10.21 55 17.29 55 0 37.72 0 44.78"/><polygon class="cls-3" points="0 55 3.54 55 0 51.47 0 55"/></pattern><pattern id="New_Pattern_Swatch_7-3" data-name="New Pattern Swatch 7" width="55" height="55" patternTransform="translate(-176.66 232.5)" patternUnits="userSpaceOnUse" viewBox="0 0 55 55"><rect class="cls-1" width="55" height="55"/><rect class="cls-2" width="55" height="55"/><polygon class="cls-1" points="0 10.21 44.78 55 51.47 55 0 3.54 0 10.21"/><polygon class="cls-1" points="31.04 0 55 23.96 55 17.29 37.72 0 31.04 0"/><polygon class="cls-1" points="44.78 0 55 10.21 55 3.54 51.47 0 44.78 0"/><polygon class="cls-1" points="3.54 0 55 51.47 55 44.78 10.21 0 3.54 0"/><polygon class="cls-1" points="17.29 0 55 37.72 55 31.04 23.96 0 17.29 0"/><polygon class="cls-1" points="0 51.47 3.54 55 10.21 55 0 44.78 0 51.47"/><polygon class="cls-1" points="0 37.72 17.29 55 23.96 55 0 31.04 0 37.72"/><polygon class="cls-1" points="0 23.96 31.04 55 37.72 55 0 17.29 0 23.96"/><polygon class="cls-3" points="55 3.54 55 0 51.47 0 55 3.54"/><polygon class="cls-3" points="37.72 0 55 17.29 55 10.21 44.78 0 37.72 0"/><polygon class="cls-3" points="23.96 0 55 31.04 55 23.96 31.04 0 23.96 0"/><polygon class="cls-3" points="10.21 0 55 44.78 55 37.72 17.29 0 10.21 0"/><polygon class="cls-3" points="0 0 0 3.54 51.47 55 55 55 55 51.47 3.54 0 0 0"/><polygon class="cls-3" points="0 17.29 37.72 55 44.78 55 0 10.21 0 17.29"/><polygon class="cls-3" points="0 31.04 23.96 55 31.04 55 0 23.96 0 31.04"/><polygon class="cls-3" points="0 44.78 10.21 55 17.29 55 0 37.72 0 44.78"/><polygon class="cls-3" points="0 55 3.54 55 0 51.47 0 55"/></pattern></defs><path class="cls-4" d="M33.34,8.61c-.33-.1-.65-.22-1-.33A3.91,3.91,0,0,1,33.34,8.61Z"/><path class="cls-2" d="M152.44,6.8c0-3.82-.24-4-4.09-4h-63v0c-21.2,0-42.39,0-63.58,0-2.22,0-2.89.58-2.89,2.83.07,32,.12,69.93,0,101.89,0,7.3,2.19,13.92,5.07,20.39C28.61,138.21,36.3,146.18,44.38,154,55.17,164.34,68.23,171,81.11,178.1a9.27,9.27,0,0,0,8.59.25,161.73,161.73,0,0,0,30.1-16.49h-11l-.59.37a151.53,151.53,0,0,1-20.45,10.56c-1.22.52-2.32,1-3.67.26-7.76-4-15.29-8.39-22.8-12.81-.23-.14-.35-.47-.52-.72-12.13-8-22.38-17.83-29.69-30.47-6.18-10.7-7.32-22.47-6.71-34.56.13-2.48,1.68-2,3.09-2H81.8c4,0,4,0,4-4,0-18.72,0-37.44-.05-56.17,0-2.48.65-3.2,3.15-3.19q27.17.18,54.33.06c2.56,0,3.19.82,3.08,3.24-.31,6.75.51,13.52-.38,20.27a4.8,4.8,0,0,1,.79,3.4q0,27.16,0,54.34a41.49,41.49,0,0,1-.43,6v17.8a45.14,45.14,0,0,0,6.14-22.52C152.52,78.72,152.46,39.76,152.44,6.8ZM30.54,8.28a3.91,3.91,0,0,1,1,.33C31.17,8.51,30.85,8.39,30.54,8.28Z"/><path class="cls-3" d="M145.92,52.7c-3.94-.86-5.6-3.4-5-7.7.1-.74.77-1.56-.13-2.18s-1.73,0-2.51.36a8.55,8.55,0,0,0-4.67,8.57c.14,1.38.48,2.86-.89,3.84s-2.09-.61-3-1.15c-2.22-1.32-4.69-.52-7-1-5.14-1.11-5.86-2.16-4.17-7.09.12-.38.26-.75.4-1.12-2.55-.52-7.5,2.44-8.83,5.24-1.79,3.77-2.33,7.23,1.24,10.54,2.23,2.07.68,6.66-2.18,7.4-.62.15-.8-.13-1.07-.64-2.4-4.43-5.12-5.06-9.83-2.31.06.17.06.45.18.51,4.84,2.31,5.38,4.49,2.08,8.67a8.61,8.61,0,0,1-2.3,2.32c-3.23,1.84-4.36,4.71-4.43,8.21a3.31,3.31,0,0,1-1.38,2.77c-5.2,4.16-8.63,9.8-12.34,15.18-1.15,1.67-1.1,3.36.69,5,1.43,1.29,3.47,1.54,4.63,3.13a15.56,15.56,0,0,1,.05,3c-.58,3.43,1,5.73,3.38,8,2.21,2,4.79,3.87,6.16,6.72-1.84,1.5-4.08-.28-6,.73-.63-.76-1.23-1.56-1.91-2.27s-1.6-.84-1.56.38c.1,3.15-1.07,6.57,1.62,9.28-3.14,4.85-11.68,7.71-15.8,4.39-1.87-1.52-2.53-.42-2.61,1.16-.21,4.74-1.24,6,5.4,7.76-4.2,3.44-7.53,8.09-13.32,9.2-12.13-8-22.38-17.83-29.69-30.47-6.18-10.7-7.32-22.47-6.71-34.56.13-2.48,1.68-2,3.09-2H81.8c4,0,4,0,4-4,0-18.72,0-37.44-.05-56.17,0-2.48.65-3.2,3.15-3.19q27.17.18,54.33.06c2.56,0,3.19.82,3.08,3.24C146,39.18,146.81,46,145.92,52.7Z"/><path class="cls-2" d="M94.94,128.89c-1.38-2.85-4-4.67-6.16-6.73-2.42-2.25-4-4.56-3.38-8a16.42,16.42,0,0,0-.05-3c1.49,2.2,3.05,4.31,5.91,4.84,1.92,1.78,3.51,3.92,5.76,5.34a9.81,9.81,0,0,0,2.81,2.75c2,3.08,5,5.16,7.38,7.83.77.86,1.84,1.55,1.39,3A32.39,32.39,0,0,1,94.94,128.89Z"/><path class="cls-3" d="M108.6,134.94c.45-1.42-.62-2.11-1.39-3-2.4-2.67-5.42-4.75-7.38-7.83,2.59.49,5.25,1.57,7.4-1a4.41,4.41,0,0,0,3.22,3.21,8.13,8.13,0,0,0,1,5.09c.52.87,1.93,1.56,1.09,2.73C111.6,135.47,110.07,135.41,108.6,134.94Z"/><path class="cls-2" d="M87.1,137c-2.69-2.71-1.51-6.13-1.62-9.28,0-1.22.88-1.11,1.57-.38s1.27,1.51,1.91,2.27c-.74,1.1-1.94,2.32.81,2.24.6,0,1.23.6,1.81,1s1.64.72,1.49,1.65-1,1.33-2,1.53C89.77,136.29,88.44,136.67,87.1,137Z"/><path class="cls-2" d="M110.45,126.32a4.41,4.41,0,0,1-3.22-3.21c0-1.75,1.56-2.3,2.61-3.24,1.73.12,2.22,2.07,3.73,2.52a2.37,2.37,0,0,0,.8,2.34c.76.77,1.6,1.7.47,2.71-1,.85-2,.4-2.94-.23C111.43,126.89,110.93,126.61,110.45,126.32Z"/><path class="cls-3" d="M97,121.39c-2.25-1.42-3.84-3.56-5.76-5.34,1.4-1.56,3.29-1.85,5.23-2a5.29,5.29,0,0,1,2.56,2.69C99.12,118.6,97.38,119.69,97,121.39Z"/><path class="cls-2" d="M99.05,116.71A5.29,5.29,0,0,0,96.49,114c.66-2.12,2.35-3.52,3.64-5.2,1.47,1.33,2.62,3,4.38,4A9,9,0,0,1,99.05,116.71Z"/><path class="cls-3" d="M104.51,112.84c-1.76-1-2.91-2.69-4.38-4,1.22-2.45,3.21-2.18,4.81-.84C106.77,109.5,106.43,111.37,104.51,112.84Z"/><path class="cls-3" d="M113.57,122.39c-1.51-.45-2-2.4-3.73-2.52,0-1.09,1-1.45,1.59-2,1-.86,2.35-1.3,3.52-.36s.29,2.1-.33,3.08C114.25,121.2,113.92,121.8,113.57,122.39Z"/><rect class="cls-5" x="24.38" y="29.13" width="61.42" height="65.36"/><rect class="cls-3" x="84.63" y="29.13" width="6.13" height="2.86"/><path class="cls-2" d="M146.3,116.4v17.8a67.51,67.51,0,0,1-8.38,11.51,107.8,107.8,0,0,1-18.12,16.15h-11c9.18-5.71,17.86-12,25-20.17C140.32,134.26,144.93,126,146.3,116.4Z"/><path class="cls-6" d="M146.3,96.5v19.9c-1.37,9.58-6,17.86-12.48,25.29-7.15,8.18-15.83,14.46-25,20.17H84.88V96.5Z"/><path class="cls-4" d="M146.73,110.44c0,12.17-5.1,22.32-12.91,31.25-7.3,8.35-16.2,14.73-25.6,20.54a151.53,151.53,0,0,1-20.45,10.56c-1.22.52-2.32,1-3.67.26-7.76-4-15.29-8.39-22.8-12.81-.23-.14-.35-.47-.52-.72,5.79-1.11,9.12-5.76,13.32-9.2-6.64-1.77-5.61-3-5.4-7.76.08-1.58.74-2.68,2.61-1.16,4.12,3.32,12.66.46,15.8-4.39,1.33-.34,2.66-.72,4-1,.94-.2,1.8-.57,1.95-1.53s-.83-1.23-1.48-1.65-1.22-1-1.81-1c-2.75.08-1.56-1.14-.82-2.24,1.9-1,4.14.77,6-.73a32.45,32.45,0,0,0,13.66,6.05c1.47.47,3,.53,4-.8.84-1.17-.56-1.86-1.08-2.73a8.07,8.07,0,0,1-1-5.09c.49.29,1,.57,1.46.89.94.63,2,1.08,2.93.23,1.14-1,.29-1.94-.47-2.71a2.37,2.37,0,0,1-.8-2.34c.35-.59.69-1.19,1.05-1.77.62-1,1.64-2,.33-3.08-1.16-.94-2.5-.5-3.51.36-.62.52-1.61.88-1.59,2-1,.94-2.58,1.49-2.61,3.24h0a7.44,7.44,0,0,1-.62.63l-.21.17a5,5,0,0,1-.51.34l-.29.14a3.43,3.43,0,0,1-1,.31l-.4.05a6.79,6.79,0,0,1-1.42,0c-.64-.08-1.3-.23-2-.37-.33-.08-.65-.15-1-.21A10,10,0,0,1,97,121.39c.36-1.7,2.1-2.79,2-4.68a9,9,0,0,0,5.46-3.87c1.92-1.47,2.26-3.33.43-4.86-1.6-1.34-3.59-1.61-4.81.84-1.29,1.68-3,3.08-3.64,5.2-1.93.18-3.82.47-5.22,2-2.86-.53-4.43-2.64-5.92-4.84-1.16-1.59-3.2-1.84-4.63-3.13-1.79-1.62-1.84-3.31-.69-5,3.71-5.38,7.14-11,12.34-15.18a3.31,3.31,0,0,0,1.38-2.77c.07-3.5,1.2-6.37,4.43-8.21a8.61,8.61,0,0,0,2.3-2.32c3.3-4.18,2.76-6.36-2.08-8.67-.12-.06-.12-.34-.18-.51,4.71-2.75,7.43-2.12,9.83,2.31.27.51.45.79,1.07.64,2.86-.74,4.41-5.33,2.18-7.4-3.57-3.31-3-6.77-1.24-10.54,1.33-2.8,6.28-5.76,8.83-5.24-.14.37-.28.74-.4,1.12-1.69,4.93-1,6,4.17,7.09,2.32.5,4.79-.3,7,1,.91.54,1.53,2.19,3,1.15s1-2.46.89-3.84a8.55,8.55,0,0,1,4.67-8.57c.78-.4,1.61-1,2.51-.36s.23,1.44.13,2.18c-.55,4.3,1.11,6.84,5,7.7a4.8,4.8,0,0,1,.79,3.4Q146.71,83.26,146.73,110.44Z"/><path d="M62.78,12.15a2.18,2.18,0,0,1-1.19,2.12,4.61,4.61,0,0,1-2.34.57,4.83,4.83,0,0,1-1.88-.42,5.65,5.65,0,0,1-2.19-1.62,4.57,4.57,0,0,0-3.44,2.32,6,6,0,0,0-.79,3A6.67,6.67,0,0,0,53.09,23a6.2,6.2,0,0,0,4.77,1.86,1.5,1.5,0,0,0,.92-.28,2.22,2.22,0,0,0,.47-1.33c0-.46.08-1.38.08-2.75a7.7,7.7,0,0,0-.19-2.07,1.21,1.21,0,0,0-1.23-.94,2,2,0,0,0-1.13.35,1.09,1.09,0,0,0-.57.93c0,.4.18.59.54.59s.33-.13.33-.39a1.18,1.18,0,0,0,0-.25.59.59,0,0,1,.37-.12,1,1,0,0,1,.74.34,1.15,1.15,0,0,1,.37.86,1.22,1.22,0,0,1-1.2,1.38,3.24,3.24,0,0,1,.2,1q0,1.41-1.62,1.41a1.55,1.55,0,0,1-1.13-.44,1.27,1.27,0,0,1-.39-.79,3.67,3.67,0,0,0,.6.14.84.84,0,0,0,.68-.08.35.35,0,0,0,.13-.46l-.71-1a3.89,3.89,0,0,1-.64-2.18,2.85,2.85,0,0,1,1.06-2.33,3.82,3.82,0,0,1,2.5-.82,3.87,3.87,0,0,1,3,1.6,4.91,4.91,0,0,1,1.23,3.13,5.82,5.82,0,0,1-1.09,2.76,9.22,9.22,0,0,1-1.71,2.18,3.19,3.19,0,0,1-1.23.68,6.79,6.79,0,0,1-1.78.21,9.57,9.57,0,0,1-5.85-1.83A6.5,6.5,0,0,1,47.82,19,8.06,8.06,0,0,1,51.7,12,25.44,25.44,0,0,1,54,10.82a6.63,6.63,0,0,0,2-1.3,1.85,1.85,0,0,1,.5.29,1.83,1.83,0,0,1-.29.74,2.33,2.33,0,0,1,.78-.28,1,1,0,0,1,.54.43l.57.76a3.61,3.61,0,0,0,2.76,1.41c.57,0,.85-.15.85-.46a.34.34,0,0,0,0-.16c-.55,0-.82-.24-.82-.72A.69.69,0,0,1,61,11a.81.81,0,0,1,.58-.22C62.33,10.79,62.73,11.24,62.78,12.15Z"/><path d="M69.21,14c0,.11-.07.2-.22.3l-1.45.89c-.13.08-.22.1-.26,0l-.09-.11a.1.1,0,0,1,0-.15l.19-.17q.12-.09,0-.36L67,13.07c-.07-.21-.13-.31-.19-.31s-.07.1-.06.32v.42c0,.27,0,.65,0,1.13s0,1,.09,1.85c0,.44.07,1.29.18,2.54,0,.19,0,.47.06.85,0,.22,0,.36.11.4l.27.17c.11.07.16.13.16.19s0,.05-.1.05l-.49,0H64.66l-.39,0s-.11,0-.16-.13.06-.1.18-.18l.33-.24a.31.31,0,0,0,.15-.26V13.76c0-.76,0-1.07,0-.92,0-.21-.11-.32-.36-.32h-.76c-.15,0-.22,0-.22-.06s.07-.09.17-.17l2.15-1.49a.92.92,0,0,1,.39-.21.88.88,0,0,1,.39.18c.06,0,.09.1.1.22l.07.78c0,.2,0,.28.15.22s.35-.22.52-.31a4.6,4.6,0,0,1,.45-.24c.21-.11.44.1.68.62.07.15.21.49.42,1l.17.42A1.91,1.91,0,0,1,69.21,14Z"/><path d="M75.12,15A30.83,30.83,0,0,1,73.65,18c-.25.45-.65,1.16-1.21,2.13-.45.76-.8,1.34-1.06,1.72s-.36.58-.63,1l-.64.93a7.86,7.86,0,0,1-.61.83.5.5,0,0,1-.41.19,10.56,10.56,0,0,1-1.63-.14q-.66-.11-1.29-.27a12.83,12.83,0,0,1-1.39-.44,11.54,11.54,0,0,1-1.28-.58.12.12,0,0,1,0-.18,2.77,2.77,0,0,1,.17-.3,4.47,4.47,0,0,1,.65-.73l.17-.15a.5.5,0,0,1,.32-.06l1.37.14c.16,0,.23.05.22.09s-.07.07-.21.11L65,22.53s-.08,0-.11.14l-.11.29a.17.17,0,0,0,.13.25,4.58,4.58,0,0,0,.55.13,10.59,10.59,0,0,0,1.06.15c.24,0,.64.05,1.19.07a7.4,7.4,0,0,0,1,0c.11-.18.28-.45.51-.8l1-1.54c-.12-.43-.56-1.91-1.31-4.43-.07-.23-.15-.49-.26-.79a.48.48,0,0,0-.3-.15c-.1,0-.16,0-.17-.08s0-.13.13-.13l1.53,0,1.35-.05c.18,0,.26,0,.26.07s-.06.09-.18.13l-.22.09A.16.16,0,0,0,71,16a.45.45,0,0,0,0,.23c0,.19.13.54.26,1.06s.26,1,.44,1.57c.19-.31.44-.75.75-1.31.12-.2.33-.6.63-1.18a7.94,7.94,0,0,0,.37-1,6.09,6.09,0,0,1-.59-.41L74,15Z"/><path d="M84.07,9.54s.05.09,0,.17a.32.32,0,0,1-.12.18,16.78,16.78,0,0,1-2,1.5.55.55,0,0,1-.18,0A2.3,2.3,0,0,1,80.74,11l-1-.6c0,.06,0,.53,0,1.41l0,1.88a5,5,0,0,1,.81.18,6.25,6.25,0,0,1,1.68.81c.07.06.1.1.1.13a.41.41,0,0,1-.1.11c-.21.14-.45.33-.73.56s-.23.38-.13.45a.89.89,0,0,0,.26.08.55.55,0,0,1,.7-.51,1.14,1.14,0,0,0-.33,1,3.7,3.7,0,0,1-1-.17,1.61,1.61,0,0,1-.84-.46.24.24,0,0,1,0-.32A2.64,2.64,0,0,1,81.72,15a4.33,4.33,0,0,0-1.9-.45v.76c0,.66,0,1.75-.08,3.27-.07,1.29-.15,2.39-.26,3.3,0,.09.13.24.22.44a.93.93,0,0,0,.23.35.43.43,0,0,0,.38.06l.27-.05c.11,0,.18,0,.21.08l0,.1c0,.08,0,.15-.19.22l-1.43.57a3,3,0,0,1-.61.22.61.61,0,0,1-.43-.13l-.26-.35-.31-.48-.68.26c-.16.07-.25.05-.28,0l0-.09c0-.08,0-.16.13-.23l.24-.17a.72.72,0,0,0,.27-.29,1.49,1.49,0,0,0,.08-.38c0-.18,0-.47.07-.85.08-.94.15-1.91.22-2.93,0-.55,0-1.29,0-2.24,0-.33,0-.71,0-1.12a4.68,4.68,0,0,0-1,.42.21.21,0,0,1-.31-.07c-.2-.26-.5-.61-.88-1.06a6.23,6.23,0,0,1,2.18-.47c0-1,0-2.41,0-4.16l1.15-.55,1-.48a1.77,1.77,0,0,1,.31-.11.68.68,0,0,1,.31.1c.27.18.65.41,1.14.71a3.2,3.2,0,0,0,1.77.55l.38-.21A.28.28,0,0,1,84.07,9.54Z"/><path d="M91.54,9.54s0,.09,0,.17a.28.28,0,0,1-.12.18,16.78,16.78,0,0,1-2,1.5.52.52,0,0,1-.18,0A2.37,2.37,0,0,1,88.21,11l-1-.6c0,.06,0,.53,0,1.41,0,.63,0,1.26,0,1.88a5,5,0,0,1,.81.18,6.25,6.25,0,0,1,1.68.81c.07.06.1.1.1.13s0,.06-.1.11c-.21.14-.45.33-.73.56s-.23.38-.13.45a.89.89,0,0,0,.26.08.55.55,0,0,1,.7-.51,1.14,1.14,0,0,0-.33,1,3.76,3.76,0,0,1-1-.17,1.57,1.57,0,0,1-.83-.46.22.22,0,0,1,0-.32A2.61,2.61,0,0,1,89.2,15a4.41,4.41,0,0,0-1.91-.45v.76c0,.66,0,1.75-.08,3.27-.06,1.29-.15,2.39-.26,3.3a3.51,3.51,0,0,1,.22.44.93.93,0,0,0,.23.35.45.45,0,0,0,.39.06l.26-.05c.11,0,.18,0,.21.08l0,.1c0,.08,0,.15-.2.22l-1.42.57a3,3,0,0,1-.62.22.57.57,0,0,1-.42-.13,3.06,3.06,0,0,1-.27-.35l-.31-.48-.67.26c-.17.07-.26.05-.29,0l0-.09c0-.08,0-.16.13-.23l.24-.17a.72.72,0,0,0,.27-.29,1.49,1.49,0,0,0,.08-.38c0-.18,0-.47.07-.85.08-.94.16-1.91.22-2.93,0-.55,0-1.29,0-2.24,0-.33,0-.71,0-1.12a4.74,4.74,0,0,0-1,.42.21.21,0,0,1-.31-.07c-.2-.26-.5-.61-.88-1.06a6.29,6.29,0,0,1,2.19-.47c0-1,0-2.41,0-4.16l1.14-.55,1-.48a1.65,1.65,0,0,1,.32-.11.69.69,0,0,1,.3.1c.27.18.65.41,1.14.71a3.22,3.22,0,0,0,1.77.55l.38-.21A.28.28,0,0,1,91.54,9.54Z"/><path d="M94.38,11q0,.12-.12.21L93,11.84a3,3,0,0,1-.64.26A.52.52,0,0,1,92,12l-.29-.33-.27-.39s-.13-.06-.25,0l-.29.07a.2.2,0,0,1-.21-.06c-.08-.1-.07-.18.06-.24l.22-.11,1-.45.85-.39a.32.32,0,0,1,.44.1,2.64,2.64,0,0,1,.22.33l.28.38c.09.13.19.17.29.13l.2-.1C94.29,10.86,94.35,10.9,94.38,11Zm1.2,11.46-.1.16c-.06.07-.15.07-.29,0l-1.9-.93a2.64,2.64,0,0,1-.55-.35.91.91,0,0,1-.28-.7c0-.09,0-.29,0-.59s0-.53,0-.67,0-.35,0-.78,0-.72,0-.94c0-.7,0-1.31,0-1.82q0-.48,0-2c0-.25-.14-.35-.33-.31l-.48.12c-.1,0-.16,0-.17-.13s0-.21.07-.24l.82-.33,1.15-.5,1.13-.53a.25.25,0,0,1,.2,0,.17.17,0,0,1,.1.16.13.13,0,0,1,0,.09,1.17,1.17,0,0,0-.42.77c0,.24,0,.6,0,1.07s0,1.44,0,2.58c0,.24,0,.62,0,1.13s0,.78,0,.94v1.7c0,.31,0,.56,0,.76a1.49,1.49,0,0,0,0,.38.52.52,0,0,0,.26.28l.63.42C95.59,22.3,95.63,22.38,95.58,22.46Z"/><path d="M103.69,25.21l-.16.34c0,.08-.14.08-.3,0L101.55,25a1.52,1.52,0,0,1-.57-.35,1,1,0,0,1-.3-.68,12.5,12.5,0,0,1,0-1.25c0-.25,0-.6,0-1s0-.82,0-1c0-.78,0-1.26,0-1.42,0-1.08,0-1.86-.07-2.36,0-.28-.06-.7-.09-1.24a.42.42,0,0,0-.33-.42.9.9,0,0,0-.55.14,3.49,3.49,0,0,0-.67.37v1.61c0,1.49,0,2.46.06,2.92a7.08,7.08,0,0,1-.15,2.14l-.23.88c-.07.23-.18.35-.34.37a.63.63,0,0,1-.47-.19l-1.62-1.29a.55.55,0,0,1-.14-.15s.07-.06.2-.07l.32-.05A.35.35,0,0,0,97,21.5V17.61c0-.58,0-1.26,0-2a.45.45,0,0,0-.08-.33.35.35,0,0,0-.29,0l-.75.26c-.14,0-.22,0-.22-.08a.34.34,0,0,1,.16-.26L98,13.66a2,2,0,0,1,.49-.29.56.56,0,0,1,.27.08s.08.11.09.23l.11.71a13,13,0,0,1,1.33-.6.56.56,0,0,1,.49,0,5,5,0,0,1,.63.45c.39.33.68.59.86.77a1,1,0,0,1,.24.51c.07.4.13.86.17,1.36s.09,1,.09,1.36,0,.84.06,1.4,0,1.22,0,1.93,0,1.27,0,2.05c0,.22,0,.52.06.91,0,0,0,.12.07.24a.33.33,0,0,0,.32.23h.51S103.74,25.12,103.69,25.21Z"/><path d="M111,20.86s-.06.09-.18.17l-2.27,1.46a.85.85,0,0,1-.51.18l-.29-.18c-.06,0-.09-.11-.08-.22l0-.62c-.36.18-.8.36-1.31.56a.54.54,0,0,1-.49-.06l-.7-.49a5.69,5.69,0,0,1-.85-.73,1,1,0,0,1-.25-.52c0-.31-.08-.77-.11-1.36s-.06-1.17-.06-1.37c0-.35,0-.8,0-1.34s.06-1,.14-1.65a2.65,2.65,0,0,1,.23-.56,1.33,1.33,0,0,1,.55-.47c.09-.05.6-.24,1.54-.57A3.26,3.26,0,0,1,107,13a.87.87,0,0,1,.58.23l.32.27c0-1,0-1.51,0-1.56,0-.41,0-1-.08-1.73a.19.19,0,0,0-.22-.2h-.88c-.07,0-.1-.05-.1-.14s.05-.14.15-.2a10.43,10.43,0,0,0,1-.69,10.84,10.84,0,0,0,1-.91c.17-.17.47-.51.89-1l.19-.27c.1-.11.15-.07.15.14,0,.55,0,1.37,0,2.48,0,.18,0,1.21,0,3.07,0,.92-.06,2.34-.12,4.25,0,1.11-.09,2.36-.16,3.76,0,.21.1.31.34.32l.77,0C110.91,20.8,111,20.83,111,20.86Zm-3.3-5c0-.54,0-1,0-1.34a.62.62,0,0,0-.12-.27,2,2,0,0,0-.29-.33.34.34,0,0,0-.38-.11,1.58,1.58,0,0,0-.54.37.53.53,0,0,0-.19.31c0,.18-.05.48-.08.9s0,.81-.07,1.42c0,1.09,0,1.88,0,2.36,0,.28,0,.68.05,1.21a.39.39,0,0,0,.31.42.8.8,0,0,0,.49,0,6.14,6.14,0,0,0,.75-.26l0-1.72C107.68,17.26,107.69,16.28,107.69,15.84Z"/><path d="M117.56,20a5.48,5.48,0,0,1-.15,1.21,2.19,2.19,0,0,1-.21.57,3.08,3.08,0,0,1-1.34.92,6.64,6.64,0,0,1-1.29.48A.74.74,0,0,1,114,23a8.54,8.54,0,0,1-1-.86c-.15-.13-.37-.34-.67-.63a5.33,5.33,0,0,1-.42-.49,1,1,0,0,1-.16-.42c0-.76,0-1.63,0-2.61,0-.3,0-.75,0-1.34a3.79,3.79,0,0,0-.85-.23,1,1,0,0,1,.16-.63,2.9,2.9,0,0,0,.4.13l.34.13c0-.1,0-.26.09-.49a.41.41,0,0,1,.16-.24l1.35-.77a11.5,11.5,0,0,1,1.36-.68.53.53,0,0,1,.5,0q.18.09.72.45a6.62,6.62,0,0,1,.91.75,1.09,1.09,0,0,1,.29.52c.1.56.17,1.06.21,1.52s.09.89.13,1.51S117.56,19.59,117.56,20Zm-2.47-5.1a.82.82,0,0,0,0-.28l-1.31.92s0,.13,0,.27v.12a.33.33,0,0,1,0,.14,2.05,2.05,0,0,0,.38-.16l.46-.26a1.13,1.13,0,0,0,.34-.36A1.14,1.14,0,0,0,115.09,14.85Zm.35,4.37c0-.52,0-1-.06-1.54s-.06-.85-.1-1.19c0-.11-.09-.17-.23-.18a1.3,1.3,0,0,0-.53.05c-.24.08-.5.18-.77.29v1.74c0,.39,0,1,.06,1.85,0,.32,0,.78.07,1.4a.61.61,0,0,0,.12.28,3,3,0,0,0,.31.32.26.26,0,0,0,.26.05,3.5,3.5,0,0,0,.56-.25c.08,0,.13-.13.16-.29s.07-.63.1-1.06C115.43,20.11,115.45,19.62,115.44,19.22Z"/><path d="M123.39,14c0,.11-.08.2-.22.3l-1.45.89c-.13.08-.22.1-.26,0l-.1-.11a.11.11,0,0,1,0-.15l.2-.17c.08-.06.09-.18,0-.36l-.46-1.33c-.07-.21-.14-.31-.19-.31s-.07.1-.06.32v.42c0,.27,0,.65,0,1.13s0,1,.08,1.85c0,.44.08,1.29.19,2.54,0,.19,0,.47.06.85,0,.22.05.36.11.4l.27.17c.11.07.16.13.16.19s0,.05-.1.05l-.49,0h-2.35l-.39,0c-.06,0-.11,0-.16-.13s.06-.1.18-.18l.33-.24a.31.31,0,0,0,.15-.26V13.76a4.31,4.31,0,0,0,0-.92c0-.21-.11-.32-.35-.32h-.76c-.15,0-.23,0-.22-.06s.06-.09.16-.17l2.16-1.49a.92.92,0,0,1,.39-.21.88.88,0,0,1,.39.18c.06,0,.09.1.1.22l.06.78c0,.2.06.28.15.22l.53-.31a4.6,4.6,0,0,1,.45-.24c.21-.11.44.1.68.62.07.15.21.49.42,1l.17.42A1.91,1.91,0,0,1,123.39,14Z"/></svg>