<svg id="Layer_1" data-name="Layer 1" xmlns="http://www.w3.org/2000/svg" xmlns:xlink="http://www.w3.org/1999/xlink" width="365" height="450" viewBox="0 0 365 450"><defs><style>.cls-1{fill:none;}.cls-2{fill:#f3c542;}.cls-3{fill:#97785e;}.cls-4{fill:#f99b55;}.cls-5{fill:#f7b284;}.cls-6{fill:#fc7f10;}.cls-7{fill:url(#New_Pattern_Swatch_8);}.cls-8{fill:url(#New_Pattern_Swatch_8-3);}.cls-9{fill:url(#New_Pattern_Swatch_8-5);}.cls-10{fill:#2c2924;}</style><pattern id="New_Pattern_Swatch_8" data-name="New Pattern Swatch 8" width="55" height="55" patternTransform="translate(-130.48 399.01)" patternUnits="userSpaceOnUse" viewBox="0 0 55 55"><rect class="cls-1" width="55" height="55"/><rect class="cls-2" width="55" height="55"/><polygon class="cls-1" points="0 10.21 44.78 55 51.47 55 0 3.54 0 10.21"/><polygon class="cls-1" points="31.04 0 55 23.96 55 17.29 37.72 0 31.04 0"/><polygon class="cls-1" points="44.78 0 55 10.21 55 3.54 51.47 0 44.78 0"/><polygon class="cls-1" points="3.54 0 55 51.47 55 44.78 10.21 0 3.54 0"/><polygon class="cls-1" points="17.29 0 55 37.72 55 31.04 23.96 0 17.29 0"/><polygon class="cls-1" points="0 51.47 3.54 55 10.21 55 0 44.78 0 51.47"/><polygon class="cls-1" points="0 37.72 17.29 55 23.96 55 0 31.04 0 37.72"/><polygon class="cls-1" points="0 23.96 31.04 55 37.72 55 0 17.29 0 23.96"/><polygon class="cls-3" points="55 3.54 55 0 51.47 0 55 3.54"/><polygon class="cls-3" points="37.72 0 55 17.29 55 10.21 44.78 0 37.72 0"/><polygon class="cls-3" points="23.96 0 55 31.04 55 23.96 31.04 0 23.96 0"/><polygon class="cls-3" points="10.21 0 55 44.78 55 37.72 17.29 0 10.21 0"/><polygon class="cls-3" points="0 0 0 3.54 51.47 55 55 55 55 51.47 3.54 0 0 0"/><polygon class="cls-3" points="0 17.29 37.72 55 44.78 55 0 10.21 0 17.29"/><polygon class="cls-3" points="0 31.04 23.96 55 31.04 55 0 23.96 0 31.04"/><polygon class="cls-3" points="0 44.78 10.21 55 17.29 55 0 37.72 0 44.78"/><polygon class="cls-3" points="0 55 3.54 55 0 51.47 0 55"/></pattern><pattern id="New_Pattern_Swatch_8-3" data-name="New Pattern Swatch 8" width="55" height="55" patternTransform="translate(-133.53 407.77) scale(1.01 0.94)" patternUnits="userSpaceOnUse" viewBox="0 0 55 55"><rect class="cls-1" width="55" height="55"/><rect class="cls-2" width="55" height="55"/><polygon class="cls-1" points="0 10.21 44.78 55 51.47 55 0 3.54 0 10.21"/><polygon class="cls-1" points="31.04 0 55 23.96 55 17.29 37.72 0 31.04 0"/><polygon class="cls-1" points="44.78 0 55 10.21 55 3.54 51.47 0 44.78 0"/><polygon class="cls-1" points="3.54 0 55 51.47 55 44.78 10.21 0 3.54 0"/><polygon class="cls-1" points="17.29 0 55 37.72 55 31.04 23.96 0 17.29 0"/><polygon class="cls-1" points="0 51.47 3.54 55 10.21 55 0 44.78 0 51.47"/><polygon class="cls-1" points="0 37.72 17.29 55 23.96 55 0 31.04 0 37.72"/><polygon class="cls-1" points="0 23.96 31.04 55 37.72 55 0 17.29 0 23.96"/><polygon class="cls-3" points="55 3.54 55 0 51.47 0 55 3.54"/><polygon class="cls-3" points="37.72 0 55 17.29 55 10.21 44.78 0 37.72 0"/><polygon class="cls-3" points="23.96 0 55 31.04 55 23.96 31.04 0 23.96 0"/><polygon class="cls-3" points="10.21 0 55 44.78 55 37.72 17.29 0 10.21 0"/><polygon class="cls-3" points="0 0 0 3.54 51.47 55 55 55 55 51.47 3.54 0 0 0"/><polygon class="cls-3" points="0 17.29 37.72 55 44.78 55 0 10.21 0 17.29"/><polygon class="cls-3" points="0 31.04 23.96 55 31.04 55 0 23.96 0 31.04"/><polygon class="cls-3" points="0 44.78 10.21 55 17.29 55 0 37.72 0 44.78"/><polygon class="cls-3" points="0 55 3.54 55 0 51.47 0 55"/></pattern><pattern id="New_Pattern_Swatch_8-5" data-name="New Pattern Swatch 8" width="55" height="55" patternTransform="translate(-149.7 480.63) scale(1 1.1)" patternUnits="userSpaceOnUse" viewBox="0 0 55 55"><rect class="cls-1" width="55" height="55"/><rect class="cls-2" width="55" height="55"/><polygon class="cls-1" points="0 10.21 44.78 55 51.47 55 0 3.54 0 10.21"/><polygon class="cls-1" points="31.04 0 55 23.96 55 17.29 37.72 0 31.04 0"/><polygon class="cls-1" points="44.78 0 55 10.21 55 3.54 51.47 0 44.78 0"/><polygon class="cls-1" points="3.54 0 55 51.47 55 44.78 10.21 0 3.54 0"/><polygon class="cls-1" points="17.29 0 55 37.72 55 31.04 23.96 0 17.29 0"/><polygon class="cls-1" points="0 51.47 3.54 55 10.21 55 0 44.78 0 51.47"/><polygon class="cls-1" points="0 37.72 17.29 55 23.96 55 0 31.04 0 37.72"/><polygon class="cls-1" points="0 23.96 31.04 55 37.72 55 0 17.29 0 23.96"/><polygon class="cls-3" points="55 3.54 55 0 51.47 0 55 3.54"/><polygon class="cls-3" points="37.72 0 55 17.29 55 10.21 44.78 0 37.72 0"/><polygon class="cls-3" points="23.96 0 55 31.04 55 23.96 31.04 0 23.96 0"/><polygon class="cls-3" points="10.21 0 55 44.78 55 37.72 17.29 0 10.21 0"/><polygon class="cls-3" points="0 0 0 3.54 51.47 55 55 55 55 51.47 3.54 0 0 0"/><polygon class="cls-3" points="0 17.29 37.72 55 44.78 55 0 10.21 0 17.29"/><polygon class="cls-3" points="0 31.04 23.96 55 31.04 55 0 23.96 0 31.04"/><polygon class="cls-3" points="0 44.78 10.21 55 17.29 55 0 37.72 0 44.78"/><polygon class="cls-3" points="0 55 3.54 55 0 51.47 0 55"/></pattern></defs><path class="cls-4" d="M356.73,245.5c0,30.48-12.62,57.79-45.15,76.24V385a8.17,8.17,0,0,1-8.17,8.17H286.79v10a7,7,0,0,1-7,7H255.37c-19.19,23.88-43,38-68.87,38-1.34,0-2.67,0-4-.11V66.8c1.33-.08,2.66-.12,4-.12,24.74,0,47.66,13,66.42,35.06h26.89a7,7,0,0,1,7,7v10h16.62a8.16,8.16,0,0,1,8.16,8.17v42.42C344.12,187.71,356.73,215,356.73,245.5Z"/><path class="cls-5" d="M356.73,245.5c0,30.48-12.62,57.79-45.15,76.24V385a8.17,8.17,0,0,1-8.17,8.17H286.79v10a7,7,0,0,1-7,7H255.37c-19.19,23.88-43,38-68.87,38-1.34,0-2.67,0-4-.11-24.3-1.38-46.68-15.27-64.88-37.91H85.3a7,7,0,0,1-7-7v-10H60.57A8.17,8.17,0,0,1,52.4,385V318.59C21.67,300.25,8.27,274.28,8.27,245.5s13.41-54.75,44.13-73.09V126.84a8.17,8.17,0,0,1,8.17-8.17H78.33v-10a7,7,0,0,1,7-7h34.77c17.74-20.89,39.21-33.63,62.43-34.94,1.33-.08,2.66-.12,4-.12,24.74,0,47.66,13,66.42,35.06h26.89a7,7,0,0,1,7,7v10h16.62a8.16,8.16,0,0,1,8.16,8.17v42.42C344.12,187.71,356.73,215,356.73,245.5Z"/><path class="cls-4" d="M337.29,246.82c0,27.08-11.21,51.34-40.11,67.73v56.19a7.26,7.26,0,0,1-7.26,7.25H275.15v8.84A6.21,6.21,0,0,1,269,393H247.24c-17.05,21.22-38.24,33.78-61.18,33.78-1.19,0-2.37,0-3.56-.1C160.92,425.49,141,413.15,124.87,393H96.15a6.2,6.2,0,0,1-6.2-6.2V378H74.18a7.26,7.26,0,0,1-7.25-7.25v-59c-27.31-16.3-39.22-39.37-39.22-64.94s11.91-48.64,39.22-64.93V141.41a7.26,7.26,0,0,1,7.25-7.26H90v-8.84a6.19,6.19,0,0,1,6.2-6.2H127c15.76-18.56,34.84-29.88,55.46-31,1.19-.07,2.37-.11,3.56-.11,22,0,42.34,11.53,59,31.15H269a6.2,6.2,0,0,1,6.2,6.2v8.84h14.77a7.26,7.26,0,0,1,7.26,7.26v37.68C326.08,195.48,337.29,219.75,337.29,246.82Z"/><path class="cls-6" d="M337.29,246.82c0,27.08-11.21,51.34-40.11,67.73v56.19a7.26,7.26,0,0,1-7.26,7.25H275.15v8.84A6.21,6.21,0,0,1,269,393H247.24c-17.05,21.22-38.24,33.78-61.18,33.78-1.19,0-2.37,0-3.56-.1V88.07c1.19-.07,2.37-.11,3.56-.11,22,0,42.34,11.53,59,31.15H269a6.2,6.2,0,0,1,6.2,6.2v8.84h14.77a7.26,7.26,0,0,1,7.26,7.26v37.68C326.08,195.48,337.29,219.75,337.29,246.82Z"/><path class="cls-2" d="M285.68,187.83V154.34a6.49,6.49,0,0,0-6.53-6.45H265.87V140a5.54,5.54,0,0,0-5.58-5.51H238.8a93.22,93.22,0,0,0-16.51-15.25,71.09,71.09,0,0,0-10.76-6.38,1.28,1.28,0,0,0-.24-.11h0a62.12,62.12,0,0,0-11-4A56.81,56.81,0,0,0,189.15,107c-1.14-.08-2.29-.11-3.44-.11s-2.14,0-3.2.09l-.53,0h-.19a57.88,57.88,0,0,0-15.42,3.21c-1.57.54-3.13,1.15-4.65,1.84a0,0,0,0,0,0,0,65.58,65.58,0,0,0-7.83,4.08s0,0,0,0a89.35,89.35,0,0,0-21.26,18.39H104.82A5.54,5.54,0,0,0,99.23,140v7.85H85.05a6.5,6.5,0,0,0-6.53,6.45v36C54,204.79,43.23,225.29,43.23,248S54,291.22,78.52,305.69V358.1a6.49,6.49,0,0,0,6.53,6.44H99.23v7.86a5.55,5.55,0,0,0,5.59,5.51h25.83c14.55,17.87,32.44,28.83,51.86,29.92,1.06.06,2.13.09,3.2.09,20.64,0,39.71-11.16,55-30h19.53a5.55,5.55,0,0,0,5.58-5.51v-7.86h13.28a6.48,6.48,0,0,0,6.53-6.44V308.18c26-14.56,36.09-36.12,36.09-60.18S311.68,202.39,285.68,187.83ZM166.47,163c-4.06.08-6.65-1.38-8-3.49a2.39,2.39,0,0,1-.13-.21,12.41,12.41,0,0,0,1.3.69c2.33,1.06,4.73,2,7.1,3A1.22,1.22,0,0,1,166.47,163Z"/><path class="cls-7" d="M217.66,150.18a7.69,7.69,0,0,1-1,1.56,4.1,4.1,0,0,1-.68.59,3.53,3.53,0,0,1-.71.39c-1.26.49-2.68.05-4.09-1.38-.38-.38-.75-.77-1.12-1.16h5.61a.81.81,0,0,0,.1.18l.86-.18Z"/><path class="cls-3" d="M217.79,149.92h0l-.13.25h-1.07Z"/><path class="cls-3" d="M221.27,29.67l-.27-1C221.84,28.79,221.91,29.14,221.27,29.67Z"/><path class="cls-3" d="M216.91,35.71a.39.39,0,0,1,0,.44l-.42-.2Z"/><path class="cls-2" d="M252.82,23.88C240,23.45,227.32,22.24,215,18.4A73.27,73.27,0,0,1,187.67,3.31c-1.91-1.71-3.4-2-5.27,0-3.64,4-8.42,6.58-13.06,9.23a65.21,65.21,0,0,1-21.49,7.55c-5.17.88-10.29,2-15.5,2.73a97.21,97.21,0,0,1-14.54.76c-2.8,0-3.24,1.09-2.59,3.46.33,1.24,1.12,2.29,1.2,3.65.29,5,2,9.68,3,14.54,1.79,9.23,4,18.4,3.9,27.91-.07,5.37,0,10.75,0,16.13h0c0,4.88.1,9.76,0,14.63-.21,8.48,1.72,16.55,4.42,24.48a55.63,55.63,0,0,0,8.77,16.39,112,112,0,0,0,20.46,20.36l.31.23c6.53,4.89,13.92,8.51,21.25,12.13l2.45,1.22c1.81.9,3.67,1.49,5.68.66,2.76-1.12,5.61-2,8.23-3.43q1-.54,2.07-1.11h-8.73a63.26,63.26,0,0,0,7.91-3.51,74.23,74.23,0,0,0,9.86-6.19,46.37,46.37,0,0,0-4,2.77,1.61,1.61,0,0,1-1.58.24c-.49-.13-.94-.33-1.36-.13a.76.76,0,0,0-.19.12,1.57,1.57,0,0,0-.19.18h0l-.12.25h0a7.69,7.69,0,0,1-1,1.56,4.1,4.1,0,0,1-.68.59,2.93,2.93,0,0,1-.71.39c-1.26.49-2.68,0-4.09-1.38-.38-.38-.75-.77-1.12-1.16-1.66-1.76-3.33-3.66-5.39-5.9a26.67,26.67,0,0,0-.6,5.9c0,1.4.08,2.7.09,4a7.85,7.85,0,0,1-.05.9.76.76,0,0,1,0,.16,2.38,2.38,0,0,1-.07.31.85.85,0,0,1-.09.24,1.11,1.11,0,0,1-.35.46l-.22.11h0l-.24,0-.2,0-.34,0a2.08,2.08,0,0,1-.39-.08,7.39,7.39,0,0,1-.91-.3,103.09,103.09,0,0,1-25.5-14.17l-.94-.74h0a93.11,93.11,0,0,1-16.84-17.15c-.47-.62-.93-1.24-1.38-1.87A59.17,59.17,0,0,1,127,113.19a27.57,27.57,0,0,1-.33-3.91v0c.08-2.5,1.48-2.51,6.25-2.51,16.31,0,32.62,0,48.94.07a4.29,4.29,0,0,0,2-.35c.78-.41,1-1.23,1-2.68v-.53c-.08-17.65,0-35.3-.1-52.94a3.72,3.72,0,0,1,.61-2.55c.5-.58,1.37-.76,2.77-.75,18.7.11,37.4.06,56.1.07,3.46,0,3.61.17,2.9,3.55-2.42,11.42-3.89,22.93-3,34.62.3,4.27.42,8.54.3,12.81,0,1,.34,2-.63,2.77.05.81.08,1.61.09,2.42h1.41v14.49a50.84,50.84,0,0,0,2.06-15.3c-.13-10.36.12-20.71-.07-31.07-.09-4.82.87-9.51,1.7-14.14.55-3.09.57-6.26,1.47-9.43,1.91-6.73,3.42-13.62,5.15-20.43C256.1,25.22,255.66,24,252.82,23.88Z"/><path class="cls-3" d="M247.13,50.63c-2.42,11.42-3.89,22.93-3,34.62.3,4.27.42,8.54.3,12.81,0,1,.34,2-.63,2.77-5.94-.62-10.42-3.82-14.27-8.12-2.44-2.72-2.32-5,.49-7.37,1.68-1.39,3.58-2.5,5.29-3.85a10.05,10.05,0,0,0,3.93-10.15c-.14-.9-.39-1.67-1.39-1.55-6.19.75-11.93-1.85-17.92-2.28-3.69-.26-6.68-.82-8.83-4a2.2,2.2,0,0,0-2.91-.74,2.11,2.11,0,0,0-1.31,2.37c.16,2.38-1.19,3.48-3.12,4.81-7.63,5.22-13.75,11.6-13.6,21.79q.09,5.77-.29,11.53c-.07,1.22-.17,2.44-.28,3.66A5.32,5.32,0,0,0,186,108c1.38.9,1.62,2.8,3.57,2.87q0,3.68,0,7.35c-1.88-.47-2.84-2.19-4.69-3.56,0,2.12,0,3.88,0,5.63,0,3.11,3.83,7.4,7.09,8,1.73,2.25.51,5.89-2.41,7.15-.56-.92-.63-2.06-1.47-2.87s-1.66-1.62-2.83-1.14c-1.39.57-1,1.65-.57,2.76a8.62,8.62,0,0,1,.2,2.35,3.79,3.79,0,0,1-1,.14,3.72,3.72,0,0,1-2.33-.82,7,7,0,0,0-4.33-1.69c-1.19,0-3.68-1.77-2.34,1.74.21.55-.55.65-1,.72-.84.11-2.19-.14-2.07,1.06.13,1.37,1.58.4,2.37.74.4.17,1-.18,1.29.42-.11,1-1.93.84-1.62,1.85,1.78,1.52,5.58-1.09,5.4,3.35a2.21,2.21,0,0,0,1.29.35,7.06,7.06,0,0,1,3.38.88l.29.12a28.71,28.71,0,0,0,10,2.43c1.84,1.93,3.74,3.82,5.51,5.82.19.22.4.43.61.63.84.82,1.79,1.55,2.56,2.42q.28.33.54.69a5.24,5.24,0,0,1,.45.76,4.77,4.77,0,0,1,.34.87h0c-1.82.76-3.73.28-5.59.39-4.71-3.8-8.39-8.75-13.43-12.65-.21,1.54-.64,2.67-.44,3.68.38,2-.65,4.24,1,6,2.23,2.26,4.5,4.48,6.75,6.71.55.55,1.08,1,1.36-.21,3.24,1.35-1.12,2-.13,3.27,1,.57,1.7-1.19,2.79-.66.88,1-.56,2.07-.08,3.1H190.8c-1.66-1.76-3.33-3.66-5.39-5.9a26.67,26.67,0,0,0-.6,5.9c0,1.4.08,2.7.09,4,0,2.42-.88,2.64-2.91,1.85-18.13-7.05-33.33-18.18-44.67-33.94A59.17,59.17,0,0,1,127,113.19a27.57,27.57,0,0,1-.33-3.91v0c.08-2.5,1.48-2.51,6.25-2.51,16.31,0,32.62,0,48.94.07a4.29,4.29,0,0,0,2-.35c.78-.41,1-1.23,1-2.68v-.53c-.08-17.65,0-35.3-.1-52.94a3.72,3.72,0,0,1,.61-2.55c.5-.58,1.37-.76,2.77-.75,18.7.11,37.4.06,56.1.07C247.69,47.08,247.84,47.25,247.13,50.63Z"/><path class="cls-2" d="M198.55,159.42c-1.19,1.68-4.1,1-4.72,3.48-.27,1.22-.81.75-1.36.21-2.25-2.24-4.52-4.45-6.75-6.71-1.68-1.72-.66-4-1-6-.2-1,.23-2.13.45-3.68C190.17,150.66,193.84,155.62,198.55,159.42Z"/><path class="cls-2" d="M194.14,147.84a27.57,27.57,0,0,1,6.11-2.09c3.55,2.16,5.25,6.36,9,8.27-.32,3.65-1.58,4.87-5.14,5-.71-2.46-3-3.63-4.5-5.38C197.88,151.66,196,149.77,194.14,147.84Z"/><path class="cls-2" d="M189.56,118.2c.56,3.42,2.35,6.56,2.4,10.1-3.26-.63-7.06-4.92-7.09-8,0-1.75,0-3.51,0-5.63C186.72,116,187.69,117.73,189.56,118.2Z"/><path class="cls-2" d="M189.55,135.44c-1.27,1.58-3,1.41-4.67,1.11a8.73,8.73,0,0,0-.2-2.36c-.4-1.11-.82-2.19.57-2.75,1.17-.48,2,.35,2.83,1.14S189,134.53,189.55,135.44Z"/><path class="cls-3" d="M189.54,106.9v3.94c-1.95-.06-2.19-2-3.57-2.87A5.43,5.43,0,0,1,189.54,106.9Z"/><path class="cls-3" d="M209.29,154c-3.79-1.91-5.49-6.11-9-8.27,1.82-.25,3-3,5.45-1.09C209,147.12,211.2,149.7,209.29,154Z"/><path class="cls-8" d="M185.36,47h-60c-.92,0-1.68.68,1.63,14.64.59,2.47,1.11,21.7,0,23.44l-.36,24.19,58.73-.85Z"/><path class="cls-2" d="M245.25,103.25v14.49a49.69,49.69,0,0,1-2.21,6,18.35,18.35,0,0,0-1,3.68c-1.7,7.83-6.24,14.12-11,20.3a93.56,93.56,0,0,1-23.46,20.94c-3.44,2.23-7,4.3-10.65,6.26h-8.73a63.26,63.26,0,0,0,7.91-3.51,74.23,74.23,0,0,0,9.86-6.19c2.12-1.34,4.29-2.61,6.31-4.12,12.83-9.62,23.21-21.15,28.2-36.75a64.74,64.74,0,0,0,3.41-21Z"/><path class="cls-9" d="M243.84,103.25a64.74,64.74,0,0,1-3.41,21c-5,15.6-15.37,27.13-28.2,36.75-2,1.51-4.19,2.78-6.31,4.12a74.23,74.23,0,0,1-9.86,6.19,63.26,63.26,0,0,1-7.91,3.51h-4.32V103.25Z"/><path class="cls-2" d="M246.06,103.51a3.63,3.63,0,0,0-1-1.61,3.71,3.71,0,0,0-1.61-1,3.88,3.88,0,0,0-1.93-.43l-1.33.18a5,5,0,0,0-2.2,1.29l-.78,1a5,5,0,0,0-.69,2.52v.85a5.52,5.52,0,0,0,1.47,3.54,5.59,5.59,0,0,0,3.53,1.46l1.33-.18a4.94,4.94,0,0,0,2.21-1.28l.78-1a5,5,0,0,0,.68-2.53v-.85A3.62,3.62,0,0,0,246.06,103.51Z"/><path class="cls-10" d="M243.84,103.25a64.74,64.74,0,0,1-3.41,21c-5,15.6-15.37,27.13-28.2,36.75-2,1.51-4.19,2.78-6.31,4.12a46.37,46.37,0,0,0-4,2.77,1.61,1.61,0,0,1-1.58.24c-.49-.13-.94-.33-1.36-.13a.76.76,0,0,0-.19.12,1.57,1.57,0,0,0-.19.18l-1.2.26-.86.18a.81.81,0,0,1-.1-.18c-.48-1,1-2.07.08-3.1-1.09-.53-1.79,1.23-2.79.66-1-1.24,3.37-1.92.13-3.27.62-2.45,3.53-1.79,4.72-3.48,1.86-.11,3.77.37,5.59-.39h0c3.56-.13,4.81-1.36,5.14-5,1.91-4.32-.35-6.9-3.59-9.36-2.47-1.88-3.63.83-5.45,1.08a28.09,28.09,0,0,0-6.11,2.09,28.71,28.71,0,0,1-10-2.43l-.29-.12a7.06,7.06,0,0,0-3.38-.88,2.21,2.21,0,0,1-1.29-.35c.18-4.44-3.62-1.83-5.4-3.35-.31-1,1.51-.87,1.62-1.85-.31-.6-.89-.25-1.29-.42-.79-.34-2.24.63-2.37-.74-.12-1.2,1.23-.95,2.07-1.06.49-.07,1.25-.17,1-.72-1.34-3.51,1.15-1.77,2.34-1.74a7,7,0,0,1,4.33,1.69,3.72,3.72,0,0,0,2.33.82,3.79,3.79,0,0,0,1-.14c1.71.3,3.4.48,4.67-1.1,2.92-1.26,4.14-4.9,2.41-7.15-.05-3.54-1.84-6.67-2.4-10.1q0-3.67,0-7.35v-3.94c.11-1.22.21-2.44.28-3.66q.39-5.76.29-11.53c-.15-10.19,6-16.57,13.6-21.79,1.93-1.33,3.28-2.43,3.12-4.81a2.11,2.11,0,0,1,1.31-2.37,2.2,2.2,0,0,1,2.91.74c2.15,3.2,5.14,3.76,8.83,4,6,.43,11.73,3,17.92,2.28,1-.12,1.25.65,1.39,1.55a10.05,10.05,0,0,1-3.93,10.15c-1.71,1.35-3.61,2.46-5.29,3.85-2.81,2.33-2.93,4.65-.49,7.37,3.85,4.3,8.33,7.5,14.27,8.12C243.8,101.64,243.83,102.44,243.84,103.25Z"/><rect class="cls-3" x="182.5" y="47.01" width="4.3" height="2.34"/><path d="M159.72,33.19c-.65.28-1.09.48-1.32.59a3,3,0,0,0-1,.22l-.47.18v6.57c0,.46,0,.89,0,1.29a1.7,1.7,0,0,0,.15.58,1.34,1.34,0,0,0,.32.44,2.59,2.59,0,0,1,.31.2.44.44,0,0,1,0,.32l-.73-.16c-.59-.09-1-.14-1.19-.16s-.73,0-1.12,0h-1.2a1.64,1.64,0,0,1-.25-.28,1.85,1.85,0,0,0,.44-.25,1.73,1.73,0,0,0,.41-.4,3.93,3.93,0,0,0,.35-1.54c0-.18,0-.59,0-1.2,0-.27,0-.65,0-1.14s0-1,0-1.18c0-.84,0-1.35,0-1.54a9.66,9.66,0,0,1-1.15.53,3.57,3.57,0,0,1-1.27.33v1.94c0,1.27,0,2.14,0,2.59a1,1,0,0,0,.18.66,1.18,1.18,0,0,0,.43.24.34.34,0,0,1,.15.14.2.2,0,0,1,0,.17c0,.05-.07.07-.14.05l-.6-.14c-.21,0-.53-.09-.95-.13-.24,0-.91,0-2-.09h-.87c-.05,0-.08,0-.09-.14s0-.12.13-.16l.21-.08a1.66,1.66,0,0,0,.56-.38.84.84,0,0,0,.23-.46c0-.4.06-.9.08-1.51,0-1,0-1.55,0-1.57,0-.42,0-.72,0-.91a7.08,7.08,0,0,1-1.35-.64,3.64,3.64,0,0,1-1-.91,2.36,2.36,0,0,1-.48-1,2.56,2.56,0,0,1,1-.34c.26,0,.49-.08.71-.1a.26.26,0,0,1,.18.14,3.09,3.09,0,0,1-.44.28l-.69.39a1.92,1.92,0,0,0,.61.54,6.68,6.68,0,0,0,1,.52,3.71,3.71,0,0,0,.49.21l0-2.79c0-.21,0-.77,0-1.66q0-1,0-1.68a4.45,4.45,0,0,0,0-.71,1.36,1.36,0,0,0-.09-.35.63.63,0,0,0-.18-.22,1.71,1.71,0,0,0-.38-.21c-.08,0-.12-.1-.1-.17s.08-.12.19-.12h1.86l.9,0c.21,0,.51,0,.92-.05a.19.19,0,0,1,.19.11q.06.11-.06.21a1.4,1.4,0,0,0-.32.22.63.63,0,0,0-.15.41,7.8,7.8,0,0,0,0,1l.08,5.6a1.85,1.85,0,0,0,.48-.12,5.24,5.24,0,0,0,1-.49l.94-.67c0-.56,0-1.14,0-1.74l0-1.63c0-.15,0-.58,0-1.27s0-1.17-.07-1.48a.79.79,0,0,0-.11-.39.75.75,0,0,0-.28-.24c-.12-.07-.16-.14-.13-.22s.07-.08.15-.07a9.05,9.05,0,0,0,2,.12l1-.06.41-.06a.14.14,0,0,1,.15.09.11.11,0,0,1,0,.11l-.22.32a2.81,2.81,0,0,0-.37,1c0,.24-.06.67-.07,1.3v1.86c0,.76,0,1.26,0,1.5a5.37,5.37,0,0,1,1.29-.19h.68C159.11,33.14,159.38,33.16,159.72,33.19Z"/><path d="M166,37.67q0,.16-.09.21l-1.16.52c-.39.19-.82.42-1.28.69a.52.52,0,0,1-.54,0,12.85,12.85,0,0,0-1.27-.59,9.42,9.42,0,0,0-1.51-.46,2.21,2.21,0,0,0-.47,0,.82.82,0,0,0-.21.07.63.63,0,0,1-.28.08c-.09-.06-.06-.13.09-.22l.29-.16c0-.17,0-1.38,0-3.63l-.05-3.08c0-.45-.08-.69-.25-.72a.69.69,0,0,0-.24,0c-.1,0-.15,0-.15,0s0-.13.15-.19l1.64-1a.63.63,0,0,1,.46-.12c.13,0,.21.17.24.38s.11,1.4.17,3.11a21.48,21.48,0,0,1-.11,4.39,1.6,1.6,0,0,1,.8-.19,1.85,1.85,0,0,1,.83.21c0-.09,0-.66,0-1.7a19.81,19.81,0,0,1,.16-3.08c.1-.68.21-1.51.35-2.47,0-.09-.05-.21-.2-.38l-.23-.25-.2-.16c-.09-.08-.12-.15-.09-.22l0-.08c.06-.12.18-.12.39,0,.48.28,1.14.68,2,1.19a2.47,2.47,0,0,0,.33.23.58.58,0,0,1,0,.33,24.83,24.83,0,0,0-.4,2.51,18,18,0,0,0,0,4.52c0,.25.13.35.29.3l.37-.1C165.89,37.53,166,37.56,166,37.67Z"/><path d="M174.52,26.7a.2.2,0,0,1,0,.18.25.25,0,0,1-.12.17,16.73,16.73,0,0,1-1.95,1.51l-.18,0a2.37,2.37,0,0,1-1.11-.38l-1-.6c0,.06,0,.53,0,1.41,0,.63,0,1.25,0,1.87a4.43,4.43,0,0,1,.81.19,6,6,0,0,1,1.68.8c.07.06.1.1.1.13s0,.06-.1.12c-.21.14-.45.32-.73.55s-.23.38-.13.45a.66.66,0,0,0,.26.08.55.55,0,0,1,.7-.5,1.16,1.16,0,0,0-.33,1,4.18,4.18,0,0,1-1-.18,1.54,1.54,0,0,1-.83-.46.21.21,0,0,1,0-.31,2.61,2.61,0,0,1,1.48-.64,4.37,4.37,0,0,0-1.91-.45v.76c0,.67,0,1.76-.08,3.28-.06,1.28-.15,2.38-.26,3.29a4.4,4.4,0,0,1,.22.44.86.86,0,0,0,.24.35.42.42,0,0,0,.38.07l.26-.06c.11,0,.18,0,.21.08l.05.11c0,.07,0,.15-.2.22l-1.42.56A2.4,2.4,0,0,1,169,41a.62.62,0,0,1-.42-.12l-.27-.35c-.07-.12-.17-.28-.31-.49l-.67.27c-.16.06-.26,0-.29,0l0-.09c0-.08,0-.15.13-.23l.24-.16a.79.79,0,0,0,.27-.29,1.79,1.79,0,0,0,.08-.38c0-.19,0-.47.07-.86.09-.93.16-1.91.22-2.93,0-.54,0-1.29,0-2.24,0-.33,0-.7,0-1.12a4.83,4.83,0,0,0-1,.43.22.22,0,0,1-.31-.07c-.2-.26-.49-.62-.88-1.07a6.29,6.29,0,0,1,2.19-.47c0-1,0-2.4,0-4.15l1.14-.56,1.06-.47a1.43,1.43,0,0,1,.31-.12.69.69,0,0,1,.3.11c.27.17.65.41,1.14.7a3.27,3.27,0,0,0,1.77.56l.38-.21A.29.29,0,0,1,174.52,26.7Z"/><path d="M182,26.7s0,.09,0,.18a.27.27,0,0,1-.11.17,17.85,17.85,0,0,1-2,1.51l-.17,0a2.3,2.3,0,0,1-1.11-.38l-1-.6q0,.09,0,1.41c0,.63,0,1.25,0,1.87a4.88,4.88,0,0,1,.81.19,6,6,0,0,1,1.67.8c.07.06.11.1.11.13s-.05.06-.11.12c-.21.14-.45.32-.73.55s-.22.38-.12.45a.61.61,0,0,0,.25.08.56.56,0,0,1,.71-.5,1.16,1.16,0,0,0-.34,1,4.18,4.18,0,0,1-1-.18,1.54,1.54,0,0,1-.83-.46.21.21,0,0,1,0-.31,2.64,2.64,0,0,1,1.48-.64,4.37,4.37,0,0,0-1.91-.45v.76c0,.67,0,1.76-.08,3.28-.06,1.28-.15,2.38-.25,3.29l.22.44a.77.77,0,0,0,.23.35.43.43,0,0,0,.38.07l.27-.06c.1,0,.17,0,.2.08l.05.11c0,.07,0,.15-.2.22l-1.42.56a2.41,2.41,0,0,1-.61.22.63.63,0,0,1-.43-.12s-.1-.14-.27-.35-.17-.28-.31-.49l-.67.27c-.16.06-.26,0-.29,0l0-.09c0-.08,0-.15.12-.23l.25-.16a.84.84,0,0,0,.26-.29,1.79,1.79,0,0,0,.08-.38c0-.19,0-.47.07-.86.09-.93.16-1.91.22-2.93,0-.54,0-1.29,0-2.24,0-.33,0-.7,0-1.12a4.83,4.83,0,0,0-1,.43.22.22,0,0,1-.31-.07c-.2-.26-.49-.62-.88-1.07a6.35,6.35,0,0,1,2.19-.47c0-1,0-2.4,0-4.15l1.15-.56,1.05-.47a1.43,1.43,0,0,1,.31-.12.65.65,0,0,1,.3.11c.27.17.65.41,1.15.7a3.23,3.23,0,0,0,1.77.56,3.79,3.79,0,0,1,.38-.21A.28.28,0,0,1,182,26.7Z"/><path d="M187.1,40.61c0,.06,0,.13-.17.19l-1.43.61a3.33,3.33,0,0,1-.61.22.73.73,0,0,1-.43-.14l-.26-.35c-.06-.09-.31-.47-.77-1.14l-.67.26a.68.68,0,0,1-.21,0s-.06,0-.08-.07a.27.27,0,0,1,.13-.32l.28-.17a.72.72,0,0,0,.2-.29,1.63,1.63,0,0,0,.08-.38c0-.19,0-.47.07-.86q.09-1,.12-2c.07-1.55.11-2.38.11-2.5q0-1.5,0-2.49V27.1c0-.26-.12-.36-.31-.33l-.49.09c-.11,0-.17,0-.18-.13a.27.27,0,0,1,.1-.24l.8-.4c.2-.11.61-.3,1.24-.59.31-.17.69-.35,1.14-.55.19-.07.28,0,.28.18a.11.11,0,0,1,0,.09l-.31.31a.77.77,0,0,0-.14.45c0,.65,0,1.48.05,2.49,0,.12,0,.81,0,2.06,0,.79,0,1.76,0,2.91,0,.34,0,1.08-.07,2.23s-.1,2-.16,2.65a.94.94,0,0,1,0,.21.55.55,0,0,1-.14.1l-.49.25v0a.87.87,0,0,1,.56,0c.07.15.16.33.27.53.2.4.38.71.52,1a.31.31,0,0,0,.34.13l.39,0C187,40.49,187.05,40.52,187.1,40.61Z"/><path d="M192.57,34.08a.49.49,0,0,1-.27.18l-1.63.54c-.78.33-1.13.69-1,1.07.11-.15.24-.16.42,0a.33.33,0,0,1,.09.52c-.15.27-.39.3-.7.08a1.28,1.28,0,0,1-.6-1.12,2,2,0,0,1,1.35-2.08c-.19-.46-.46-1-.81-1.69,0-.09-.11-.09-.18,0a.36.36,0,0,0-.14.16,1.69,1.69,0,0,0-.18.55c0,.11,0,.33-.08.65,0,.54,0,1.35,0,2.42,0,.54,0,1,0,1.51,0,.2,0,.53,0,1a1,1,0,0,0,.11.35,2,2,0,0,0,.27.33,2.31,2.31,0,0,0,.77.33c.21.07.35.06.39,0a5.58,5.58,0,0,0,.49-1.18c.06-.18.13-.46.22-.83q0-.23.12-.15a1.85,1.85,0,0,1,.2.26l.27.35a2.24,2.24,0,0,0,.23.34c.08.11.1.18.07.23l-.45.61-.45.63-.4.48a.4.4,0,0,1-.3.18h-.46l-1.06,0a3.42,3.42,0,0,1-1.15-.91l-.61-.62a3.73,3.73,0,0,0-.26-.33.52.52,0,0,1-.12-.38s0-.12,0-.23,0-.21,0-.27V34c0-.42.11-.93.2-1.53a.67.67,0,0,1,.16-.31l1-.78.91-.71a.62.62,0,0,1,.32-.16,1,1,0,0,1,.33,0,9.29,9.29,0,0,1,.87.38c.26.13.61.31,1,.55a.4.4,0,0,1,.18.22c.27.63.56,1.34.88,2.14A.29.29,0,0,1,192.57,34.08Z"/><path d="M199.93,36.77c0,.42,0,1-.08,1.65a2.41,2.41,0,0,1-.21.55,1.29,1.29,0,0,1-.53.5q-.15.09-1.53.63a3.06,3.06,0,0,1-.59.17.82.82,0,0,1-.59-.22l-.34-.25c0,.38,0,.89.05,1.55s.14,1.88.24,3.39c0,.22.06.36.13.4l.26.16c.11.07.17.14.16.2s-.05,0-.11.06h-3.21c-.13,0-.2-.05-.2-.12s.07-.11.21-.21l.32-.23a.31.31,0,0,0,.17-.26V36.63c0-1.8,0-3.05,0-3.76,0-.21-.12-.31-.36-.31H193c-.16,0-.24,0-.23-.07a.48.48,0,0,1,.18-.16l2.22-1.51a1,1,0,0,1,.49-.23l.3.15a.26.26,0,0,1,.1.23l0,.63a13.45,13.45,0,0,1,1.29-.6.53.53,0,0,1,.49,0l.72.46a5.29,5.29,0,0,1,.89.71,1.13,1.13,0,0,1,.26.51c.05.31.11.77.16,1.35,0,.33.06.79.1,1.37S199.93,36.6,199.93,36.77Zm-2.08-.38c0-1.09,0-1.88-.07-2.36,0-.27-.05-.67-.09-1.2a.42.42,0,0,0-.32-.42,1,1,0,0,0-.48.05c-.24.08-.49.18-.76.29v1.74c0,1.5,0,2.47.05,2.91s0,1,.07,1.33a.53.53,0,0,0,.12.28l.3.32a.36.36,0,0,0,.41.09,1.83,1.83,0,0,0,.53-.37.7.7,0,0,0,.17-.33,6.57,6.57,0,0,0,0-.91C197.84,36.71,197.85,36.23,197.85,36.39Z"/><path d="M207.72,37.67q0,.16-.09.21l-1.16.52c-.39.19-.82.42-1.28.69a.51.51,0,0,1-.53,0c-.44-.23-.87-.43-1.27-.59a9.43,9.43,0,0,0-1.52-.46,2.13,2.13,0,0,0-.46,0,.82.82,0,0,0-.21.07.68.68,0,0,1-.29.08c-.08-.06,0-.13.09-.22l.29-.16q.06-.26,0-3.63l0-3.08c0-.45-.09-.69-.26-.72a.7.7,0,0,0-.24,0c-.1,0-.15,0-.15,0s0-.13.15-.19l1.64-1a.65.65,0,0,1,.47-.12c.13,0,.21.17.24.38s.11,1.4.16,3.11a21.83,21.83,0,0,1-.1,4.39,1.55,1.55,0,0,1,.8-.19,1.92,1.92,0,0,1,.83.21c0-.09,0-.66-.05-1.7a21.12,21.12,0,0,1,.16-3.08c.1-.68.22-1.51.35-2.47,0-.09-.05-.21-.19-.38l-.24-.25-.19-.16c-.1-.08-.13-.15-.1-.22l0-.08c0-.12.18-.12.38,0,.49.28,1.14.68,2,1.19l.32.23c0,.06,0,.16,0,.33-.1.39-.23,1.23-.39,2.51a17.1,17.1,0,0,0,0,4.52c0,.25.13.35.29.3l.37-.1C207.65,37.53,207.72,37.56,207.72,37.67Z"/><path d="M216.27,26.7s0,.09,0,.18a.27.27,0,0,1-.11.17,16.11,16.11,0,0,1-2,1.51l-.17,0a2.3,2.3,0,0,1-1.11-.38l-1-.6q0,.09,0,1.41c0,.63,0,1.25,0,1.87a4.88,4.88,0,0,1,.81.19,6,6,0,0,1,1.68.8c.07.06.1.1.1.13a.4.4,0,0,1-.1.12c-.21.14-.45.32-.73.55s-.23.38-.13.45a.61.61,0,0,0,.25.08.56.56,0,0,1,.71-.5,1.16,1.16,0,0,0-.34,1,4,4,0,0,1-1-.18,1.54,1.54,0,0,1-.84-.46.23.23,0,0,1,0-.31,2.64,2.64,0,0,1,1.48-.64,4.37,4.37,0,0,0-1.91-.45v.76c0,.67,0,1.76-.08,3.28-.06,1.28-.14,2.38-.25,3.29,0,.1.13.24.22.44a.85.85,0,0,0,.23.35.43.43,0,0,0,.38.07l.27-.06c.11,0,.18,0,.21.08l0,.11c0,.07,0,.15-.19.22l-1.43.56a2.41,2.41,0,0,1-.61.22.65.65,0,0,1-.43-.12l-.26-.35c-.07-.12-.18-.28-.32-.49l-.67.27c-.16.06-.26,0-.29,0l0-.09c0-.08,0-.15.13-.23l.24-.16a.79.79,0,0,0,.27-.29,1.79,1.79,0,0,0,.08-.38c0-.19,0-.47.07-.86.08-.93.15-1.91.22-2.93,0-.54,0-1.29,0-2.24,0-.33,0-.7,0-1.12a4.77,4.77,0,0,0-1,.43.23.23,0,0,1-.32-.07c-.2-.26-.49-.62-.87-1.07a6.23,6.23,0,0,1,2.18-.47c0-1,0-2.4,0-4.15l1.15-.56,1.05-.47a1.43,1.43,0,0,1,.31-.12.65.65,0,0,1,.3.11l1.15.7a3.23,3.23,0,0,0,1.77.56,3.79,3.79,0,0,1,.38-.21A.27.27,0,0,1,216.27,26.7Z"/><path d="M223.74,26.7s0,.09,0,.18a.28.28,0,0,1-.12.17,16.73,16.73,0,0,1-2,1.51l-.18,0a2.37,2.37,0,0,1-1.11-.38l-1-.6c0,.06,0,.53,0,1.41l0,1.87a4.88,4.88,0,0,1,.81.19,6,6,0,0,1,1.68.8c.07.06.1.1.1.13a.4.4,0,0,1-.1.12c-.21.14-.45.32-.73.55s-.23.38-.13.45a.66.66,0,0,0,.26.08.55.55,0,0,1,.7-.5,1.13,1.13,0,0,0-.33,1,4.1,4.1,0,0,1-1-.18,1.5,1.5,0,0,1-.83-.46.21.21,0,0,1,0-.31,2.58,2.58,0,0,1,1.48-.64,4.41,4.41,0,0,0-1.91-.45v.76c0,.67,0,1.76-.08,3.28-.07,1.28-.15,2.38-.26,3.29a4.4,4.4,0,0,1,.22.44.85.85,0,0,0,.23.35.44.44,0,0,0,.38.07l.27-.06c.11,0,.18,0,.21.08l0,.11c0,.07,0,.15-.19.22l-1.42.56a2.4,2.4,0,0,1-.62.22.67.67,0,0,1-.43-.12l-.26-.35c-.07-.12-.17-.28-.31-.49l-.68.27c-.16.06-.25,0-.28,0l0-.09c0-.08,0-.15.13-.23l.24-.16a.79.79,0,0,0,.27-.29,1.79,1.79,0,0,0,.08-.38c0-.19,0-.47.07-.86.08-.93.16-1.91.22-2.93,0-.54,0-1.29,0-2.24,0-.33,0-.7,0-1.12a4.83,4.83,0,0,0-1,.43.22.22,0,0,1-.31-.07c-.2-.26-.5-.62-.88-1.07a6.23,6.23,0,0,1,2.18-.47c0-1,0-2.4,0-4.15l1.14-.56,1.05-.47a1.56,1.56,0,0,1,.32-.12.74.74,0,0,1,.3.11c.27.17.65.41,1.14.7a3.23,3.23,0,0,0,1.77.56,3.79,3.79,0,0,1,.38-.21A.27.27,0,0,1,223.74,26.7Z"/></svg>