<svg id="Layer_1" data-name="Layer 1" xmlns="http://www.w3.org/2000/svg" xmlns:xlink="http://www.w3.org/1999/xlink" width="171.37" height="182" viewBox="0 0 171.37 182"><defs><style>.cls-1{fill:none;}.cls-2{fill:#f3c542;}.cls-3{fill:#97785e;}.cls-4{fill:url(#New_Pattern_Swatch_8);}.cls-5{fill:url(#New_Pattern_Swatch_8-3);}.cls-6{fill:url(#New_Pattern_Swatch_8-5);}.cls-7{fill:#2c2924;}</style><pattern id="New_Pattern_Swatch_8" data-name="New Pattern Swatch 8" width="55" height="55" patternTransform="translate(-33.31 19.4)" patternUnits="userSpaceOnUse" viewBox="0 0 55 55"><rect class="cls-1" width="55" height="55"/><rect class="cls-2" width="55" height="55"/><polygon class="cls-1" points="0 10.21 44.78 55 51.47 55 0 3.54 0 10.21"/><polygon class="cls-1" points="31.04 0 55 23.96 55 17.29 37.72 0 31.04 0"/><polygon class="cls-1" points="44.78 0 55 10.21 55 3.54 51.47 0 44.78 0"/><polygon class="cls-1" points="3.54 0 55 51.47 55 44.78 10.21 0 3.54 0"/><polygon class="cls-1" points="17.29 0 55 37.72 55 31.04 23.96 0 17.29 0"/><polygon class="cls-1" points="0 51.47 3.54 55 10.21 55 0 44.78 0 51.47"/><polygon class="cls-1" points="0 37.72 17.29 55 23.96 55 0 31.04 0 37.72"/><polygon class="cls-1" points="0 23.96 31.04 55 37.72 55 0 17.29 0 23.96"/><polygon class="cls-3" points="55 3.54 55 0 51.47 0 55 3.54"/><polygon class="cls-3" points="37.72 0 55 17.29 55 10.21 44.78 0 37.72 0"/><polygon class="cls-3" points="23.96 0 55 31.04 55 23.96 31.04 0 23.96 0"/><polygon class="cls-3" points="10.21 0 55 44.78 55 37.72 17.29 0 10.21 0"/><polygon class="cls-3" points="0 0 0 3.54 51.47 55 55 55 55 51.47 3.54 0 0 0"/><polygon class="cls-3" points="0 17.29 37.72 55 44.78 55 0 10.21 0 17.29"/><polygon class="cls-3" points="0 31.04 23.96 55 31.04 55 0 23.96 0 31.04"/><polygon class="cls-3" points="0 44.78 10.21 55 17.29 55 0 37.72 0 44.78"/><polygon class="cls-3" points="0 55 3.54 55 0 51.47 0 55"/></pattern><pattern id="New_Pattern_Swatch_8-3" data-name="New Pattern Swatch 8" width="55" height="55" patternTransform="translate(32.12 86.6) scale(1.01 0.94)" patternUnits="userSpaceOnUse" viewBox="0 0 55 55"><rect class="cls-1" width="55" height="55"/><rect class="cls-2" width="55" height="55"/><polygon class="cls-1" points="0 10.21 44.78 55 51.47 55 0 3.54 0 10.21"/><polygon class="cls-1" points="31.04 0 55 23.96 55 17.29 37.72 0 31.04 0"/><polygon class="cls-1" points="44.78 0 55 10.21 55 3.54 51.47 0 44.78 0"/><polygon class="cls-1" points="3.54 0 55 51.47 55 44.78 10.21 0 3.54 0"/><polygon class="cls-1" points="17.29 0 55 37.72 55 31.04 23.96 0 17.29 0"/><polygon class="cls-1" points="0 51.47 3.54 55 10.21 55 0 44.78 0 51.47"/><polygon class="cls-1" points="0 37.72 17.29 55 23.96 55 0 31.04 0 37.72"/><polygon class="cls-1" points="0 23.96 31.04 55 37.72 55 0 17.29 0 23.96"/><polygon class="cls-3" points="55 3.54 55 0 51.47 0 55 3.54"/><polygon class="cls-3" points="37.72 0 55 17.29 55 10.21 44.78 0 37.72 0"/><polygon class="cls-3" points="23.96 0 55 31.04 55 23.96 31.04 0 23.96 0"/><polygon class="cls-3" points="10.21 0 55 44.78 55 37.72 17.29 0 10.21 0"/><polygon class="cls-3" points="0 0 0 3.54 51.47 55 55 55 55 51.47 3.54 0 0 0"/><polygon class="cls-3" points="0 17.29 37.72 55 44.78 55 0 10.21 0 17.29"/><polygon class="cls-3" points="0 31.04 23.96 55 31.04 55 0 23.96 0 31.04"/><polygon class="cls-3" points="0 44.78 10.21 55 17.29 55 0 37.72 0 44.78"/><polygon class="cls-3" points="0 55 3.54 55 0 51.47 0 55"/></pattern><pattern id="New_Pattern_Swatch_8-5" data-name="New Pattern Swatch 8" width="55" height="55" patternTransform="translate(-31.98 4.2) scale(1 1.1)" patternUnits="userSpaceOnUse" viewBox="0 0 55 55"><rect class="cls-1" width="55" height="55"/><rect class="cls-2" width="55" height="55"/><polygon class="cls-1" points="0 10.21 44.78 55 51.47 55 0 3.54 0 10.21"/><polygon class="cls-1" points="31.04 0 55 23.96 55 17.29 37.72 0 31.04 0"/><polygon class="cls-1" points="44.78 0 55 10.21 55 3.54 51.47 0 44.78 0"/><polygon class="cls-1" points="3.54 0 55 51.47 55 44.78 10.21 0 3.54 0"/><polygon class="cls-1" points="17.29 0 55 37.72 55 31.04 23.96 0 17.29 0"/><polygon class="cls-1" points="0 51.47 3.54 55 10.21 55 0 44.78 0 51.47"/><polygon class="cls-1" points="0 37.72 17.29 55 23.96 55 0 31.04 0 37.72"/><polygon class="cls-1" points="0 23.96 31.04 55 37.72 55 0 17.29 0 23.96"/><polygon class="cls-3" points="55 3.54 55 0 51.47 0 55 3.54"/><polygon class="cls-3" points="37.72 0 55 17.29 55 10.21 44.78 0 37.72 0"/><polygon class="cls-3" points="23.96 0 55 31.04 55 23.96 31.04 0 23.96 0"/><polygon class="cls-3" points="10.21 0 55 44.78 55 37.72 17.29 0 10.21 0"/><polygon class="cls-3" points="0 0 0 3.54 51.47 55 55 55 55 51.47 3.54 0 0 0"/><polygon class="cls-3" points="0 17.29 37.72 55 44.78 55 0 10.21 0 17.29"/><polygon class="cls-3" points="0 31.04 23.96 55 31.04 55 0 23.96 0 31.04"/><polygon class="cls-3" points="0 44.78 10.21 55 17.29 55 0 37.72 0 44.78"/><polygon class="cls-3" points="0 55 3.54 55 0 51.47 0 55"/></pattern></defs><path class="cls-4" d="M97.44,168.75a7.69,7.69,0,0,1-1,1.56,4.1,4.1,0,0,1-.68.59,3.53,3.53,0,0,1-.71.39c-1.26.49-2.68.05-4.09-1.38-.38-.38-.75-.77-1.12-1.16h5.61a.81.81,0,0,0,.1.18l.86-.18Z"/><path class="cls-3" d="M97.57,168.49h0l-.13.25H96.37Z"/><path class="cls-3" d="M121.6,29.81l-.27-1C122.17,28.94,122.23,29.28,121.6,29.81Z"/><path class="cls-3" d="M117.24,35.85a.41.41,0,0,1,0,.45l-.42-.21Z"/><path class="cls-2" d="M153.15,24c-12.78-.43-25.5-1.64-37.79-5.48A73.27,73.27,0,0,1,88,3.45c-1.91-1.71-3.4-2-5.27,0-3.64,4-8.42,6.58-13.06,9.23a65.21,65.21,0,0,1-21.49,7.55c-5.17.88-10.29,2-15.5,2.73a97.21,97.21,0,0,1-14.54.76c-2.8,0-3.24,1.09-2.59,3.46.33,1.24,1.12,2.29,1.2,3.65.29,5,2,9.68,2.95,14.54,1.79,9.23,4,18.4,3.9,27.91-.07,5.37,0,10.75,0,16.13h0c0,4.88.1,9.76,0,14.63-.21,8.48,1.72,16.55,4.42,24.48A55.63,55.63,0,0,0,36.76,145a112,112,0,0,0,20.46,20.36l.31.23c6.53,4.89,13.92,8.51,21.25,12.13l2.45,1.22c1.81.9,3.67,1.49,5.68.66,2.76-1.12,5.61-2.05,8.23-3.43L97.21,175H88.48a63.26,63.26,0,0,0,7.91-3.51,74.23,74.23,0,0,0,9.86-6.19,46.37,46.37,0,0,0-4,2.77,1.61,1.61,0,0,1-1.58.24c-.49-.13-.94-.33-1.36-.13a.76.76,0,0,0-.19.12,1.57,1.57,0,0,0-.19.18h0l-.12.25h0a7.69,7.69,0,0,1-1,1.56,4.1,4.1,0,0,1-.68.59,2.93,2.93,0,0,1-.71.39c-1.26.49-2.68.05-4.09-1.38-.38-.38-.75-.77-1.12-1.16-1.66-1.76-3.33-3.66-5.39-5.9a26.67,26.67,0,0,0-.6,5.9c0,1.4.08,2.7.09,4a7.85,7.85,0,0,1,0,.9.76.76,0,0,1,0,.16,2.38,2.38,0,0,1-.07.31.85.85,0,0,1-.09.24,1.11,1.11,0,0,1-.35.46l-.22.11h0l-.24.05-.2,0-.34,0a2.08,2.08,0,0,1-.39-.08,7.39,7.39,0,0,1-.91-.3,103.09,103.09,0,0,1-25.5-14.17l-.94-.74h0A93.11,93.11,0,0,1,39,142.53c-.47-.62-.93-1.24-1.38-1.87a59.17,59.17,0,0,1-10.36-27.33,27.57,27.57,0,0,1-.33-3.91v0c.08-2.5,1.48-2.51,6.25-2.51,16.31,0,32.62,0,48.94.07a4.29,4.29,0,0,0,2-.35c.78-.41,1-1.23,1-2.68v-.53c-.08-17.65,0-35.3-.1-52.94a3.72,3.72,0,0,1,.61-2.55c.5-.58,1.37-.76,2.77-.75,18.7.11,37.4.06,56.1.07,3.46,0,3.61.17,2.9,3.55-2.42,11.42-3.89,22.93-3.05,34.62.3,4.27.42,8.54.3,12.81,0,1,.34,2-.63,2.77,0,.81.08,1.61.09,2.42h1.41v14.49a50.84,50.84,0,0,0,2.06-15.3c-.13-10.36.12-20.71-.07-31.07-.09-4.82.87-9.51,1.7-14.14.55-3.09.57-6.26,1.47-9.43,1.91-6.73,3.42-13.62,5.15-20.43C156.43,25.36,156,24.11,153.15,24Z"/><path class="cls-3" d="M147.46,50.77c-2.42,11.42-3.89,22.93-3.05,34.62.3,4.27.42,8.54.3,12.81,0,1,.34,2-.63,2.77-5.94-.62-10.42-3.82-14.27-8.12-2.44-2.72-2.32-5,.49-7.37,1.68-1.39,3.58-2.5,5.29-3.85a10.05,10.05,0,0,0,3.93-10.15c-.14-.9-.39-1.67-1.39-1.55-6.19.75-11.93-1.85-17.92-2.28-3.69-.26-6.68-.82-8.83-4a2.2,2.2,0,0,0-2.91-.74,2.11,2.11,0,0,0-1.31,2.37c.16,2.38-1.19,3.48-3.12,4.81-7.63,5.22-13.75,11.6-13.6,21.79q.09,5.77-.29,11.53c-.07,1.22-.17,2.44-.28,3.66a5.32,5.32,0,0,0-3.57,1.07c1.38.9,1.62,2.8,3.57,2.87q0,3.67,0,7.35c-1.88-.47-2.84-2.19-4.69-3.56,0,2.12,0,3.88,0,5.63,0,3.11,3.83,7.4,7.09,8,1.73,2.25.51,5.89-2.41,7.15-.56-.92-.63-2.06-1.47-2.87s-1.66-1.62-2.83-1.14c-1.39.57-1,1.65-.57,2.76a8.62,8.62,0,0,1,.2,2.35,3.79,3.79,0,0,1-1,.14,3.72,3.72,0,0,1-2.33-.82,7,7,0,0,0-4.33-1.69c-1.19,0-3.68-1.77-2.34,1.74.21.55-.55.65-1,.72-.84.11-2.19-.14-2.07,1.06.13,1.37,1.58.4,2.37.74.4.17,1-.18,1.29.42-.11,1-1.93.84-1.62,1.85,1.78,1.52,5.58-1.09,5.4,3.35a2.21,2.21,0,0,0,1.29.35,7.06,7.06,0,0,1,3.38.88l.29.12a28.71,28.71,0,0,0,10,2.43c1.84,1.93,3.74,3.82,5.51,5.82.19.22.4.43.61.63.84.82,1.79,1.55,2.56,2.42q.28.33.54.69a5.24,5.24,0,0,1,.45.76,4.77,4.77,0,0,1,.34.87h0c-1.82.76-3.73.28-5.59.39-4.71-3.8-8.39-8.75-13.43-12.65-.21,1.54-.64,2.67-.44,3.68.38,2-.65,4.24,1,5.95,2.23,2.26,4.5,4.48,6.75,6.71.55.55,1.08,1,1.36-.21,3.24,1.35-1.12,2-.13,3.27,1,.57,1.7-1.19,2.79-.66.88,1-.56,2.07-.08,3.1H91.13c-1.66-1.76-3.33-3.66-5.39-5.9a26.67,26.67,0,0,0-.6,5.9c0,1.4.08,2.7.09,4,0,2.42-.88,2.64-2.91,1.85-18.13-7-33.33-18.18-44.67-33.94a59.17,59.17,0,0,1-10.36-27.33,27.57,27.57,0,0,1-.33-3.91v0c.08-2.5,1.48-2.51,6.25-2.51,16.31,0,32.62,0,48.94.07a4.29,4.29,0,0,0,2-.35c.78-.41,1-1.23,1-2.68v-.53c-.08-17.65,0-35.3-.1-52.94a3.72,3.72,0,0,1,.61-2.55c.5-.58,1.37-.76,2.77-.75,18.7.11,37.4.06,56.1.07C148,47.22,148.17,47.39,147.46,50.77Z"/><path class="cls-2" d="M98.87,159.57c-1.18,1.68-4.09,1-4.71,3.48-.28,1.22-.81.75-1.36.21-2.25-2.24-4.52-4.46-6.75-6.72-1.69-1.71-.66-4-1-5.95-.19-1,.24-2.13.45-3.68C90.49,150.81,94.16,155.76,98.87,159.57Z"/><path class="cls-2" d="M94.47,148a28.09,28.09,0,0,1,6.11-2.09c3.55,2.17,5.25,6.37,9,8.28-.32,3.65-1.57,4.87-5.14,5-.7-2.45-3-3.62-4.49-5.37C98.21,151.8,96.31,149.92,94.47,148Z"/><path class="cls-2" d="M89.89,118.35c.56,3.42,2.35,6.55,2.4,10.1-3.26-.63-7.06-4.93-7.09-8,0-1.76,0-3.51,0-5.63C87.05,116.15,88,117.87,89.89,118.35Z"/><path class="cls-2" d="M89.88,135.59c-1.27,1.58-3,1.41-4.67,1.11a9.11,9.11,0,0,0-.2-2.36c-.4-1.11-.82-2.19.56-2.76,1.18-.48,2,.36,2.84,1.14S89.31,134.68,89.88,135.59Z"/><path class="cls-3" d="M89.86,107.05V111c-1.94-.07-2.19-2-3.56-2.87A5.3,5.3,0,0,1,89.86,107.05Z"/><path class="cls-3" d="M109.61,154.17c-3.78-1.91-5.48-6.11-9-8.28,1.82-.25,3-3,5.45-1.08C109.27,147.27,111.52,149.85,109.61,154.17Z"/><path class="cls-5" d="M85.69,47.15h-60c-.91,0-1.67.69,1.64,14.65.58,2.46,1.11,21.69,0,23.44L27,109.43l58.74-.86Z"/><path class="cls-2" d="M145.58,103.39v14.49a49.69,49.69,0,0,1-2.21,6,18.35,18.35,0,0,0-1,3.68c-1.7,7.83-6.24,14.12-11.05,20.3a93.56,93.56,0,0,1-23.46,20.94c-3.44,2.23-7,4.3-10.65,6.26H88.48a63.26,63.26,0,0,0,7.91-3.51,74.23,74.23,0,0,0,9.86-6.19c2.12-1.34,4.29-2.61,6.31-4.12,12.83-9.62,23.21-21.15,28.2-36.75a64.74,64.74,0,0,0,3.41-21Z"/><path class="cls-6" d="M144.17,103.39a64.74,64.74,0,0,1-3.41,21c-5,15.6-15.37,27.13-28.2,36.75-2,1.51-4.19,2.78-6.31,4.12a74.23,74.23,0,0,1-9.86,6.19A63.26,63.26,0,0,1,88.48,175H84.16V103.39Z"/><path class="cls-2" d="M146.39,103.65a5.13,5.13,0,0,0-4.57-3.07l-1.33.18a4.94,4.94,0,0,0-2.21,1.28l-.78,1a5,5,0,0,0-.68,2.53v.85a3.72,3.72,0,0,0,.43,1.92,4.5,4.5,0,0,0,2.64,2.65,3.88,3.88,0,0,0,1.93.43l1.33-.18a5.05,5.05,0,0,0,2.21-1.29l.78-1a5,5,0,0,0,.68-2.52v-.85A3.77,3.77,0,0,0,146.39,103.65Z"/><rect class="cls-3" x="82.83" y="47.15" width="4.3" height="2.34"/><path d="M60.05,33.34c-.65.28-1.09.47-1.32.59a2.8,2.8,0,0,0-1,.22l-.46.17v6.57c0,.47,0,.9.05,1.3a1.91,1.91,0,0,0,.14.57,1.58,1.58,0,0,0,.33.45,3.35,3.35,0,0,1,.3.19.47.47,0,0,1,.05.33l-.73-.16-1.19-.17c-.36,0-.73,0-1.12,0H53.88l-.24-.28a2.62,2.62,0,0,0,.44-.25,1.77,1.77,0,0,0,.41-.41,3.91,3.91,0,0,0,.34-1.53c0-.19,0-.59,0-1.2,0-.27,0-.65,0-1.15s0-1,0-1.18c0-.84,0-1.35,0-1.53a11.82,11.82,0,0,1-1.15.53,3.39,3.39,0,0,1-1.27.32v2c0,1.27,0,2.13,0,2.59a1,1,0,0,0,.17.65,1.14,1.14,0,0,0,.43.25.29.29,0,0,1,.15.14.16.16,0,0,1,0,.16s-.06.07-.13.06-.34-.09-.61-.14a9,9,0,0,0-.94-.14c-.24,0-.92-.05-2-.08h-.88s-.07,0-.08-.14,0-.12.13-.16l.21-.08a2,2,0,0,0,.56-.38.77.77,0,0,0,.22-.47c0-.39.07-.89.08-1.5,0-1,0-1.55,0-1.57,0-.42,0-.72,0-.92a6.06,6.06,0,0,1-1.35-.63,3.65,3.65,0,0,1-1-.91,2.24,2.24,0,0,1-.48-1A2.4,2.4,0,0,1,48,34a7.09,7.09,0,0,1,.71-.1.28.28,0,0,1,.18.14,2.42,2.42,0,0,1-.44.27l-.69.4a2,2,0,0,0,.6.54,7.3,7.3,0,0,0,1,.52l.49.21-.05-2.79c0-.22,0-.77,0-1.66,0-.69,0-1.25,0-1.68a4.48,4.48,0,0,0,0-.72,1,1,0,0,0-.08-.34,1,1,0,0,0-.18-.23,1.41,1.41,0,0,0-.38-.2.17.17,0,0,1-.11-.18c0-.07.09-.11.2-.11H50q.72,0,1,0l.9,0c.21,0,.52,0,.93-.05a.17.17,0,0,1,.18.1.16.16,0,0,1-.05.21,2.26,2.26,0,0,0-.33.22.8.8,0,0,0-.15.42,10.36,10.36,0,0,0,0,1l.08,5.6a1.85,1.85,0,0,0,.48-.12,5,5,0,0,0,1-.5c.13-.07.44-.3.94-.67,0-.55,0-1.13,0-1.73l0-1.63c0-.16,0-.58,0-1.27s0-1.17-.07-1.49a.75.75,0,0,0-.1-.38,1,1,0,0,0-.28-.24c-.12-.07-.17-.14-.13-.22a.1.1,0,0,1,.14-.07,9.09,9.09,0,0,0,2,.12l1-.06.42-.06a.13.13,0,0,1,.15.08.13.13,0,0,1,0,.12l-.22.32a2.81,2.81,0,0,0-.37,1,10.49,10.49,0,0,0-.07,1.29V32c0,.75,0,1.25,0,1.5a5.4,5.4,0,0,1,1.3-.2h.68A7.51,7.51,0,0,1,60.05,33.34Z"/><path d="M66.29,37.82a.2.2,0,0,1-.09.2l-1.15.52c-.4.2-.83.43-1.29.7a.53.53,0,0,1-.53,0A10.91,10.91,0,0,0,62,38.66a9.43,9.43,0,0,0-1.52-.46,3.51,3.51,0,0,0-.46,0l-.21.07c-.17.07-.26.1-.29.08s0-.12.09-.22a1.27,1.27,0,0,0,.29-.16c0-.17,0-1.37,0-3.62l0-3.09c0-.44-.08-.68-.25-.71a.76.76,0,0,0-.25,0c-.1,0-.15,0-.15-.05s.05-.12.15-.18l1.65-1a.6.6,0,0,1,.46-.11c.13,0,.21.16.24.38s.11,1.4.16,3.11a20.92,20.92,0,0,1-.1,4.38,1.57,1.57,0,0,1,.8-.18,1.76,1.76,0,0,1,.83.21c0-.1,0-.66-.05-1.7a19.75,19.75,0,0,1,.17-3.08c.1-.69.21-1.51.34-2.48,0-.08-.05-.21-.19-.38l-.23-.24-.2-.16c-.09-.08-.13-.15-.09-.22l0-.08c.05-.12.18-.12.38,0,.49.27,1.14.67,2,1.19l.32.23c0,.05,0,.16,0,.32-.1.4-.23,1.23-.39,2.51a18.07,18.07,0,0,0,0,4.53c0,.24.13.34.29.3l.37-.11C66.22,37.67,66.29,37.71,66.29,37.82Z"/><path d="M74.84,26.85s0,.09,0,.17a.32.32,0,0,1-.12.18,16.78,16.78,0,0,1-2,1.5.57.57,0,0,1-.18,0,2.34,2.34,0,0,1-1.11-.39l-1-.6c0,.06,0,.53,0,1.41l0,1.88a5,5,0,0,1,.81.18,6.25,6.25,0,0,1,1.68.81c.07.06.1.1.1.13a.41.41,0,0,1-.1.11c-.21.14-.45.33-.73.56s-.23.38-.13.45a.89.89,0,0,0,.26.08.55.55,0,0,1,.7-.51,1.14,1.14,0,0,0-.33,1,3.7,3.7,0,0,1-1-.17,1.61,1.61,0,0,1-.84-.46.24.24,0,0,1,0-.32,2.71,2.71,0,0,1,1.48-.63,4.33,4.33,0,0,0-1.9-.45v.76c0,.66,0,1.75-.08,3.27-.07,1.29-.15,2.39-.26,3.3,0,.09.13.24.22.44a.93.93,0,0,0,.23.35.43.43,0,0,0,.38.06l.27-.05c.11,0,.18,0,.21.08l0,.1c0,.08,0,.15-.19.22L70,40.94a3,3,0,0,1-.61.22.61.61,0,0,1-.43-.13l-.26-.34-.31-.49-.68.26c-.16.07-.25.06-.28,0l0-.09c0-.08,0-.16.13-.23l.24-.17a.72.72,0,0,0,.27-.29,1.49,1.49,0,0,0,.08-.38c0-.18,0-.47.07-.85.08-.94.15-1.91.22-2.93,0-.55,0-1.29,0-2.24,0-.33,0-.71,0-1.12a4.68,4.68,0,0,0-1,.42.21.21,0,0,1-.31-.07c-.2-.26-.5-.61-.88-1.06A6.23,6.23,0,0,1,68.42,31c0-1,0-2.41,0-4.16l1.15-.55,1-.48.31-.11a.68.68,0,0,1,.31.1c.27.18.65.41,1.14.71a3.2,3.2,0,0,0,1.77.55l.38-.2A.26.26,0,0,1,74.84,26.85Z"/><path d="M82.31,26.85s0,.09,0,.17a.28.28,0,0,1-.12.18,16.78,16.78,0,0,1-2,1.5.52.52,0,0,1-.18,0A2.41,2.41,0,0,1,79,28.34l-1-.6c0,.06,0,.53,0,1.41,0,.63,0,1.26,0,1.88a5,5,0,0,1,.81.18,6.25,6.25,0,0,1,1.68.81c.07.06.1.1.1.13s0,.06-.1.11-.45.33-.73.56-.23.38-.13.45a.89.89,0,0,0,.26.08.55.55,0,0,1,.7-.51,1.14,1.14,0,0,0-.33,1,3.76,3.76,0,0,1-1-.17,1.57,1.57,0,0,1-.83-.46.22.22,0,0,1,0-.32A2.68,2.68,0,0,1,80,32.29a4.41,4.41,0,0,0-1.91-.45v.76c0,.66,0,1.75-.08,3.27-.06,1.29-.15,2.39-.26,3.3a3.51,3.51,0,0,1,.22.44.93.93,0,0,0,.23.35.45.45,0,0,0,.39.06l.26-.05c.11,0,.18,0,.21.08l0,.1c0,.08,0,.15-.2.22l-1.42.57a3,3,0,0,1-.62.22.57.57,0,0,1-.42-.13,3.51,3.51,0,0,1-.27-.34c-.07-.12-.17-.28-.31-.49l-.67.26c-.17.07-.26.06-.29,0l0-.09c0-.08,0-.16.13-.23l.24-.17a.72.72,0,0,0,.27-.29,1.49,1.49,0,0,0,.08-.38c0-.18,0-.47.07-.85.08-.94.16-1.91.22-2.93,0-.55,0-1.29.05-2.24,0-.33,0-.71,0-1.12a4.74,4.74,0,0,0-1,.42.21.21,0,0,1-.31-.07c-.2-.26-.5-.61-.88-1.06A6.29,6.29,0,0,1,75.9,31c0-1,0-2.41,0-4.16l1.14-.55,1-.48.32-.11a.69.69,0,0,1,.3.1c.27.18.65.41,1.14.71a3.24,3.24,0,0,0,1.77.55l.38-.2A.26.26,0,0,1,82.31,26.85Z"/><path d="M87.43,40.75c0,.07,0,.13-.18.2l-1.42.6a2.83,2.83,0,0,1-.61.22.63.63,0,0,1-.43-.14s-.1-.13-.27-.34-.3-.47-.76-1.15l-.67.27a.44.44,0,0,1-.21,0s-.06,0-.08-.07a.25.25,0,0,1,.13-.31l.28-.17a.8.8,0,0,0,.19-.29,1.79,1.79,0,0,0,.08-.38c0-.19,0-.47.07-.86.06-.66.11-1.35.13-2,.07-1.54.1-2.37.1-2.5,0-1,0-1.83,0-2.48V27.24c0-.25-.12-.36-.31-.32L83,27c-.12,0-.18,0-.19-.13a.3.3,0,0,1,.11-.24l.8-.39c.2-.11.61-.31,1.23-.59.31-.17.7-.36,1.15-.56.19-.06.28,0,.28.19a.11.11,0,0,1-.05.09l-.31.3a.75.75,0,0,0-.14.45c0,.66,0,1.49,0,2.5,0,.12,0,.8,0,2.06,0,.79,0,1.75,0,2.9,0,.34,0,1.09-.07,2.24s-.1,2-.16,2.64a1.5,1.5,0,0,1,0,.21.45.45,0,0,1-.15.11l-.48.25v0a.91.91,0,0,1,.55,0c.07.14.16.32.28.53.2.39.37.71.52,1s.17.15.34.13l.39-.05A.26.26,0,0,1,87.43,40.75Z"/><path d="M92.9,34.23a.44.44,0,0,1-.27.17L91,35c-.79.33-1.13.68-1,1.06.1-.14.24-.16.42,0s.22.29.09.52-.39.29-.71.08a1.28,1.28,0,0,1-.6-1.12,2,2,0,0,1,1.36-2.09q-.3-.67-.81-1.68c0-.09-.11-.1-.19,0a.73.73,0,0,0-.14.16,2.07,2.07,0,0,0-.17.56c0,.11,0,.32-.08.65,0,.54,0,1.34,0,2.41,0,.54,0,1.05,0,1.52,0,.19,0,.53.05,1a.76.76,0,0,0,.11.34,1.19,1.19,0,0,0,.27.33,1.88,1.88,0,0,0,.77.33c.21.07.34.06.39,0a5.58,5.58,0,0,0,.48-1.18,6.59,6.59,0,0,0,.22-.83c0-.15.08-.2.13-.15s.11.14.2.25l.26.36c.08.12.16.24.24.34s.1.18.07.23l-.46.61-.45.62s-.16.21-.39.49a.39.39,0,0,1-.3.17h-.46c-.3,0-.66,0-1.07,0-.17,0-.55-.33-1.14-.91l-.62-.63a2.21,2.21,0,0,0-.25-.32A.5.5,0,0,1,87,37.6s0-.12,0-.24,0-.2,0-.26v-3c0-.43.1-.94.19-1.53a.73.73,0,0,1,.17-.31l1-.79.91-.7a.58.58,0,0,1,.32-.16.9.9,0,0,1,.32,0,8.18,8.18,0,0,1,.88.38c.26.12.61.3,1,.54a.55.55,0,0,1,.18.22c.26.64.55,1.35.88,2.14C92.93,34.08,92.94,34.17,92.9,34.23Z"/><path d="M100.25,36.91c0,.43,0,1-.08,1.66a2.27,2.27,0,0,1-.2.55,1.4,1.4,0,0,1-.54.5c-.09.05-.6.26-1.52.62a3.32,3.32,0,0,1-.59.18.85.85,0,0,1-.59-.22l-.34-.26c0,.38,0,.9,0,1.55s.13,1.89.24,3.39c0,.23.06.36.13.41l.25.16c.12.07.17.13.16.2s0,.05-.1.05l-.49,0H94.29l-.39,0c-.13,0-.19,0-.19-.11s.07-.12.21-.21l.32-.23a.33.33,0,0,0,.16-.27v-8.1c0-1.8,0-3.05,0-3.76,0-.21-.12-.32-.37-.32h-.74c-.16,0-.24,0-.23-.07s.06-.08.17-.16L95.44,31a1,1,0,0,1,.5-.23l.3.15a.26.26,0,0,1,.09.23l0,.62c.36-.19.78-.39,1.28-.6a.53.53,0,0,1,.5,0l.72.46a5.2,5.2,0,0,1,.89.71,1,1,0,0,1,.25.5c.06.32.11.77.17,1.36,0,.33.06.78.1,1.36S100.25,36.74,100.25,36.91Zm-2.08-.38c0-1.09,0-1.87-.07-2.36,0-.27,0-.66-.08-1.19a.43.43,0,0,0-.32-.43,1.14,1.14,0,0,0-.48.06,7.29,7.29,0,0,0-.76.29v1.74c0,1.49,0,2.46.05,2.91s0,1,.07,1.33a.43.43,0,0,0,.12.28,2.73,2.73,0,0,0,.3.32.34.34,0,0,0,.4.08,1.8,1.8,0,0,0,.54-.37.58.58,0,0,0,.16-.32,6.35,6.35,0,0,0,.05-.92C98.17,36.85,98.17,36.38,98.17,36.53Z"/><path d="M108.05,37.82a.2.2,0,0,1-.09.2l-1.16.52c-.39.2-.82.43-1.28.7a.53.53,0,0,1-.53,0,11,11,0,0,0-1.28-.59,9.42,9.42,0,0,0-1.51-.46,3.62,3.62,0,0,0-.47,0l-.2.07c-.17.07-.27.1-.29.08s-.06-.12.09-.22a1.92,1.92,0,0,0,.29-.16c0-.17,0-1.37,0-3.62l0-3.09c0-.44-.09-.68-.26-.71a.69.69,0,0,0-.24,0c-.1,0-.15,0-.15-.05s0-.12.15-.18l1.64-1a.61.61,0,0,1,.46-.11c.13,0,.22.16.25.38s.1,1.4.16,3.11a20.6,20.6,0,0,1-.11,4.38,1.59,1.59,0,0,1,.8-.18,1.8,1.8,0,0,1,.84.21c0-.1,0-.66,0-1.7a21,21,0,0,1,.16-3.08c.1-.69.22-1.51.35-2.48,0-.08,0-.21-.2-.38l-.23-.24L105,29c-.09-.08-.12-.15-.09-.22l0-.08c0-.12.18-.12.38,0,.48.27,1.14.67,2,1.19l.33.23c0,.05,0,.16,0,.32-.1.4-.23,1.23-.4,2.51a18.07,18.07,0,0,0,0,4.53c0,.24.13.34.29.3l.37-.11C108,37.67,108,37.71,108.05,37.82Z"/><path d="M116.6,26.85s0,.09,0,.17a.27.27,0,0,1-.11.18,17.91,17.91,0,0,1-2,1.5.47.47,0,0,1-.17,0,2.34,2.34,0,0,1-1.11-.39l-1-.6q0,.09,0,1.41c0,.63,0,1.26,0,1.88a5,5,0,0,1,.81.18,6.33,6.33,0,0,1,1.67.81c.07.06.11.1.11.13a.53.53,0,0,1-.11.11c-.21.14-.45.33-.73.56s-.22.38-.12.45a.81.81,0,0,0,.25.08c.09-.41.32-.58.71-.51a1.17,1.17,0,0,0-.34,1,3.76,3.76,0,0,1-1-.17,1.61,1.61,0,0,1-.83-.46.22.22,0,0,1,0-.32,2.71,2.71,0,0,1,1.48-.63,4.37,4.37,0,0,0-1.91-.45v.76c0,.66,0,1.75-.08,3.27-.06,1.29-.15,2.39-.25,3.3l.22.44a.82.82,0,0,0,.23.35.43.43,0,0,0,.38.06l.26-.05c.11,0,.18,0,.21.08l0,.1c0,.08,0,.15-.2.22l-1.42.57a3,3,0,0,1-.61.22.58.58,0,0,1-.43-.13s-.1-.13-.27-.34-.17-.28-.31-.49l-.67.26c-.16.07-.26.06-.29,0l0-.09c0-.08,0-.16.12-.23l.25-.17a.76.76,0,0,0,.26-.29,1.13,1.13,0,0,0,.08-.38c0-.18,0-.47.07-.85.09-.94.16-1.91.22-2.93,0-.55,0-1.29.05-2.24,0-.33,0-.71,0-1.12a4.74,4.74,0,0,0-1,.42.21.21,0,0,1-.31-.07c-.2-.26-.49-.61-.88-1.06a6.35,6.35,0,0,1,2.19-.47c0-1,0-2.41,0-4.16l1.15-.55q.36-.18,1-.48l.31-.11a.62.62,0,0,1,.3.1c.27.18.65.41,1.15.71a3.2,3.2,0,0,0,1.77.55l.38-.2A.26.26,0,0,1,116.6,26.85Z"/><path d="M124.07,26.85s.05.09,0,.17a.27.27,0,0,1-.11.18,17,17,0,0,1-2,1.5.47.47,0,0,1-.17,0,2.34,2.34,0,0,1-1.11-.39l-1-.6q0,.09,0,1.41c0,.63,0,1.26,0,1.88a5,5,0,0,1,.81.18,6.4,6.4,0,0,1,1.68.81c.06.06.1.1.1.13a.41.41,0,0,1-.1.11,8,8,0,0,0-.73.56c-.19.23-.23.38-.13.45a.81.81,0,0,0,.25.08c.09-.41.32-.58.71-.51a1.17,1.17,0,0,0-.34,1,3.76,3.76,0,0,1-1-.17,1.61,1.61,0,0,1-.83-.46.24.24,0,0,1,0-.32,2.71,2.71,0,0,1,1.48-.63,4.37,4.37,0,0,0-1.91-.45v.76c0,.66,0,1.75-.08,3.27-.06,1.29-.14,2.39-.25,3.3,0,.09.13.24.22.44a.93.93,0,0,0,.23.35.43.43,0,0,0,.38.06l.27-.05c.11,0,.17,0,.21.08l0,.1c0,.08,0,.15-.2.22l-1.42.57a3,3,0,0,1-.61.22.6.6,0,0,1-.43-.13l-.26-.34c-.07-.12-.18-.28-.32-.49l-.67.26c-.16.07-.26.06-.29,0l0-.09c0-.08,0-.16.13-.23l.24-.17a.62.62,0,0,0,.26-.29,1.31,1.31,0,0,0,.09-.38c0-.18,0-.47.06-.85.09-.94.16-1.91.22-2.93,0-.55,0-1.29.05-2.24,0-.33,0-.71,0-1.12a4.68,4.68,0,0,0-1,.42.22.22,0,0,1-.32-.07c-.2-.26-.49-.61-.88-1.06a6.35,6.35,0,0,1,2.19-.47c0-1,0-2.41,0-4.16l1.15-.55q.36-.18,1-.48l.31-.11a.62.62,0,0,1,.3.1c.27.18.65.41,1.15.71a3.2,3.2,0,0,0,1.77.55l.38-.2A.26.26,0,0,1,124.07,26.85Z"/><rect class="cls-3" x="81.62" y="108.59" width="6.46" height="66.24"/><path class="cls-3" d="M88.75,174.91l-2.1,1.32a2.18,2.18,0,0,1-2.72-.2l-5.47-3c-.24-.24,3.36.51,3.59.28L84.37,171a.59.59,0,0,1,.85,0Z"/><rect class="cls-3" x="85.69" y="91" width="31.63" height="17.59"/><path class="cls-7" d="M144.17,103.39a64.74,64.74,0,0,1-3.41,21c-5,15.6-15.37,27.13-28.2,36.75-2,1.51-4.19,2.78-6.31,4.12a46.37,46.37,0,0,0-4,2.77,1.61,1.61,0,0,1-1.58.24c-.49-.13-.94-.33-1.36-.13a.76.76,0,0,0-.19.12,1.57,1.57,0,0,0-.19.18l-1.2.26-.86.18a.81.81,0,0,1-.1-.18c-.48-1,1-2.07.08-3.1-1.09-.53-1.79,1.23-2.79.66-1-1.24,3.37-1.92.13-3.27.62-2.45,3.53-1.79,4.72-3.48,1.86-.11,3.77.37,5.59-.39h0c3.56-.13,4.81-1.36,5.14-5,1.91-4.32-.35-6.9-3.59-9.36-2.47-1.88-3.63.83-5.45,1.08A28.09,28.09,0,0,0,94.47,148a28.71,28.71,0,0,1-10-2.43l-.29-.12a7.06,7.06,0,0,0-3.38-.88,2.21,2.21,0,0,1-1.29-.35c.18-4.44-3.62-1.83-5.4-3.35-.31-1,1.51-.87,1.62-1.85-.31-.6-.89-.25-1.29-.42-.79-.34-2.24.63-2.37-.74-.12-1.2,1.23-1,2.07-1.06.49-.07,1.25-.17,1-.72-1.34-3.51,1.15-1.77,2.34-1.74A7,7,0,0,1,81.83,136a3.72,3.72,0,0,0,2.33.82,3.79,3.79,0,0,0,1-.14c1.71.3,3.4.48,4.67-1.1,2.92-1.26,4.14-4.9,2.41-7.15-.05-3.54-1.84-6.67-2.4-10.1q0-3.68,0-7.35v-3.94c.11-1.22.21-2.44.28-3.66q.39-5.76.29-11.53c-.15-10.19,6-16.57,13.6-21.79,1.93-1.33,3.28-2.43,3.12-4.81a2.11,2.11,0,0,1,1.31-2.37,2.2,2.2,0,0,1,2.91.74c2.15,3.2,5.14,3.76,8.83,4,6,.43,11.73,3,17.92,2.28,1-.12,1.25.65,1.39,1.55a10.05,10.05,0,0,1-3.93,10.15c-1.71,1.35-3.61,2.46-5.29,3.85-2.81,2.33-2.93,4.65-.49,7.37,3.85,4.3,8.33,7.5,14.27,8.12C144.13,101.78,144.16,102.58,144.17,103.39Z"/></svg>