<svg id="Layer_1" data-name="Layer 1" xmlns="http://www.w3.org/2000/svg" width="360" height="391" viewBox="0 0 360 391"><defs><style>.cls-1{fill:#f7b284;}.cls-2{fill:#f99b55;}.cls-3{fill:#fc7f10;}</style></defs><path class="cls-1" d="M354.23,183.61c0,30.48-12.62,57.79-45.15,76.24v63.24a8.17,8.17,0,0,1-8.17,8.17H284.29v9.95a7,7,0,0,1-7,7H252.88c-19.2,23.88-43,38-68.87,38-1.35,0-2.68,0-4-.11-24.3-1.38-46.68-15.27-64.89-37.91H82.8a7,7,0,0,1-7-7v-9.95H58.08a8.18,8.18,0,0,1-8.18-8.17V256.7C19.17,238.36,5.77,212.39,5.77,183.61s13.4-54.75,44.13-73.09V65a8.18,8.18,0,0,1,8.18-8.17H75.83v-10a7,7,0,0,1,7-7h34.78C135.32,19,156.78,6.22,180,4.91c1.32-.08,2.65-.12,4-.12,24.73,0,47.65,13,66.41,35.06h26.9a7,7,0,0,1,7,7v10h16.62A8.17,8.17,0,0,1,309.08,65v42.42C341.61,125.82,354.23,153.13,354.23,183.61Z"/><path class="cls-2" d="M354.23,183.61c0,30.48-12.62,57.79-45.15,76.24v63.24a8.17,8.17,0,0,1-8.17,8.17H284.29v9.95a7,7,0,0,1-7,7H252.88c-19.2,23.88-43,38-68.87,38-1.35,0-2.68,0-4-.11V4.91c1.32-.08,2.65-.12,4-.12,24.73,0,47.65,13,66.41,35.06h26.9a7,7,0,0,1,7,7v10h16.62A8.17,8.17,0,0,1,309.08,65v42.42C341.61,125.82,354.23,153.13,354.23,183.61Z"/><path class="cls-2" d="M334.79,184.94c0,27.08-11.21,51.34-40.11,67.73v56.18a7.26,7.26,0,0,1-7.26,7.26H272.65V325a6.21,6.21,0,0,1-6.2,6.2H244.74c-17.05,21.21-38.23,33.77-61.18,33.77-1.19,0-2.37,0-3.56-.09-21.58-1.23-41.47-13.57-57.63-33.68H93.65a6.2,6.2,0,0,1-6.2-6.2v-8.84H71.68a7.26,7.26,0,0,1-7.25-7.26v-59c-27.31-16.29-39.22-39.37-39.22-64.93S37.12,136.3,64.43,120V79.52a7.26,7.26,0,0,1,7.25-7.26H87.45V63.42a6.19,6.19,0,0,1,6.2-6.2h30.89c15.76-18.56,34.84-29.87,55.46-31,1.19-.07,2.37-.1,3.56-.1,22,0,42.34,11.53,59,31.14h23.89a6.2,6.2,0,0,1,6.2,6.2v8.84h14.77a7.26,7.26,0,0,1,7.26,7.26v37.69C323.58,133.6,334.79,157.86,334.79,184.94Z"/><path class="cls-3" d="M334.79,184.94c0,27.08-11.21,51.34-40.11,67.73v56.18a7.26,7.26,0,0,1-7.26,7.26H272.65V325a6.21,6.21,0,0,1-6.2,6.2H244.74c-17.05,21.21-38.23,33.77-61.18,33.77-1.19,0-2.37,0-3.56-.09V26.18c1.19-.07,2.37-.1,3.56-.1,22,0,42.34,11.53,59,31.14h23.89a6.2,6.2,0,0,1,6.2,6.2v8.84h14.77a7.26,7.26,0,0,1,7.26,7.26v37.69C323.58,133.6,334.79,157.86,334.79,184.94Z"/><rect class="cls-1" x="97.87" y="87.37" width="164.25" height="216.26"/></svg>