<svg id="Layer_1" data-name="Layer 1" xmlns="http://www.w3.org/2000/svg" width="408" height="238" viewBox="0 0 408 238"><defs><style>.cls-1{fill:#f7b284;}.cls-2{fill:#f99b55;}.cls-3{fill:#fc7f10;}.cls-4{fill:#2b02b0;}</style></defs><path class="cls-1" d="M13.88,2.65H204.19a0,0,0,0,1,0,0V236.32a0,0,0,0,1,0,0H13.88A12.56,12.56,0,0,1,1.32,223.76V15.22A12.56,12.56,0,0,1,13.88,2.65Z"/><path class="cls-2" d="M216.76,2.65H407.07a0,0,0,0,1,0,0V236.32a0,0,0,0,1,0,0H216.76a12.56,12.56,0,0,1-12.56-12.56V15.22A12.56,12.56,0,0,1,216.76,2.65Z" transform="translate(611.26 238.97) rotate(-180)"/><path class="cls-2" d="M30.91,22H204a0,0,0,0,1,0,0V219.27a0,0,0,0,1,0,0H30.91a12.56,12.56,0,0,1-12.56-12.56V34.6A12.56,12.56,0,0,1,30.91,22Z"/><path class="cls-3" d="M216.56,22H389.65a0,0,0,0,1,0,0V219.27a0,0,0,0,1,0,0H216.56A12.56,12.56,0,0,1,204,206.71V34.6A12.56,12.56,0,0,1,216.56,22Z" transform="translate(593.65 241.31) rotate(-180)"/><rect class="cls-4" x="34.34" y="36.79" width="339.71" height="165.38" rx="14.17"/></svg>