<svg id="Layer_1" data-name="Layer 1" xmlns="http://www.w3.org/2000/svg" width="100" height="100" viewBox="0 0 100 100"><defs><style>.cls-1{fill:#fff;}.cls-2{fill:#f7b284;}.cls-3{fill:#f99b55;}.cls-4{fill:#fc7f10;}</style></defs><path class="cls-1" d="M50,9.6V90.4h0C45,90.4,20.5,74.83,20.5,41V22.47a3.29,3.29,0,0,1,1.41-2.79l27.45-10A1.77,1.77,0,0,1,50,9.6Z"/><path class="cls-2" d="M50,9.6V90.4h0C45,90.4,20.5,74.83,20.5,41V22.47a3.29,3.29,0,0,1,1.41-2.79l27.45-10A1.77,1.77,0,0,1,50,9.6Z"/><path class="cls-3" d="M50,21.2V78.8h0c-3.58,0-21-11.09-21-35.23V30.37a2.35,2.35,0,0,1,1-2l19.57-7.1A1.24,1.24,0,0,1,50,21.2Z"/><path class="cls-1" d="M50,9.6V90.4h0c5,0,29.5-15.57,29.5-49.42V22.47a3.29,3.29,0,0,0-1.41-2.79l-27.45-10A1.77,1.77,0,0,0,50,9.6Z"/><path class="cls-3" d="M50,9.6V90.4h0c5,0,29.5-15.57,29.5-49.42V22.47a3.29,3.29,0,0,0-1.41-2.79l-27.45-10A1.77,1.77,0,0,0,50,9.6Z"/><path class="cls-4" d="M50,21.2V78.8h0c3.58,0,21-11.09,21-35.23V30.37a2.35,2.35,0,0,0-1-2l-19.57-7.1A1.24,1.24,0,0,0,50,21.2Z"/><polygon class="cls-2" points="50 41.61 50 62.74 45.86 54.35 36.61 53.01 43.3 46.48 41.72 37.26 50 41.61"/><polygon class="cls-3" points="50 41.61 50 62.74 54.14 54.35 63.39 53.01 56.7 46.48 58.28 37.26 50 41.61"/></svg>