<svg id="Layer_1" data-name="Layer 1" xmlns="http://www.w3.org/2000/svg" xmlns:xlink="http://www.w3.org/1999/xlink" width="171.37" height="182" viewBox="0 0 171.37 182"><defs><style>.cls-1{fill:none;}.cls-2{fill:#4497cc;}.cls-3{fill:#d8a764;}.cls-4{fill:url(#New_Pattern_Swatch_11);}.cls-5{fill:url(#New_Pattern_Swatch_11-3);}.cls-6{fill:#2b2924;}</style><pattern id="New_Pattern_Swatch_11" data-name="New Pattern Swatch 11" width="55" height="55" patternTransform="matrix(-1, 0, 0, 1, -12, -61.53)" patternUnits="userSpaceOnUse" viewBox="0 0 55 55"><rect class="cls-1" width="55" height="55"/><rect class="cls-2" width="55" height="55"/><polygon class="cls-1" points="0 10.21 44.78 55 51.47 55 0 3.54 0 10.21"/><polygon class="cls-1" points="31.04 0 55 23.96 55 17.29 37.72 0 31.04 0"/><polygon class="cls-1" points="44.78 0 55 10.21 55 3.54 51.47 0 44.78 0"/><polygon class="cls-1" points="3.54 0 55 51.47 55 44.78 10.21 0 3.54 0"/><polygon class="cls-1" points="17.29 0 55 37.72 55 31.04 23.96 0 17.29 0"/><polygon class="cls-1" points="0 51.47 3.54 55 10.21 55 0 44.78 0 51.47"/><polygon class="cls-1" points="0 37.72 17.29 55 23.96 55 0 31.04 0 37.72"/><polygon class="cls-1" points="0 23.96 31.04 55 37.72 55 0 17.29 0 23.96"/><polygon class="cls-3" points="55 3.54 55 0 51.47 0 55 3.54"/><polygon class="cls-3" points="37.72 0 55 17.29 55 10.21 44.78 0 37.72 0"/><polygon class="cls-3" points="23.96 0 55 31.04 55 23.96 31.04 0 23.96 0"/><polygon class="cls-3" points="10.21 0 55 44.78 55 37.72 17.29 0 10.21 0"/><polygon class="cls-3" points="0 0 0 3.54 51.47 55 55 55 55 51.47 3.54 0 0 0"/><polygon class="cls-3" points="0 17.29 37.72 55 44.78 55 0 10.21 0 17.29"/><polygon class="cls-3" points="0 31.04 23.96 55 31.04 55 0 23.96 0 31.04"/><polygon class="cls-3" points="0 44.78 10.21 55 17.29 55 0 37.72 0 44.78"/><polygon class="cls-3" points="0 55 3.54 55 0 51.47 0 55"/></pattern><pattern id="New_Pattern_Swatch_11-3" data-name="New Pattern Swatch 11" width="55" height="55" patternTransform="translate(-77.05 -3.44)" patternUnits="userSpaceOnUse" viewBox="0 0 55 55"><rect class="cls-1" width="55" height="55"/><rect class="cls-2" width="55" height="55"/><polygon class="cls-1" points="0 10.21 44.78 55 51.47 55 0 3.54 0 10.21"/><polygon class="cls-1" points="31.04 0 55 23.96 55 17.29 37.72 0 31.04 0"/><polygon class="cls-1" points="44.78 0 55 10.21 55 3.54 51.47 0 44.78 0"/><polygon class="cls-1" points="3.54 0 55 51.47 55 44.78 10.21 0 3.54 0"/><polygon class="cls-1" points="17.29 0 55 37.72 55 31.04 23.96 0 17.29 0"/><polygon class="cls-1" points="0 51.47 3.54 55 10.21 55 0 44.78 0 51.47"/><polygon class="cls-1" points="0 37.72 17.29 55 23.96 55 0 31.04 0 37.72"/><polygon class="cls-1" points="0 23.96 31.04 55 37.72 55 0 17.29 0 23.96"/><polygon class="cls-3" points="55 3.54 55 0 51.47 0 55 3.54"/><polygon class="cls-3" points="37.72 0 55 17.29 55 10.21 44.78 0 37.72 0"/><polygon class="cls-3" points="23.96 0 55 31.04 55 23.96 31.04 0 23.96 0"/><polygon class="cls-3" points="10.21 0 55 44.78 55 37.72 17.29 0 10.21 0"/><polygon class="cls-3" points="0 0 0 3.54 51.47 55 55 55 55 51.47 3.54 0 0 0"/><polygon class="cls-3" points="0 17.29 37.72 55 44.78 55 0 10.21 0 17.29"/><polygon class="cls-3" points="0 31.04 23.96 55 31.04 55 0 23.96 0 31.04"/><polygon class="cls-3" points="0 44.78 10.21 55 17.29 55 0 37.72 0 44.78"/><polygon class="cls-3" points="0 55 3.54 55 0 51.47 0 55"/></pattern></defs><path class="cls-2" d="M156.38,49.08a212.16,212.16,0,0,0-5.36-28,12.09,12.09,0,0,0-8.85-9.1c-6.44-1.91-12.71-4.25-19.29-5.77C110.7,3.41,98.36,2.35,85,2c-4.46.51-9.83.53-15.18,1a156.75,156.75,0,0,0-41.74,9.49,10.6,10.6,0,0,0-7,7.07,126.68,126.68,0,0,0-3.3,13.27C15,45.8,13.13,59,13.28,72.35c0,1.83.46,2.66,2.38,2.88a14.32,14.32,0,0,1,9.72,5.25c6.25,7.5,5,21.47-5.89,25.49-.85.32-2.42.24-1.88,2.23a79.77,79.77,0,0,0,7.07,18.45c6.06,10.88,14.25,20,23.36,28.4,10.22,9.36,21.2,17.67,33.65,23.93a8.1,8.1,0,0,0,8.2-.1,156.64,156.64,0,0,0,18.16-11.18c14.45-10.79,27.67-22.78,37.18-38.3,4-6.53,7.39-13.4,8.13-21.24.13-1.35.16-2.26-1.63-2.41a7.84,7.84,0,0,1-5-3,16.12,16.12,0,0,1-3.52-16.91c2.07-6.18,7-9.49,12.75-11.39,1.76-.58,2.16-1,2.13-2.67A189.9,189.9,0,0,0,156.38,49.08Zm-7.3,24.12c-6.37,2.51-9.63,8.16-10.73,14.68-1.43,8.54,1.83,15.43,8.91,20.37,1.83,1.27,1.25,2.56.86,4.09-1.7,6.71-5,12.66-8.84,18.32-5.74,8.51-12.82,15.82-20.46,22.66a200.45,200.45,0,0,1-18.39,14.52c-.65.45-1.17,1.1-2.09.81a12.48,12.48,0,0,1-1.72,1.62c-4.59,3-4.83,2.49-7.05-1.1a3.23,3.23,0,0,0-.38-.45c-.82-.94-1.38-2.9-2.52-2.57-1.58.46-.48,2.24-.45,3.44.15,6.3-.64,6.88-6.06,3.73A161,161,0,0,1,47.2,148a124.5,124.5,0,0,1-17.5-21.35,55,55,0,0,1-6.36-14.39,3.52,3.52,0,0,1,1.46-4.37,19,19,0,0,0,7.6-10.37c.65-2.2,2.23-2.92,4.31-2.92q14.3,0,28.59,0a8.71,8.71,0,0,1,4.26,1c4.11-4.77,9.73-6.12,15.61-6.85,0-18.61,0-37.22,0-55.83,0-2.43,1-3.1,3.21-3.1q29.1.06,58.19,0c1.46,0,2.6.33,2.89,1.91,1.41,7.6,2.94,15.18,3.47,22.92,0,.26-.23.54-.35.81,1.44,3,.71,6.34,1.37,9.43C154.84,69.37,153.37,71.51,149.08,73.2Z"/><path class="cls-3" d="M152.54,55.52c-4.69,3-9.35,6-14.06,8.95s-6.76,7.38-8.6,12.16c-2.48,6.48-4.73,13.05-8.34,19-1.79.22-4.19-1.16-5.21.74-.82,1.52,1.64,2.39,2.4,3.73-.52,1.75-1.35,3.24-3.21,3.89-2.55-1.84-4-4.65-5.88-7-1.31-1.62-2.45-2.11-4.25-1.26a22.49,22.49,0,0,0-17.1-6.13,7,7,0,0,1-3.12-.8c0-18.61,0-37.22,0-55.82,0-2.44,1-3.11,3.2-3.1q29.1,0,58.19,0c1.47,0,2.6.32,2.89,1.9,1.41,7.6,3,15.19,3.47,22.92C152.9,55,152.66,55.25,152.54,55.52Z"/><path class="cls-2" d="M105.39,95.73c1.8-.85,2.94-.36,4.25,1.26,1.9,2.38,3.33,5.19,5.88,7,0,2.17-2,2.32-3.3,2.82s-2-1-2.54-2C108.16,101.86,106.81,98.78,105.39,95.73Z"/><path class="cls-2" d="M118.73,100.13c-.76-1.34-3.22-2.21-2.4-3.73,1-1.9,3.42-.52,5.21-.74C120.84,97.3,120.38,99.09,118.73,100.13Z"/><path class="cls-4" d="M21.89,73.21c6.57,2.35,11.66,13.56,10.73,21.68a6.85,6.85,0,0,0,.2,1.49h53v-.81h0c0-18.53,0-44.06,0-62.59,0-2.43-1-3.1-3.21-3.1q-29.1.06-58.19,0c-1.46,0-2.6.32-2.89,1.91C20.15,39.4,18.62,47,18.09,54.71c0,.27.23.55.35.82-1.44,3-.71,6.34-1.37,9.43C16.13,69.38,17.55,71.66,21.89,73.21Z"/><path class="cls-3" d="M85.85,167.62a2.14,2.14,0,0,1,0-.62V153.37a46.69,46.69,0,0,1-4.41-8.3c-3.34-8.51-2.84-17.31-2.31-26.1a8.88,8.88,0,0,0-2.25-6.76c-2.43-2.9-5.72-3.84-9.16-4.46-5.44-1-10.88-2-16.4-3.37a8.52,8.52,0,0,1,4.13-3.78,33.35,33.35,0,0,1,9.83-2.33,5.26,5.26,0,0,0,4.29-2.61,8.66,8.66,0,0,0-4.27-1c-9.53,0-19.06,0-28.59,0-2.08,0-3.66.73-4.3,2.92a19.06,19.06,0,0,1-7.6,10.37,3.52,3.52,0,0,0-1.47,4.37,54.86,54.86,0,0,0,6.36,14.39A123.74,123.74,0,0,0,47.2,148a161.63,161.63,0,0,0,33,25.3c3.49,2,5,2.49,5.69.91Z"/><path class="cls-3" d="M96.13,166.1v4.5l.5-.32a13.79,13.79,0,0,0,1.71-1.63A24.33,24.33,0,0,0,96.13,166.1Z"/><path class="cls-5" d="M83.8,167.62a2.14,2.14,0,0,0,0-.62V153.37c1.69-2.62,5.24-5.33,6.41-8.3,3.34-8.51,2.83-17.31,2.31-26.1-.17-2.73,6.41-17.64,4.67-18.37-3.13-1.32,5.9-3.38,4.89-4.94a8.66,8.66,0,0,1,4.27-1c9.53,0,19.06,0,28.59,0,2.07,0,3.66.73,4.3,2.92a19,19,0,0,0,7.6,10.37,3.53,3.53,0,0,1,1.47,4.37A55.52,55.52,0,0,1,142,126.68,123.74,123.74,0,0,1,124.45,148a161.63,161.63,0,0,1-33,25.3c-3.49,2-7,2.49-7.69.91Z"/><path class="cls-6" d="M114.69,105.81a1.1,1.1,0,0,1-.3.21Z"/><path class="cls-6" d="M149.08,73.2c-6.37,2.51-9.63,8.16-10.73,14.68-1.43,8.54,1.83,15.43,8.91,20.37,1.83,1.28,1.25,2.57.86,4.09-1.7,6.71-5,12.66-8.84,18.32-5.74,8.51-12.82,15.82-20.46,22.66a200.45,200.45,0,0,1-18.39,14.52c-.65.45-1.17,1.1-2.1.81-2.33-3.19-5.67-5.43-8-8.69-3.34-4.76-6.78-9.39-8.94-14.89-3.35-8.51-2.84-17.31-2.31-26.1a8.93,8.93,0,0,0-2.26-6.76c-2.43-2.9-5.72-3.85-9.15-4.47-5.45-1-10.88-2-16.4-3.36a8.55,8.55,0,0,1,4.13-3.79,33,33,0,0,1,9.82-2.32,5.27,5.27,0,0,0,4.29-2.61c3.49-4.06,8.08-5.64,13-6.47,1.31-.73,4.71-1.37,13.3,1.17l.07,0a22.26,22.26,0,0,1,9.47,5.35c1.41,3,2.77,6.12,4.29,9.12.49,1,1.09,2.52,2.54,2,.55-.2,1.22-.35,1.81-.61l.08,0,.16-.09.12-.07a1.1,1.1,0,0,0,.3-.21l.18-.14a20,20,0,0,0,4.67-6.2s0,0,0,0a4.59,4.59,0,0,1,.93-1.32h0c.41-.78.69-1.64,1-2.46,3.61-6,5.87-12.56,8.35-19,1.84-4.79,4-9.3,8.6-12.16s9.37-6,14.05-8.95c1.44,3,.71,6.34,1.37,9.43C154.84,69.37,153.37,71.51,149.08,73.2Z"/><path d="M63.13,25.54l-.06,0A9.58,9.58,0,0,1,57.2,22,12.15,12.15,0,0,1,55,17.55a35.39,35.39,0,0,0,2.3-2.91,5.28,5.28,0,0,0,1.15-3c0-.22-.26-.55-.76-1s-.82-.63-1-.56a12,12,0,0,0-2,2.49v2.75c0,.29,0,.84,0,1.66s0,1.23,0,1.24c0,.18,0,.58,0,1.19s0,1,0,1.21c0,.92,0,1.58,0,2a.33.33,0,0,0,.2.29l.72.41c.19.1.26.2.21.29a2.07,2.07,0,0,1-.43.37L54,25q-.78.52-2,1.47a.2.2,0,0,1-.18.09c-.09,0-.12-.1-.12-.25a5.81,5.81,0,0,1,.21-1.24,10.44,10.44,0,0,0,.27-1.2c0-.21,0-1.15.08-2.81,0-1.31,0-2.32,0-3s0-1.4,0-2c0-.27,0-1,0-2.26,0-.79,0-1.66-.06-2.62,0-.19-.09-.27-.25-.24l-.94.21c-.15,0-.23,0-.23-.21s.06-.15.18-.23c.33-.23.94-.71,1.83-1.42q.63-.51,1.62-1.38l.28-.32a.29.29,0,0,1,.21-.1q.13,0,.12.27c0,.82-.11,1.89-.19,3.23.5-.72,1.19-1.59,2.07-2.62a.8.8,0,0,1,.69-.24,9.19,9.19,0,0,1,1.9,1,21.7,21.7,0,0,1,1.81,1.25c.34.28.52.47.52.55a3,3,0,0,1-.34.88,14.11,14.11,0,0,1-2,2.9,19,19,0,0,1-2.62,2.53l2.55-.72a3.18,3.18,0,0,0,0,.62,11.13,11.13,0,0,0,1.19,4.61A10.21,10.21,0,0,0,63.13,25.54Z"/><path d="M68,19a2.38,2.38,0,0,1-.33.31c-.23.18-.56.47-1,.86l-.34.38a.83.83,0,0,1-.79.28,1.45,1.45,0,0,1-.32-.09,1.18,1.18,0,0,1-.17-.31c0-.08-.07-.18-.12-.29l-.43.3-.37.28a2.1,2.1,0,0,1-.31.18,1.05,1.05,0,0,1-.33,0q-.36,0-.45-.15a2,2,0,0,1-.17-.36c-.1-.26-.23-.64-.4-1.14L62.1,18,62,17.49a.89.89,0,0,1,0-.4,2.32,2.32,0,0,1,.63-.79,4.13,4.13,0,0,1,1.51-.85,4.51,4.51,0,0,1,.47-.15,1.31,1.31,0,0,1,.38.09.17.17,0,0,1-.07.18,5.17,5.17,0,0,0-.94.84c0,.25,0,.43,0,.54s.06.38.13.72a7.17,7.17,0,0,0,.21.76c.13.37.26.76.4,1.17a1.84,1.84,0,0,0,.4-.26c0-.34.07-.95.11-1.8,0-.49,0-1.12,0-1.9,0-.4,0-1,0-1.79,0,0,0-.34,0-.84,0-.16-.07-.21-.19-.16l-.48.22-.6.31a1.05,1.05,0,0,0-.26.17.67.67,0,0,0-.14.38c0,.05,0,.22-.06.53s-.09.27-.22.08a5.66,5.66,0,0,1-.3-.51,5.84,5.84,0,0,1-.29-.52l-.35-.78c0-.14-.06-.24,0-.3a2.21,2.21,0,0,1,.29-.22c.12-.09.67-.41,1.64-1l.38-.2q.14-.06.3.12l1.05,1.08c.27.3.57.65.9,1.06a2,2,0,0,1,.36.62,3.43,3.43,0,0,1,.1.65c0,.32,0,.73,0,1.22,0,.83,0,1.32,0,1.48,0,.39,0,1,0,1.72l.38,0H68Z"/><path d="M76.37,14.1a3.51,3.51,0,0,0-.9,1.84c0,.24,0,.64,0,1.18s0,.82,0,.94a10.06,10.06,0,0,1-.11,1.38c0,.17-.12.56-.27,1.19a3.52,3.52,0,0,1-.21.56c-.11.24-.57.54-1.35.91l-1,.41c-.17.07-.44.17-.8.29-.19.06-.5-.07-.93-.37a5.24,5.24,0,0,1-1.51-1.55,3.3,3.3,0,0,1-.35-1.71,5.22,5.22,0,0,1,.37-1.81,2.94,2.94,0,0,1,1.25-1.59v0h-.32a2,2,0,0,1-1.79-.8,2,2,0,0,1-.37-1.1c0-.57.19-.86.58-.88s.5.12.51.43a.53.53,0,0,1-.12.38.33.33,0,0,1-.35.11,1.41,1.41,0,0,0,.62.15,13,13,0,0,0,2.92-.59,3.14,3.14,0,0,1,.74-.14q.3,0,.3.12a.35.35,0,0,1-.06.17c-.29.51-.69,1.23-1.18,2.17a9.41,9.41,0,0,0-.72,2.16,8.61,8.61,0,0,0-.07,1.87,4.8,4.8,0,0,0,.18,1,1.62,1.62,0,0,0,.37.7c.1.11.2.15.29.1a2,2,0,0,0,1-1.39,6.42,6.42,0,0,0,.21-1.53l.15-1.85A14.84,14.84,0,0,1,73.63,15c.17-.78.43-1.25.78-1.4a6,6,0,0,1,1.5.19c.33.07.5.15.5.25A.1.1,0,0,1,76.37,14.1Z"/><path d="M82.74,16.38a.49.49,0,0,1-.27.18l-1.63.54c-.79.33-1.13.69-1,1.06q.15-.21.42,0a.34.34,0,0,1,.09.52c-.15.27-.39.3-.71.08a1.28,1.28,0,0,1-.6-1.12,2,2,0,0,1,1.36-2.08c-.2-.46-.47-1-.81-1.69,0-.09-.11-.09-.19,0a.61.61,0,0,0-.14.17,2,2,0,0,0-.17.55c0,.11,0,.33-.08.65,0,.54,0,1.35,0,2.42,0,.54,0,1,0,1.51,0,.2,0,.53,0,1a.83.83,0,0,0,.11.35,1.31,1.31,0,0,0,.27.33,2.23,2.23,0,0,0,.76.33c.22.06.35.06.4,0A5.58,5.58,0,0,0,81,19.92a6.14,6.14,0,0,0,.22-.83c0-.15.08-.2.13-.15s.11.14.2.25l.26.36c.08.13.16.24.23.34s.1.18.07.23-.23.33-.45.61l-.45.63-.39.48a.44.44,0,0,1-.3.18h-.47L79,22c-.17,0-.55-.33-1.14-.91l-.62-.63a3.35,3.35,0,0,0-.25-.32.49.49,0,0,1-.13-.38s0-.12,0-.23,0-.21,0-.27v-3c0-.42.1-.93.19-1.53a.8.8,0,0,1,.16-.31l1-.79.91-.7a.58.58,0,0,1,.32-.16.93.93,0,0,1,.32,0,8.18,8.18,0,0,1,.88.38c.26.13.61.31,1,.55a.44.44,0,0,1,.18.22l.88,2.13C82.77,16.23,82.78,16.32,82.74,16.38Z"/><path d="M91.19,24.68,91,25c0,.08-.14.09-.3,0l-1.68-.61a1.6,1.6,0,0,1-.57-.35,1,1,0,0,1-.3-.68,12.37,12.37,0,0,1,0-1.25c0-.25,0-.59,0-1s0-.82,0-1c0-.79,0-1.26,0-1.43,0-1.08,0-1.86-.07-2.36l-.09-1.23a.42.42,0,0,0-.33-.43,1,1,0,0,0-.55.14,4.14,4.14,0,0,0-.67.37v1.62c0,1.49,0,2.46.07,2.91a7.8,7.8,0,0,1-.15,2.14l-.24.88c-.07.23-.18.36-.33.37a.66.66,0,0,1-.48-.18l-1.61-1.3c-.09-.07-.14-.12-.14-.15s.06-.05.2-.07l.31,0a.35.35,0,0,0,.31-.39V17.08c0-.59,0-1.27,0-2a.48.48,0,0,0-.08-.32.36.36,0,0,0-.29,0l-.76.25c-.14,0-.21,0-.21-.08a.33.33,0,0,1,.16-.26l2.23-1.5a1.79,1.79,0,0,1,.5-.29.56.56,0,0,1,.26.08s.08.11.1.23l.1.71a13,13,0,0,1,1.33-.6.53.53,0,0,1,.49,0,3.69,3.69,0,0,1,.63.44c.39.33.68.59.86.78A.94.94,0,0,1,90,15c.07.4.13.85.17,1.35s.09,1,.1,1.36,0,.84,0,1.4,0,1.23,0,1.94,0,1.26,0,2c0,.22,0,.52.06.92,0,0,0,.11.07.23a.34.34,0,0,0,.33.23h.5S91.25,24.58,91.19,24.68Z"/><path d="M97.35,14.37l-1.33,1c-.13.1-.23.15-.28.14s-.09-.09-.2-.27c-.2-.5-.43-1.09-.69-1.78-.09-.22-.21-.51-.34-.85-.21-.61-.38-.87-.51-.77a.86.86,0,0,0-.14.18,2.35,2.35,0,0,0-.15.54,10.09,10.09,0,0,0-.1,1c0,.05,0,.56,0,1.53,0,.2,0,.49,0,.88,0,.54,0,1,0,1.52,0,.3,0,.74.05,1.33a.79.79,0,0,0,.1.33,1.28,1.28,0,0,0,.35.37,4.61,4.61,0,0,0,.38.28c.11.07.19.06.25,0s.06-.16.15-.37.16-.43.29-.76l.37-1.21c0-.14.07-.18.11-.14s.11.15.19.27a4.79,4.79,0,0,1,.4.6c.23.39.38.63.45.73s.1.18.07.23l-.48.64a3.23,3.23,0,0,1-.41.45,1,1,0,0,1-.54.16l-.73,0h-.46c-.18,0-.34,0-.48,0a1.41,1.41,0,0,1-.48-.3,7.08,7.08,0,0,1-.63-.51l-.61-.63-.35-.33a1,1,0,0,1-.09-.33,3.78,3.78,0,0,1,0-.64c0-.13,0-.33,0-.61s0-.5,0-.65v-1q0-.48,0-1.44c0-.06,0-.28,0-.66a.73.73,0,0,1,.15-.33c.25-.21.61-.52,1.09-.91l.94-.75a.63.63,0,0,1,.32-.16.93.93,0,0,1,.32,0l.88.43a9.07,9.07,0,0,1,.85.44.38.38,0,0,1,.17.22c.06.17.19.51.39,1,.07.14.16.39.29.75q.1.27.36.06C97.41,14.19,97.42,14.29,97.35,14.37Z"/><path d="M102,22.91c0,.06,0,.12-.18.19l-1.42.6a2.83,2.83,0,0,1-.61.22.63.63,0,0,1-.43-.13s-.1-.14-.27-.35-.31-.47-.76-1.15l-.67.27a.44.44,0,0,1-.21,0,.08.08,0,0,1-.08-.07.25.25,0,0,1,.13-.31l.27-.17a.63.63,0,0,0,.2-.29,1.79,1.79,0,0,0,.08-.38c0-.19,0-.47.07-.86.06-.66.11-1.34.13-2.05.07-1.54.1-2.37.1-2.49,0-1,0-1.83,0-2.49V9.4c0-.26-.12-.37-.31-.33l-.49.08c-.12,0-.18,0-.19-.12a.31.31,0,0,1,.11-.25l.8-.39c.2-.11.61-.3,1.23-.59.31-.17.69-.35,1.15-.55.18-.07.28,0,.28.18a.11.11,0,0,1,0,.09l-.31.3a.75.75,0,0,0-.14.45c0,.66,0,1.49,0,2.5,0,.12,0,.8,0,2.06,0,.79,0,1.76,0,2.9,0,.34,0,1.09-.07,2.24s-.1,2-.16,2.65a1.57,1.57,0,0,1,0,.2s-.06.06-.15.11l-.48.25v0a.84.84,0,0,1,.55,0c.07.15.16.32.28.53.2.4.37.71.52.95s.17.15.34.13l.39-.05C101.87,22.79,102,22.82,102,22.91Z"/><path d="M107.6,19a1.93,1.93,0,0,1-.33.31c-.23.18-.56.47-1,.86l-.34.38a.82.82,0,0,1-.78.28,1.38,1.38,0,0,1-.33-.09,1.18,1.18,0,0,1-.17-.31c0-.08-.07-.18-.12-.29l-.43.3-.37.28a2.1,2.1,0,0,1-.31.18,1.05,1.05,0,0,1-.33,0q-.36,0-.45-.15a2,2,0,0,1-.17-.36c-.1-.26-.23-.64-.4-1.14l-.42-1.3q-.09-.34-.12-.51a.68.68,0,0,1,0-.4,2.14,2.14,0,0,1,.62-.79,4.29,4.29,0,0,1,.83-.57,4,4,0,0,1,.69-.28,3.47,3.47,0,0,1,.46-.15,1.31,1.31,0,0,1,.38.09.16.16,0,0,1-.07.18,5.17,5.17,0,0,0-.94.84c0,.25,0,.43,0,.54s.06.38.13.72a5.62,5.62,0,0,0,.22.76c.12.37.25.76.4,1.17a2,2,0,0,0,.39-.26c0-.34.07-.95.11-1.8,0-.49,0-1.12,0-1.9,0-.4,0-1,0-1.79,0,0,0-.34,0-.84,0-.16-.07-.21-.19-.16l-.48.22-.6.31a1.05,1.05,0,0,0-.26.17.67.67,0,0,0-.14.38c0,.05,0,.22-.06.53s-.09.27-.22.08a5.66,5.66,0,0,1-.3-.51,5.84,5.84,0,0,1-.29-.52l-.35-.78a.35.35,0,0,1,0-.3,2.21,2.21,0,0,1,.29-.22c.12-.09.67-.41,1.64-1l.38-.2c.09,0,.19,0,.31.12l1,1.08c.27.3.57.65.9,1.06a2,2,0,0,1,.36.62,2.78,2.78,0,0,1,.1.65c0,.32,0,.73,0,1.22,0,.83,0,1.32,0,1.48,0,.39,0,1,0,1.72l.38,0h.41Z"/><path d="M120.25,13.57c0,.12-.12.19-.34.19s-.2.11-.24.34-.06.51-.09,1.19c-.07,1-.12,1.94-.18,2.91a10.32,10.32,0,0,1-.55,2.81,8.23,8.23,0,0,1-.43.88,5.69,5.69,0,0,1-.79.52,4.65,4.65,0,0,1-1.2.61,5.64,5.64,0,0,1-.71-.3c-.49-.22-.77-.35-.84-.37a6.54,6.54,0,0,0-1.08-.28,2.3,2.3,0,0,0-.52,0,8.12,8.12,0,0,1-2,.77,1.65,1.65,0,0,1-.82-.38,3.94,3.94,0,0,1-1.91-3.27,5.22,5.22,0,0,1,.62-2.28,5.19,5.19,0,0,1,1.5-1.91l0,0a2.11,2.11,0,0,1-1.46.49A1.49,1.49,0,0,1,108.1,15a1.44,1.44,0,0,1-.44-1.12q0-1,.72-1a.46.46,0,0,1,.51.53c0,.36-.16.51-.49.44a2,2,0,0,0,.9.2,8.46,8.46,0,0,0,2.42-.58,7.08,7.08,0,0,1,1-.3c.17,0,.25.05.24.16a.8.8,0,0,1-.15.36q-.83,1.36-1.14,2a7.94,7.94,0,0,0-.81,3.35,3.82,3.82,0,0,0,.56,2.42c.09.09.15.14.19.14a.14.14,0,0,0,.1,0c.72-.34,1.12-1.32,1.21-2.92,0-.71.09-1.33.15-1.85a9.92,9.92,0,0,1,.42-2.21,1.66,1.66,0,0,1,.62-.91,2.64,2.64,0,0,1,1.13-.17c.53,0,.79,0,.79.15l-.16.28a4.57,4.57,0,0,0-.59,1.87c-.07.5-.13,1.23-.21,2.2,0,.24,0,.67-.09,1.28a12.65,12.65,0,0,0-.09,1.3,3,3,0,0,0,0,.61c1.16-.22,1.84-.72,2.06-1.5a6.91,6.91,0,0,0,.25-1.51c.1-1.69.21-3,.34-3.94,0-.16.06-.38.12-.67a.61.61,0,0,1,.67-.44l.32,0,1.31.17C120.17,13.39,120.25,13.46,120.25,13.57Z"/></svg>