<svg id="Layer_1" data-name="Layer 1" xmlns="http://www.w3.org/2000/svg" xmlns:xlink="http://www.w3.org/1999/xlink" width="365" height="450" viewBox="0 0 365 450"><defs><style>.cls-1{fill:none;}.cls-2{fill:#4497cc;}.cls-3{fill:#d8a764;}.cls-4{fill:#f7b284;}.cls-5{fill:#f99b55;}.cls-6{fill:#fc7f10;}.cls-7{fill:url(#New_Pattern_Swatch_11);}.cls-8{fill:url(#New_Pattern_Swatch_11-3);}.cls-9{fill:#2b2924;}</style><pattern id="New_Pattern_Swatch_11" data-name="New Pattern Swatch 11" width="55" height="55" patternTransform="matrix(-1, 0, 0, 1, -71.1, -39.24)" patternUnits="userSpaceOnUse" viewBox="0 0 55 55"><rect class="cls-1" width="55" height="55"/><rect class="cls-2" width="55" height="55"/><polygon class="cls-1" points="0 10.21 44.78 55 51.47 55 0 3.54 0 10.21"/><polygon class="cls-1" points="31.04 0 55 23.96 55 17.29 37.72 0 31.04 0"/><polygon class="cls-1" points="44.78 0 55 10.21 55 3.54 51.47 0 44.78 0"/><polygon class="cls-1" points="3.54 0 55 51.47 55 44.78 10.21 0 3.54 0"/><polygon class="cls-1" points="17.29 0 55 37.72 55 31.04 23.96 0 17.29 0"/><polygon class="cls-1" points="0 51.47 3.54 55 10.21 55 0 44.78 0 51.47"/><polygon class="cls-1" points="0 37.72 17.29 55 23.96 55 0 31.04 0 37.72"/><polygon class="cls-1" points="0 23.96 31.04 55 37.72 55 0 17.29 0 23.96"/><polygon class="cls-3" points="55 3.54 55 0 51.47 0 55 3.54"/><polygon class="cls-3" points="37.72 0 55 17.29 55 10.21 44.78 0 37.72 0"/><polygon class="cls-3" points="23.96 0 55 31.04 55 23.96 31.04 0 23.96 0"/><polygon class="cls-3" points="10.21 0 55 44.78 55 37.72 17.29 0 10.21 0"/><polygon class="cls-3" points="0 0 0 3.54 51.47 55 55 55 55 51.47 3.54 0 0 0"/><polygon class="cls-3" points="0 17.29 37.72 55 44.78 55 0 10.21 0 17.29"/><polygon class="cls-3" points="0 31.04 23.96 55 31.04 55 0 23.96 0 31.04"/><polygon class="cls-3" points="0 44.78 10.21 55 17.29 55 0 37.72 0 44.78"/><polygon class="cls-3" points="0 55 3.54 55 0 51.47 0 55"/></pattern><pattern id="New_Pattern_Swatch_11-3" data-name="New Pattern Swatch 11" width="55" height="55" patternTransform="translate(-136.15 18.85)" patternUnits="userSpaceOnUse" viewBox="0 0 55 55"><rect class="cls-1" width="55" height="55"/><rect class="cls-2" width="55" height="55"/><polygon class="cls-1" points="0 10.21 44.78 55 51.47 55 0 3.54 0 10.21"/><polygon class="cls-1" points="31.04 0 55 23.96 55 17.29 37.72 0 31.04 0"/><polygon class="cls-1" points="44.78 0 55 10.21 55 3.54 51.47 0 44.78 0"/><polygon class="cls-1" points="3.54 0 55 51.47 55 44.78 10.21 0 3.54 0"/><polygon class="cls-1" points="17.29 0 55 37.72 55 31.04 23.96 0 17.29 0"/><polygon class="cls-1" points="0 51.47 3.54 55 10.21 55 0 44.78 0 51.47"/><polygon class="cls-1" points="0 37.72 17.29 55 23.96 55 0 31.04 0 37.72"/><polygon class="cls-1" points="0 23.96 31.04 55 37.72 55 0 17.29 0 23.96"/><polygon class="cls-3" points="55 3.54 55 0 51.47 0 55 3.54"/><polygon class="cls-3" points="37.72 0 55 17.29 55 10.21 44.78 0 37.72 0"/><polygon class="cls-3" points="23.96 0 55 31.04 55 23.96 31.04 0 23.96 0"/><polygon class="cls-3" points="10.21 0 55 44.78 55 37.72 17.29 0 10.21 0"/><polygon class="cls-3" points="0 0 0 3.54 51.47 55 55 55 55 51.47 3.54 0 0 0"/><polygon class="cls-3" points="0 17.29 37.72 55 44.78 55 0 10.21 0 17.29"/><polygon class="cls-3" points="0 31.04 23.96 55 31.04 55 0 23.96 0 31.04"/><polygon class="cls-3" points="0 44.78 10.21 55 17.29 55 0 37.72 0 44.78"/><polygon class="cls-3" points="0 55 3.54 55 0 51.47 0 55"/></pattern></defs><path class="cls-4" d="M356.73,245.76c0,30.48-12.62,57.79-45.15,76.24v63.24a8.17,8.17,0,0,1-8.17,8.17H286.79v9.95a7,7,0,0,1-7,7H255.37c-19.19,23.88-43,38-68.87,38-1.34,0-2.67,0-4-.11-24.3-1.38-46.68-15.27-64.88-37.91H85.3a7,7,0,0,1-7-7v-9.95H60.57a8.17,8.17,0,0,1-8.17-8.17V318.85C21.67,300.51,8.27,274.54,8.27,245.76S21.68,191,52.4,172.67V127.1a8.17,8.17,0,0,1,8.17-8.17H78.33V109a7,7,0,0,1,7-7h34.77c17.74-20.89,39.21-33.63,62.43-34.94,1.33-.08,2.66-.12,4-.12,24.74,0,47.66,13,66.42,35.06h26.89a7,7,0,0,1,7,7v10h16.62a8.16,8.16,0,0,1,8.16,8.17v42.42C344.12,188,356.73,215.28,356.73,245.76Z"/><path class="cls-5" d="M356.73,245.76c0,30.48-12.62,57.79-45.15,76.24v63.24a8.17,8.17,0,0,1-8.17,8.17H286.79v9.95a7,7,0,0,1-7,7H255.37c-19.19,23.88-43,38-68.87,38-1.34,0-2.67,0-4-.11V67.06c1.33-.08,2.66-.12,4-.12,24.74,0,47.66,13,66.42,35.06h26.89a7,7,0,0,1,7,7v10h16.62a8.16,8.16,0,0,1,8.16,8.17v42.42C344.12,188,356.73,215.28,356.73,245.76Z"/><path class="cls-5" d="M337.29,247.09c0,27.08-11.21,51.34-40.11,67.73V371a7.26,7.26,0,0,1-7.26,7.26H275.15v8.84a6.21,6.21,0,0,1-6.2,6.2H247.24c-17.05,21.21-38.24,33.78-61.18,33.78-1.19,0-2.37,0-3.56-.1-21.58-1.23-41.47-13.57-57.63-33.68H96.15a6.2,6.2,0,0,1-6.2-6.2v-8.84H74.18A7.26,7.26,0,0,1,66.93,371V312c-27.31-16.29-39.22-39.36-39.22-64.93s11.91-48.64,39.22-64.93V141.67a7.26,7.26,0,0,1,7.25-7.26H90v-8.84a6.19,6.19,0,0,1,6.2-6.2H127c15.76-18.56,34.84-29.87,55.46-31,1.19-.07,2.37-.1,3.56-.1,22,0,42.34,11.53,59,31.14H269a6.2,6.2,0,0,1,6.2,6.2v8.84h14.77a7.26,7.26,0,0,1,7.26,7.26v37.69C326.08,195.75,337.29,220,337.29,247.09Z"/><path class="cls-6" d="M337.29,247.09c0,27.08-11.21,51.34-40.11,67.73V371a7.26,7.26,0,0,1-7.26,7.26H275.15v8.84a6.21,6.21,0,0,1-6.2,6.2H247.24c-17.05,21.21-38.24,33.78-61.18,33.78-1.19,0-2.37,0-3.56-.1V88.33c1.19-.07,2.37-.1,3.56-.1,22,0,42.34,11.53,59,31.14H269a6.2,6.2,0,0,1,6.2,6.2v8.84h14.77a7.26,7.26,0,0,1,7.26,7.26v37.69C326.08,195.75,337.29,220,337.29,247.09Z"/><path class="cls-2" d="M285.68,188.09V154.6a6.49,6.49,0,0,0-6.53-6.45H265.87V140.3a5.54,5.54,0,0,0-5.58-5.51H238.8a93.22,93.22,0,0,0-16.51-15.25,71.09,71.09,0,0,0-10.76-6.38,1.28,1.28,0,0,0-.24-.11h0a62.12,62.12,0,0,0-11-4,56.81,56.81,0,0,0-11.16-1.78c-1.14-.08-2.29-.11-3.44-.11s-2.14,0-3.2.09l-.53,0h-.19a57.88,57.88,0,0,0-15.42,3.21c-1.57.54-3.13,1.15-4.65,1.84h0a65.58,65.58,0,0,0-7.83,4.08h0a89.35,89.35,0,0,0-21.26,18.39H104.82a5.54,5.54,0,0,0-5.59,5.51v7.85H85.05a6.5,6.5,0,0,0-6.53,6.45v36c-24.57,14.48-35.29,35-35.29,57.69S54,291.48,78.52,306v52.41a6.49,6.49,0,0,0,6.53,6.44H99.23v7.86a5.55,5.55,0,0,0,5.59,5.51h25.83C145.2,396,163.09,407,182.51,408.09c1.06.06,2.13.09,3.2.09,20.64,0,39.71-11.16,55-30h19.53a5.55,5.55,0,0,0,5.58-5.51V364.8h13.28a6.48,6.48,0,0,0,6.53-6.44V308.44c26-14.56,36.09-36.12,36.09-60.18S311.68,202.65,285.68,188.09ZM166.47,163.25c-4.06.08-6.65-1.38-8-3.49a2.39,2.39,0,0,1-.13-.21,12.41,12.41,0,0,0,1.3.69c2.33,1.06,4.73,2,7.1,3A1.22,1.22,0,0,1,166.47,163.25Z"/><path class="cls-2" d="M253.2,48.77a212.16,212.16,0,0,0-5.36-28,12.09,12.09,0,0,0-8.85-9.1c-6.44-1.91-12.71-4.25-19.29-5.77C207.52,3.1,195.18,2,181.85,1.64c-4.46.51-9.83.53-15.18,1a156.75,156.75,0,0,0-41.74,9.49,10.6,10.6,0,0,0-7,7.07,126.68,126.68,0,0,0-3.3,13.27C111.84,45.49,110,58.64,110.1,72c0,1.83.46,2.66,2.38,2.88a14.32,14.32,0,0,1,9.72,5.25c6.25,7.5,5,21.47-5.89,25.49-.85.32-2.42.24-1.88,2.23a79.77,79.77,0,0,0,7.07,18.45c6.06,10.88,14.25,20,23.36,28.4,10.22,9.36,21.2,17.67,33.65,23.93a8.1,8.1,0,0,0,8.2-.1,156.64,156.64,0,0,0,18.16-11.18c14.45-10.79,27.67-22.78,37.18-38.3,4-6.53,7.39-13.4,8.13-21.24.13-1.35.16-2.26-1.63-2.41a7.84,7.84,0,0,1-5-3A16.12,16.12,0,0,1,240,85.53c2.07-6.18,7-9.49,12.75-11.39,1.76-.58,2.16-1,2.13-2.67A189.9,189.9,0,0,0,253.2,48.77Zm-7.3,24.12c-6.37,2.51-9.63,8.16-10.73,14.68-1.43,8.54,1.83,15.43,8.91,20.37,1.83,1.27,1.25,2.56.86,4.09-1.7,6.71-5,12.66-8.84,18.32-5.74,8.51-12.82,15.82-20.46,22.66a200.45,200.45,0,0,1-18.39,14.52c-.65.45-1.17,1.1-2.09.81a12.48,12.48,0,0,1-1.72,1.62c-4.59,3-4.83,2.49-7.05-1.1a3.23,3.23,0,0,0-.38-.45c-.82-.94-1.38-2.9-2.52-2.57-1.58.46-.48,2.24-.45,3.44.15,6.3-.64,6.88-6.06,3.73a161,161,0,0,1-33-25.29,124.5,124.5,0,0,1-17.5-21.35A55,55,0,0,1,120.16,112a3.52,3.52,0,0,1,1.46-4.37,19,19,0,0,0,7.6-10.37c.65-2.2,2.23-2.92,4.31-2.92q14.29,0,28.59,0a8.71,8.71,0,0,1,4.26,1c4.11-4.77,9.73-6.12,15.61-6.85,0-18.61,0-37.22-.05-55.83,0-2.43,1-3.1,3.21-3.1q29.1.06,58.19,0c1.46,0,2.6.33,2.89,1.91,1.41,7.6,2.94,15.18,3.47,22.92,0,.26-.23.54-.35.81,1.44,3,.71,6.34,1.37,9.43C251.66,69.06,250.19,71.2,245.9,72.89Z"/><path class="cls-3" d="M249.35,55.21c-4.68,3-9.35,6-14.06,8.95s-6.76,7.37-8.59,12.16c-2.49,6.47-4.74,13.05-8.35,19-1.78.22-4.19-1.16-5.2.73-.82,1.53,1.64,2.4,2.39,3.73-.52,1.75-1.35,3.25-3.21,3.9-2.55-1.84-4-4.65-5.88-7-1.3-1.63-2.45-2.11-4.25-1.26a22.54,22.54,0,0,0-17.1-6.14,6.84,6.84,0,0,1-3.12-.79c0-18.61,0-37.22,0-55.83,0-2.43,1-3.1,3.21-3.1q29.08.06,58.19,0c1.46,0,2.59.33,2.89,1.91,1.41,7.6,2.94,15.18,3.47,22.92C249.71,54.66,249.47,54.94,249.35,55.21Z"/><path class="cls-2" d="M202.2,95.42c1.8-.85,3-.37,4.25,1.26,1.9,2.38,3.33,5.19,5.88,7,0,2.17-2,2.32-3.29,2.81s-2-1-2.55-2C205,101.54,203.62,98.47,202.2,95.42Z"/><path class="cls-2" d="M215.54,99.81c-.75-1.33-3.21-2.2-2.39-3.73,1-1.89,3.42-.51,5.2-.73C217.66,97,217.2,98.78,215.54,99.81Z"/><path class="cls-7" d="M118.7,72.89c6.58,2.35,11.66,13.56,10.73,21.69a7.42,7.42,0,0,0,.2,1.48h53v-.81h0c0-18.53,0-44.06,0-62.59,0-2.43-1-3.1-3.21-3.1q-29.1.06-58.19,0c-1.46,0-2.6.32-2.89,1.91-1.41,7.6-2.94,15.18-3.47,22.91,0,.27.23.55.35.82-1.44,3-.71,6.34-1.37,9.43C112.94,69.06,114.36,71.34,118.7,72.89Z"/><path class="cls-3" d="M182.66,167.31a2.57,2.57,0,0,1,0-.62V153.06a46.65,46.65,0,0,1-4.4-8.3c-3.35-8.51-2.84-17.31-2.31-26.1a8.93,8.93,0,0,0-2.26-6.76c-2.43-2.9-5.72-3.85-9.15-4.47-5.45-1-10.88-2-16.4-3.36a8.5,8.5,0,0,1,4.13-3.79A33,33,0,0,1,162.09,98a5.26,5.26,0,0,0,4.29-2.62,8.74,8.74,0,0,0-4.26-1q-14.3,0-28.59,0c-2.08,0-3.66.72-4.31,2.92a19,19,0,0,1-7.6,10.37,3.52,3.52,0,0,0-1.46,4.37,55,55,0,0,0,6.36,14.39A124.5,124.5,0,0,0,144,147.72,161.31,161.31,0,0,0,177,173c3.48,2,5.05,2.5,5.68.91Z"/><path class="cls-3" d="M193,165.79v4.49l.49-.32a12.44,12.44,0,0,0,1.71-1.62A22.37,22.37,0,0,0,193,165.79Z"/><path class="cls-8" d="M180.61,167.31a1.84,1.84,0,0,0,0-.62V153.06c1.7-2.62,5.24-5.33,6.41-8.3,3.35-8.51,2.84-17.31,2.31-26.1-.17-2.73,6.42-17.64,4.68-18.38-3.13-1.32,5.89-3.37,4.88-4.94a8.77,8.77,0,0,1,4.27-1q14.29,0,28.59,0c2.08,0,3.66.72,4.3,2.92a19.11,19.11,0,0,0,7.61,10.37,3.53,3.53,0,0,1,1.46,4.37,55,55,0,0,1-6.36,14.39,124.5,124.5,0,0,1-17.5,21.35,161.31,161.31,0,0,1-33,25.29c-3.49,2-7.05,2.5-7.69.91Z"/><path class="cls-9" d="M211.51,105.5a1.1,1.1,0,0,1-.3.21Z"/><path class="cls-9" d="M245.9,72.89c-6.37,2.51-9.63,8.16-10.73,14.68-1.43,8.54,1.83,15.43,8.91,20.37,1.83,1.28,1.25,2.57.86,4.09-1.7,6.71-5,12.66-8.84,18.32-5.74,8.51-12.82,15.82-20.46,22.66a200.45,200.45,0,0,1-18.39,14.52c-.65.45-1.17,1.1-2.1.81-2.33-3.19-5.67-5.43-8-8.69-3.34-4.76-6.78-9.39-8.94-14.89-3.35-8.51-2.84-17.31-2.31-26.1a8.93,8.93,0,0,0-2.26-6.76c-2.43-2.9-5.72-3.85-9.15-4.47-5.45-1-10.88-2-16.4-3.36a8.55,8.55,0,0,1,4.13-3.79A33,33,0,0,1,162.09,98a5.27,5.27,0,0,0,4.29-2.61c3.49-4.06,8.08-5.64,13-6.47,1.31-.73,4.71-1.37,13.3,1.17l.07,0a22.26,22.26,0,0,1,9.47,5.35c1.41,3,2.77,6.12,4.29,9.12.49,1,1.09,2.52,2.54,2,.55-.2,1.22-.35,1.81-.61l.08,0,.16-.09.12-.07a1.1,1.1,0,0,0,.3-.21l.18-.14a20,20,0,0,0,4.67-6.2s0,0,0,0a4.59,4.59,0,0,1,.93-1.32h0c.41-.78.69-1.64,1-2.46,3.61-6,5.87-12.56,8.35-19,1.84-4.79,4-9.3,8.6-12.16s9.37-6,14-8.95c1.44,3,.71,6.34,1.37,9.43C251.66,69.06,250.19,71.2,245.9,72.89Z"/><path d="M160,25.23l-.06,0A9.57,9.57,0,0,1,154,21.7a12,12,0,0,1-2.17-4.47c1.08-1.27,1.85-2.24,2.3-2.9a5.36,5.36,0,0,0,1.14-3c0-.22-.26-.56-.76-1s-.82-.62-1-.55a12.08,12.08,0,0,0-2,2.49V15q0,.42,0,1.65c0,.82,0,1.24,0,1.25,0,.18,0,.57,0,1.19s0,1,0,1.21c0,.91,0,1.58,0,2a.32.32,0,0,0,.21.29l.72.42c.18.1.25.2.2.29a2.23,2.23,0,0,1-.42.37l-1.44,1c-.52.35-1.16.83-1.94,1.47a.21.21,0,0,1-.19.09c-.08,0-.12-.1-.11-.25a4.77,4.77,0,0,1,.21-1.24,10.16,10.16,0,0,0,.26-1.2c0-.21,0-1.15.08-2.82,0-1.31,0-2.31,0-3s0-1.39,0-2c0-.28,0-1,0-2.27,0-.78,0-1.66-.06-2.61,0-.19-.09-.27-.26-.24l-.93.2c-.16,0-.23,0-.23-.2a.28.28,0,0,1,.17-.23c.33-.24.94-.71,1.84-1.43.41-.33.95-.79,1.62-1.37a4.19,4.19,0,0,1,.28-.33.22.22,0,0,1,.2-.09c.1,0,.13.1.12.27-.05.81-.11,1.89-.19,3.22q.76-1.08,2.07-2.61a.79.79,0,0,1,.7-.24,10.08,10.08,0,0,1,1.9,1c.83.54,1.43,1,1.8,1.25s.52.47.52.56a2.83,2.83,0,0,1-.34.88,14,14,0,0,1-2,2.9A18.33,18.33,0,0,1,153.6,17l2.54-.71a4.21,4.21,0,0,0,0,.62,11.17,11.17,0,0,0,1.19,4.61A10.22,10.22,0,0,0,160,25.23Z"/><path d="M164.84,18.73a2.45,2.45,0,0,1-.34.31c-.23.18-.55.46-1,.86-.08.08-.19.21-.33.38a.84.84,0,0,1-.79.28,1.17,1.17,0,0,1-.33-.1.91.91,0,0,1-.17-.31c0-.07-.07-.17-.11-.29l-.43.3a3.87,3.87,0,0,0-.37.28,1.63,1.63,0,0,1-.32.19,1.5,1.5,0,0,1-.33,0q-.36,0-.45-.15a2.1,2.1,0,0,1-.16-.36c-.1-.26-.24-.64-.41-1.15-.1-.3-.24-.74-.41-1.29a4.75,4.75,0,0,1-.13-.51.94.94,0,0,1,0-.41,2.21,2.21,0,0,1,.62-.78,4.39,4.39,0,0,1,.84-.57,4.05,4.05,0,0,1,.68-.29l.46-.15a1.24,1.24,0,0,1,.38.09.18.18,0,0,1-.07.19,4.73,4.73,0,0,0-.93.83c0,.26,0,.44,0,.55s.06.37.13.71a6.57,6.57,0,0,0,.21.76c.12.38.25.77.4,1.17a1.55,1.55,0,0,0,.39-.25q0-.53.12-1.8c0-.49,0-1.12,0-1.9,0-.4,0-1-.05-1.79,0-.06,0-.34,0-.85,0-.15-.08-.2-.2-.15l-.47.22-.6.3a.78.78,0,0,0-.27.18.64.64,0,0,0-.14.38s0,.22-.06.53-.09.27-.22.08a5.66,5.66,0,0,1-.3-.51c-.07-.11-.16-.29-.29-.52,0,0-.11-.27-.34-.79a.32.32,0,0,1,0-.3l.29-.22c.13-.08.67-.4,1.65-1l.38-.19c.08,0,.18,0,.3.11l1,1.09q.4.45.9,1.05a2.1,2.1,0,0,1,.36.63,2.69,2.69,0,0,1,.1.65c0,.32,0,.73,0,1.22,0,.83,0,1.32,0,1.48,0,.39,0,1-.05,1.71a1.87,1.87,0,0,0,.38,0h.42Z"/><path d="M173.19,13.79a3.48,3.48,0,0,0-.9,1.84c0,.24,0,.63,0,1.18s0,.82,0,.94a12.75,12.75,0,0,1-.12,1.37c0,.17-.11.57-.27,1.19a2.59,2.59,0,0,1-.2.57,3.26,3.26,0,0,1-1.36.9c-.27.13-.59.27-1,.42-.17.07-.44.17-.8.29-.19.05-.5-.07-.92-.37a5.2,5.2,0,0,1-1.52-1.56,3.34,3.34,0,0,1-.35-1.7,5.2,5.2,0,0,1,.38-1.81,2.85,2.85,0,0,1,1.24-1.59v0H167a2,2,0,0,1-1.78-.81,2,2,0,0,1-.37-1.1c0-.56.18-.85.58-.88s.49.13.5.43a.5.5,0,0,1-.12.38.33.33,0,0,1-.35.12,1.45,1.45,0,0,0,.63.15,13.64,13.64,0,0,0,2.91-.59,3.23,3.23,0,0,1,.74-.14q.3,0,.3.12a.38.38,0,0,1-.06.17c-.29.51-.68,1.23-1.18,2.16a9.09,9.09,0,0,0-.71,2.17,7.49,7.49,0,0,0-.07,1.87,4.81,4.81,0,0,0,.17,1,1.62,1.62,0,0,0,.37.69c.11.12.2.15.29.11a2,2,0,0,0,1-1.39,6.51,6.51,0,0,0,.21-1.54c0-.11.06-.73.15-1.85a14.81,14.81,0,0,1,.26-1.87c.17-.79.43-1.26.77-1.4a6.06,6.06,0,0,1,1.51.18c.33.07.49.16.49.26A.12.12,0,0,1,173.19,13.79Z"/><path d="M179.55,16.07a.44.44,0,0,1-.27.17l-1.63.55c-.78.33-1.13.68-1,1.06q.15-.23.42,0c.19.12.22.29.09.52s-.39.29-.7.08a1.29,1.29,0,0,1-.6-1.12,2,2,0,0,1,1.35-2.09c-.19-.45-.46-1-.81-1.69-.05-.08-.11-.09-.19,0a.42.42,0,0,0-.13.16,1.75,1.75,0,0,0-.18.56c0,.11-.05.32-.08.65,0,.54,0,1.34,0,2.41,0,.54,0,1,0,1.52,0,.19,0,.53,0,1a.9.9,0,0,0,.11.34,1.4,1.4,0,0,0,.27.33,2,2,0,0,0,.77.33c.21.07.35.06.39,0a5.58,5.58,0,0,0,.49-1.18c.06-.19.13-.46.22-.83q0-.23.12-.15a1.64,1.64,0,0,1,.2.25l.27.36a2.88,2.88,0,0,0,.23.34c.08.1.1.18.07.23l-.45.61L178,21l-.4.49a.39.39,0,0,1-.3.17h-.46l-1.07,0c-.17,0-.55-.33-1.14-.91l-.61-.63a4.1,4.1,0,0,0-.26-.32.56.56,0,0,1-.13-.38s0-.12,0-.24,0-.2,0-.26V16c0-.43.11-.94.2-1.53a.63.63,0,0,1,.16-.31l1-.79.91-.7a.66.66,0,0,1,.32-.17.9.9,0,0,1,.33,0,9.29,9.29,0,0,1,.87.38c.26.12.61.3,1,.54a.48.48,0,0,1,.18.22c.26.63.56,1.35.88,2.14A.31.31,0,0,1,179.55,16.07Z"/><path d="M188,24.36l-.17.34c0,.07-.14.08-.3,0l-1.67-.61a1.64,1.64,0,0,1-.58-.35,1,1,0,0,1-.29-.68,11.76,11.76,0,0,1-.05-1.25c0-.26,0-.6,0-1s0-.82,0-1c0-.78,0-1.26,0-1.42,0-1.08,0-1.86-.07-2.36,0-.28-.05-.7-.09-1.24a.41.41,0,0,0-.32-.42.9.9,0,0,0-.56.13,5.87,5.87,0,0,0-.67.37v1.62c0,1.49.05,2.46.07,2.92a7.8,7.8,0,0,1-.15,2.14l-.23.88c-.07.23-.18.35-.34.37a.63.63,0,0,1-.48-.19l-1.61-1.29a.41.41,0,0,1-.14-.15s.07-.06.2-.07l.32,0a.34.34,0,0,0,.3-.38V16.76c0-.58,0-1.27,0-2a.51.51,0,0,0-.08-.33.35.35,0,0,0-.29,0l-.75.26c-.15,0-.22,0-.22-.08a.32.32,0,0,1,.16-.26l2.23-1.5a1.66,1.66,0,0,1,.5-.29.59.59,0,0,1,.27.08.38.38,0,0,1,.09.23l.1.71a14.12,14.12,0,0,1,1.33-.6.56.56,0,0,1,.49,0,4.32,4.32,0,0,1,.64.45c.39.33.67.59.85.77a.94.94,0,0,1,.24.51c.07.4.13.86.18,1.36s.08,1,.09,1.36,0,.84.06,1.4,0,1.22,0,1.93,0,1.27,0,2.05c0,.22,0,.52.06.91a1.21,1.21,0,0,0,.07.24.32.32,0,0,0,.32.23H188S188.06,24.27,188,24.36Z"/><path d="M194.16,14.06c-.39.27-.83.59-1.33,1a.54.54,0,0,1-.28.14s-.08-.09-.19-.27c-.2-.5-.43-1.1-.69-1.78-.1-.23-.21-.51-.34-.86-.22-.61-.39-.86-.51-.76a.58.58,0,0,0-.14.17,1.71,1.71,0,0,0-.15.55,9.81,9.81,0,0,0-.11,1c0,.06,0,.57,0,1.54,0,.19,0,.49,0,.88s0,1,0,1.52c0,.3,0,.74,0,1.33a.84.84,0,0,0,.1.33,1.35,1.35,0,0,0,.36.37c.12.1.25.19.38.28s.19.06.24,0a2.9,2.9,0,0,0,.15-.37c.07-.17.17-.42.29-.75l.37-1.21c0-.14.08-.19.12-.14l.18.26a5.93,5.93,0,0,1,.41.61,7.49,7.49,0,0,0,.45.72c.07.11.1.18.07.24l-.49.63a2.38,2.38,0,0,1-.4.45.9.9,0,0,1-.55.16l-.73,0h-.46l-.47,0a1.15,1.15,0,0,1-.49-.3,6.42,6.42,0,0,1-.62-.5l-.62-.63-.34-.33a.9.9,0,0,1-.1-.33,4,4,0,0,1,0-.65c0-.12,0-.32,0-.6s0-.5,0-.66V15c0-.32,0-.81,0-1.45a5.9,5.9,0,0,1,0-.65.73.73,0,0,1,.15-.33c.25-.21.61-.52,1.09-.91l.94-.75a.9.9,0,0,1,.32-.17.93.93,0,0,1,.33,0l.88.42.84.44a.46.46,0,0,1,.17.22c.07.17.2.52.4,1,.06.15.16.4.29.76.07.17.18.19.35.05C194.22,13.87,194.24,14,194.16,14.06Z"/><path d="M198.82,22.59c0,.06,0,.13-.17.2l-1.43.6a2.65,2.65,0,0,1-.61.22.67.67,0,0,1-.43-.14l-.26-.35L195.15,22l-.67.27a.44.44,0,0,1-.21,0s-.06,0-.08-.07a.27.27,0,0,1,.13-.31l.28-.17a.8.8,0,0,0,.2-.29,1.78,1.78,0,0,0,.08-.39c0-.18,0-.47.07-.85.06-.66.1-1.35.12-2.05.07-1.54.11-2.37.11-2.5,0-1,0-1.83,0-2.48V9.08c0-.25-.12-.36-.31-.32l-.49.08a.13.13,0,0,1-.18-.13.27.27,0,0,1,.1-.24l.8-.39c.2-.11.61-.31,1.24-.59.31-.17.69-.36,1.14-.56.19-.06.28,0,.28.19a.09.09,0,0,1,0,.09l-.31.3a.83.83,0,0,0-.14.45c0,.66,0,1.49.05,2.5,0,.12,0,.8,0,2.06,0,.79,0,1.75,0,2.9,0,.34,0,1.09-.07,2.23s-.1,2-.16,2.65a.72.72,0,0,1,0,.21.37.37,0,0,1-.14.1l-.49.26v0a.94.94,0,0,1,.56,0l.27.53c.2.39.38.71.52.95a.3.3,0,0,0,.34.12l.39,0A.26.26,0,0,1,198.82,22.59Z"/><path d="M204.42,18.73a2.45,2.45,0,0,1-.34.31c-.23.18-.55.46-1,.86-.08.08-.19.21-.33.38a.84.84,0,0,1-.79.28,1,1,0,0,1-.32-.1.76.76,0,0,1-.18-.31c0-.07-.07-.17-.11-.29l-.43.3a3.87,3.87,0,0,0-.37.28,1.63,1.63,0,0,1-.32.19,1.5,1.5,0,0,1-.33,0c-.24,0-.39-.06-.44-.15a1.52,1.52,0,0,1-.17-.36c-.1-.26-.24-.64-.41-1.15-.1-.3-.24-.74-.41-1.29a4.75,4.75,0,0,1-.13-.51.94.94,0,0,1,0-.41A2.21,2.21,0,0,1,199,16a4.39,4.39,0,0,1,.84-.57,4.05,4.05,0,0,1,.68-.29L201,15a1.24,1.24,0,0,1,.38.09.16.16,0,0,1-.07.19,5.07,5.07,0,0,0-.93.83c0,.26,0,.44,0,.55s.06.37.13.71a6.57,6.57,0,0,0,.21.76c.12.38.25.77.4,1.17a1.55,1.55,0,0,0,.39-.25q0-.53.12-1.8c0-.49,0-1.12,0-1.9,0-.4,0-1,0-1.79,0-.06,0-.34,0-.85,0-.15-.07-.2-.2-.15l-.47.22-.6.3a.78.78,0,0,0-.27.18.64.64,0,0,0-.14.38s0,.22-.06.53-.09.27-.22.08l-.3-.51c-.07-.11-.16-.29-.29-.52,0,0-.11-.27-.34-.79a.29.29,0,0,1,0-.3,2,2,0,0,1,.28-.22l1.65-1,.38-.19c.08,0,.18,0,.3.11l1,1.09q.41.45.9,1.05a2.1,2.1,0,0,1,.36.63,3.23,3.23,0,0,1,.11.65c0,.32,0,.73,0,1.22,0,.83,0,1.32,0,1.48,0,.39,0,1,0,1.71a1.87,1.87,0,0,0,.38,0h.42Z"/><path d="M217.06,13.26q0,.18-.33.18c-.13,0-.21.12-.25.35s0,.51-.09,1.19c-.06,1-.12,1.94-.17,2.91a10.35,10.35,0,0,1-.56,2.81,9.29,9.29,0,0,1-.43.88,8,8,0,0,1-.78.52,5.23,5.23,0,0,1-1.21.61,5.22,5.22,0,0,1-.7-.3c-.5-.23-.78-.35-.85-.37a5.09,5.09,0,0,0-1.07-.28,2.37,2.37,0,0,0-.52,0,9,9,0,0,1-2,.77,1.7,1.7,0,0,1-.82-.38,3.92,3.92,0,0,1-1.91-3.27,5.09,5.09,0,0,1,.62-2.28,5.2,5.2,0,0,1,1.49-1.91l0-.05a2.12,2.12,0,0,1-1.46.5,1.5,1.5,0,0,1-1.08-.44,1.46,1.46,0,0,1-.44-1.12c0-.64.25-1,.71-1a.46.46,0,0,1,.51.53c0,.36-.16.5-.48.44a2,2,0,0,0,.9.2,8.9,8.9,0,0,0,2.42-.58,6.77,6.77,0,0,1,1-.3c.17,0,.25,0,.25.16a.8.8,0,0,1-.15.36c-.56.91-.94,1.59-1.15,2a8,8,0,0,0-.81,3.36,3.7,3.7,0,0,0,.57,2.41c.08.1.15.14.18.14l.11,0c.71-.35,1.12-1.32,1.2-2.93,0-.71.09-1.32.15-1.85a10.42,10.42,0,0,1,.42-2.2,1.64,1.64,0,0,1,.62-.91,2.7,2.7,0,0,1,1.14-.17q.78,0,.78.15s-.05.1-.16.28a4.67,4.67,0,0,0-.59,1.87c-.06.49-.13,1.22-.21,2.2,0,.24,0,.66-.09,1.28s-.08,1-.08,1.3a3.17,3.17,0,0,0,0,.61c1.16-.22,1.85-.72,2.06-1.5a7,7,0,0,0,.26-1.51c.09-1.69.2-3,.33-3.95,0-.15.07-.37.12-.67a.61.61,0,0,1,.67-.43,1.89,1.89,0,0,1,.32,0l1.31.16C217,13.08,217.06,13.14,217.06,13.26Z"/></svg>