<svg id="Layer_1" data-name="Layer 1" xmlns="http://www.w3.org/2000/svg" xmlns:xlink="http://www.w3.org/1999/xlink" width="171.37" height="182" viewBox="0 0 171.37 182"><defs><style>.cls-1{fill:none;}.cls-2{fill:#2d7154;}.cls-3{fill:#d2cecd;}.cls-4{fill:#2b2924;}.cls-5{fill:url(#New_Pattern_Swatch_10);}.cls-6{fill:url(#New_Pattern_Swatch_10-3);}</style><pattern id="New_Pattern_Swatch_10" data-name="New Pattern Swatch 10" width="55" height="55" patternTransform="translate(-30.84 -27.45)" patternUnits="userSpaceOnUse" viewBox="0 0 55 55"><rect class="cls-1" width="55" height="55"/><rect class="cls-2" width="55" height="55"/><polygon class="cls-1" points="0 10.21 44.78 55 51.47 55 0 3.54 0 10.21"/><polygon class="cls-1" points="31.04 0 55 23.96 55 17.29 37.72 0 31.04 0"/><polygon class="cls-1" points="44.78 0 55 10.21 55 3.54 51.47 0 44.78 0"/><polygon class="cls-1" points="3.54 0 55 51.47 55 44.78 10.21 0 3.54 0"/><polygon class="cls-1" points="17.29 0 55 37.72 55 31.04 23.96 0 17.29 0"/><polygon class="cls-1" points="0 51.47 3.54 55 10.21 55 0 44.78 0 51.47"/><polygon class="cls-1" points="0 37.72 17.29 55 23.96 55 0 31.04 0 37.72"/><polygon class="cls-1" points="0 23.96 31.04 55 37.72 55 0 17.29 0 23.96"/><polygon class="cls-3" points="55 3.54 55 0 51.47 0 55 3.54"/><polygon class="cls-3" points="37.72 0 55 17.29 55 10.21 44.78 0 37.72 0"/><polygon class="cls-3" points="23.96 0 55 31.04 55 23.96 31.04 0 23.96 0"/><polygon class="cls-3" points="10.21 0 55 44.78 55 37.72 17.29 0 10.21 0"/><polygon class="cls-3" points="0 0 0 3.54 51.47 55 55 55 55 51.47 3.54 0 0 0"/><polygon class="cls-3" points="0 17.29 37.72 55 44.78 55 0 10.21 0 17.29"/><polygon class="cls-3" points="0 31.04 23.96 55 31.04 55 0 23.96 0 31.04"/><polygon class="cls-3" points="0 44.78 10.21 55 17.29 55 0 37.72 0 44.78"/><polygon class="cls-3" points="0 55 3.54 55 0 51.47 0 55"/></pattern><pattern id="New_Pattern_Swatch_10-3" data-name="New Pattern Swatch 10" width="55" height="55" patternTransform="translate(-31.17 24.7) scale(1 1.03)" patternUnits="userSpaceOnUse" viewBox="0 0 55 55"><rect class="cls-1" width="55" height="55"/><rect class="cls-2" width="55" height="55"/><polygon class="cls-1" points="0 10.21 44.78 55 51.47 55 0 3.54 0 10.21"/><polygon class="cls-1" points="31.04 0 55 23.96 55 17.29 37.72 0 31.04 0"/><polygon class="cls-1" points="44.78 0 55 10.21 55 3.54 51.47 0 44.78 0"/><polygon class="cls-1" points="3.54 0 55 51.47 55 44.78 10.21 0 3.54 0"/><polygon class="cls-1" points="17.29 0 55 37.72 55 31.04 23.96 0 17.29 0"/><polygon class="cls-1" points="0 51.47 3.54 55 10.21 55 0 44.78 0 51.47"/><polygon class="cls-1" points="0 37.72 17.29 55 23.96 55 0 31.04 0 37.72"/><polygon class="cls-1" points="0 23.96 31.04 55 37.72 55 0 17.29 0 23.96"/><polygon class="cls-3" points="55 3.54 55 0 51.47 0 55 3.54"/><polygon class="cls-3" points="37.72 0 55 17.29 55 10.21 44.78 0 37.72 0"/><polygon class="cls-3" points="23.96 0 55 31.04 55 23.96 31.04 0 23.96 0"/><polygon class="cls-3" points="10.21 0 55 44.78 55 37.72 17.29 0 10.21 0"/><polygon class="cls-3" points="0 0 0 3.54 51.47 55 55 55 55 51.47 3.54 0 0 0"/><polygon class="cls-3" points="0 17.29 37.72 55 44.78 55 0 10.21 0 17.29"/><polygon class="cls-3" points="0 31.04 23.96 55 31.04 55 0 23.96 0 31.04"/><polygon class="cls-3" points="0 44.78 10.21 55 17.29 55 0 37.72 0 44.78"/><polygon class="cls-3" points="0 55 3.54 55 0 51.47 0 55"/></pattern></defs><path class="cls-3" d="M93.24,118.31c-1.89,1.14-4,.31-6.06.83-12.05,3.06-21.15,9.93-26.84,21-2.59,5-2.6,10.69-2.43,16.23,0,1.07.9,2.11,1.38,3.16-4.24-1-7.67-3.62-11.3-5.8-9.4-5.62-17.56-12.58-22.9-22.35-1.41-2.57-3.16-5-3.42-8.1,7.06-.58,9.79-4.41,8.2-11.44-1.06-4.69-2-9.4-3.08-14.53H85.26c1.6.5,3.23,0,4.84.11,2.63,1.23,4.47,3.43,6.3,5.52A118.69,118.69,0,0,0,111,117.06c-.61,2.13-1.72,3.28-4.16,2.48-1.75-.58-3.74-.3-5.36-1.41-5.08-5.41-10.17-10.81-16.11-16.1,0,1.79.27,3.13-.05,4.3-1,3.56,1.32,5.45,3.53,7.35C90.51,115.07,92.41,116.18,93.24,118.31Z"/><path class="cls-3" d="M85.31,96c0-19,.12-38,0-57,0-2.35.63-2.91,2.78-2.9,14.52.06,29.05,0,43.57,0,1,0,2-.08,2.66.92.94,1.38,2.08,2.45-.86,3.1-4.95,1.1-7.93,7.75-5.91,12.41a1.8,1.8,0,0,0,.95,1c3,1.36,9.35,0,11.19-2.86,1.18-1.82,1.91-1.48,3-.26L148,56.16c-7.71-.15-15.14,2.31-22.72,2.64-8.21.36-13.87,4.22-18.4,10.37A35.4,35.4,0,0,1,98.08,78c-4.69,3.15-4.69,4.35-2.09,9.37.27.52.35.89-.08,1.27C92.69,91.57,90.16,95.48,85.31,96Z"/><path class="cls-4" d="M85.31,96c4.85-.55,7.38-4.46,10.6-7.36.43-.38.35-.75.08-1.27-2.6-5-2.6-6.22,2.09-9.37a35.4,35.4,0,0,0,8.79-8.86c4.53-6.15,10.19-10,18.4-10.37,7.58-.33,15-2.79,22.72-2.64a63.17,63.17,0,0,1,7.27,7c2.27,2.38.43,4.93-.94,6.29A17.63,17.63,0,0,0,149.79,77c-3.43-3-11.4-2-13.84,1.63-1.89,2.84-4.3,4.77-7.9,5.18a39,39,0,0,0-9.2,2.46c-5.16,2-10.36,4-16,3.58-4.36-.3-10.52,3.27-12.4,7.52a.25.25,0,0,0-.34,0c-1.61-.09-3.24.39-4.84-.11Z"/><path class="cls-3" d="M100.6,98.09a16.24,16.24,0,0,1,4.88,4.07c3.24,3.73,7.2,6.77,10.2,10.73,2.36-.71,3.66-2.83,5.53-4.19A137.87,137.87,0,0,0,111.1,98.09l-.17-.16c3.42-1,6.25-1,8.82.16s4.93,3.34,7.36,6.82c2.49-.28,4.26-2.27,6.64-2.79-.11-2-2-2.53-3.26-4a4.46,4.46,0,0,1-.46-.7c3.08,0,5.9,0,8.72,0a.9.9,0,0,1,.8.67,2.24,2.24,0,0,1,.1.37c1.21.56,2.35-.1,3.52-.2l.3-.17a2.54,2.54,0,0,0,.34-.23,2.47,2.47,0,0,0,.27-.21,3,3,0,0,0,.31-.31,1.29,1.29,0,0,0,.19-.21,5.49,5.49,0,0,0,.72-1.24,7.63,7.63,0,0,0,.26-.72c.16-.5.29-1,.42-1.53.06-.26.13-.52.2-.77,1.45-5.23,3.93-10.23,3.61-15.87-3.43-3-11.4-2-13.84,1.63-1.89,2.84-4.3,4.77-7.9,5.18a38.92,38.92,0,0,0-9.19,2.46c-5.17,1.94-10.37,4-16,3.57-4.36-.3-10.52,3.28-12.4,7.52Z"/><path class="cls-3" d="M39.46,41.49c2.8.06,3.91,2.13,5.84,2.52.55.11.4.8-.11,1.15-.85.58-.52,1.16.05,1.68a1.77,1.77,0,0,0,1.95.29,1.29,1.29,0,0,0,.9-1.65c-.31-1-.67-2.21.83-2.23,1.24,0,1.38,1.06,1.1,2.2-.23.93.41,1.49,1.26,1.72a2.61,2.61,0,0,0,2.55-.35c.72-.67.39-1.29-.19-2-1.46-1.85,1.18-2.56,1.29-4A1,1,0,0,1,56.06,40c.76.12,2.72,4.11,2.21,4.71s-1,1.4-.3,2.08a2.36,2.36,0,0,0,2.53.37c.9-.31,1.68-.88,1.31-2s-.32-1.94.84-2,1.06,1,1.12,1.9c.07,1.13.8,2.24,2,1.9s1.18-1.35.2-2.22c-.49-.43,0-.75.32-.79,2-.28,3.18-2.24,5.73-2.7-2.71,3.63-4.22,7.14-3.22,11.31.26,1.09-.81.89-1.43.89-7.55,0-15.11,0-22.66.05-1.79,0-2-1.06-1.85-2.31C43.22,47.64,42.72,44.34,39.46,41.49Z"/><path class="cls-3" d="M42.5,91.81c1-4.58.34-8.48-2.79-12.19,2.54.1,3.5,2.43,5.5,2.66.57.06.51.77,0,1.13-.82.61-.55,1.19,0,1.72a1.67,1.67,0,0,0,1.94.28,1.42,1.42,0,0,0,.95-1.66c-.2-.92-.42-2,.82-2.1,1.6-.11,1.15,1.17,1.07,2.14s.69,1.59,1.6,1.83a2.18,2.18,0,0,0,2.22-.54c.83-.89-.09-1.41-.43-2.2-.79-1.86,1.06-3.23,2-4.22,1.14-1.15,1.4.87,2,1.62.86,1.12,2.21,2.11.31,3.51-.37.27-.17,1,.26,1.32a2.72,2.72,0,0,0,2.56.32c.81-.25,1.52-.75,1.28-1.71s-.58-2.19.91-2.21,1.24,1.2,1,2.22a1.29,1.29,0,0,0,.86,1.67,1.81,1.81,0,0,0,2-.29c.54-.51.91-1.09.1-1.73-.45-.35-.68-1-.06-1.12,1.84-.21,2.75-2.21,5.07-2.47-2.19,3.66-3.88,7.08-2.8,11.14.21.81-.63.87-1.22.87Z"/><path class="cls-3" d="M40.63,60.67c1.72.06,2.43,2,4.13,2.2.61.07.53.75.09,1.13-.94.81-.66,1.45.11,2.2a1.85,1.85,0,0,0,2.42.37c.95-.54.88-1.49.63-2.37-.19-.64-.85-1.32.36-1.56s2-.08,1.3,1.52c-.62,1.36.47,2.1,1.43,2.5a2.07,2.07,0,0,0,2.69-.5c.8-1.06.14-1.57-.48-2.48C52,61.81,54,60.46,55,59.52c1.29-1.24,1.81.41,2.38,1.48.68,1.27,2.12,2.2.39,3.86-.62.59.35,1.42,1.24,1.49,1.94.14,3.86-.69,5.86.13A1.86,1.86,0,0,0,67.09,65c.3-2.82,1.17-3.71,4.87-4.5-2.68,3.43-4,7-3.13,11.12.18.85-.5.94-1.12.94-8,0-15.91,0-23.86,0-.67,0-1.28-.14-1-1.28.93-3.83-.38-7.21-2.49-10.36Z"/><path class="cls-3" d="M125.36,142c.88-2.51,1.82-5,4.72-5.86a13.94,13.94,0,0,0,4.7,5.16c1.63,1,2.21,2.14.32,3.84-3.36,3-3.23,3.12-6.46-.16C127.6,143.94,126.45,143,125.36,142Z"/><path class="cls-4" d="M106.63,32.28c-1.21.54-1.58-.74-2.41-.53s-2.13,1.81-2.55,0A59.27,59.27,0,0,1,102,19.37c.22-.8,1.64-.79,2.66-.3s1.9,8.42,1.31,9.56C105.23,30.06,105.93,31.05,106.63,32.28Z"/><path class="cls-4" d="M97.69,32.22c-1.68.48-3.31,1.13-4.17-.16-1-1.51-.69-10.51-.24-12.18.35-1.3,2-1.55,3-1.08,2,.88-1,9.28.14,10.39C93.3,31.29,96.16,31.46,97.69,32.22Z"/><path class="cls-4" d="M117.86,29.14c-.24,1.13-.42,1.95-.71,3.28-1.27-2.18-.64-11-.7-12.81,1.91-.27,2.23,8.92,3.7,9.17.67-.38.31-8,.42-8.58s.18-1.1.77-1.12c.8,0,.82.7.89,1.28,0,.29.07,7.6,0,7.89-.17,1.22.67,3-.54,3.55S120,30.47,119,29.85C118.77,29.69,118.51,29.54,117.86,29.14Z"/><path class="cls-3" d="M125.19,152.72c-1.51-.2-4,.9-4.33-.28-.54-1.68.51-3.77,2-5.23a22.9,22.9,0,0,0,2.63,2.67C127.09,151.1,126.27,151.88,125.19,152.72Z"/><path class="cls-4" d="M84.08,32.72c0-2,0-10.68,0-12.38,0-.75.42-1.08,1.14-.53.23.18.5.31.73.48,1,.79,1.7-1.57,2.76-.31.31.37,0,11-.4,12.42-1.36-.29,0-2.54-1.76-2.49S85.71,31.93,84.08,32.72Z"/><path class="cls-4" d="M51.7,20.48c0,1.12,1.11,8.28,1.68,8.91s.94,1.48.24,2.35a2.15,2.15,0,0,1-2.6.84c-.32-.13-.54-.51-.81-.78,2.75-1.76-.39-2.46-.66-3.69-.23-1.06.4-8.68,1.18-9.16a1.84,1.84,0,0,1,2.2.12c.33.26.62.69.26,1a3.35,3.35,0,0,1-1.35.31,3.79,3.79,0,0,1-.34-.2Z"/><path class="cls-4" d="M79.78,19.75c-2.75.71-1.33,10.16-2,11.86a.87.87,0,0,1-.68.42c-.59-.06-.72-.56-.77-1.08-.13-1.47.53-10.25-1.56-11a.57.57,0,0,1-.18-.51c.75-1.43,2.1-.63,3.18-.75C78.5,18.63,79.44,18.4,79.78,19.75Z"/><path class="cls-3" d="M143.19,130.77a6.22,6.22,0,0,1-.88-.16l-6.12-2c1-1.19,1.74-2.42,3.37-2.56C140.31,128,142.75,128.6,143.19,130.77Z"/><path class="cls-4" d="M57.83,29.05c0-.5,0-8,0-8.49,0-.71.13-1.58,1-1.54s.67,8,.69,8.66c.05,1.63-.43,3.53,2.18,3.67.18,0,.46.43.48.67,0,.46-.35.58-.76.7C58.88,33.46,57.8,32.37,57.83,29.05Z"/><path class="cls-4" d="M67.86,32c-.43-2.1-1.9-10.6-3-13.36,2.07,1.9,3.56,2.74,5.13.2C70.08,21.61,68.66,30.14,67.86,32Z"/><path class="cls-2" d="M162.88,61.7c-2.57-1.87-5.07-3.85-7.5-5.9C149.73,51,144.58,45.89,142,38.67c-2.14-5.92-6.5-10.21-11.6-13.6C121,18.83,110.16,9.59,99.31,7.82A26.76,26.76,0,0,1,87,2.59C85.6,1.5,84.74,1.38,83.5,2.5A21.7,21.7,0,0,1,72.89,7.44c-5.75,1.13-11.49,2.38-17.12,4C43.31,15,32.88,28.07,28.15,41.1a16.27,16.27,0,0,1-2.37,4.11A78.22,78.22,0,0,1,8.61,61.58c-1.43,1-1.79,2-1.12,3.45a34.34,34.34,0,0,0,5.84,9.56A6.2,6.2,0,0,1,15,78a98.87,98.87,0,0,0,3,12.45c2.22,7.57,5.2,14.93,6.23,22.83.43,3.32-.58,4.52-4,4.26-2.42-.18-4.51-1.45-7.11-2.2,2.75,12.2,7.36,23,16.3,31.59,7.82,7.56,16.91,13.14,26.48,18.11s20.19,8,28.78,14.87c.84.68,1.58.36,2.63-.12,3-1.37,5-4.14,8-5.55,7.62-3.58,15.34-6.94,22.81-10.83,2.57-1.33,5.11-2.73,7.61-4.22,8.49-5.07,15.78-11,21.28-18.4a54.35,54.35,0,0,0,9.57-20.93c.93-4.13,1-4.09-3.16-3a18.93,18.93,0,0,1-2.33.49c-2.18.29-3.57-.27-4.08-1.64a4.94,4.94,0,0,1-.14-2.63c0-.26.09-.53.14-.79.36-2.08.85-4.15,1.4-6.19,2.41-8.81,5.78-17.35,7.58-26.35.3-1.51.09-3.25,1.36-4.49,2.92-2.84,4.24-6.69,6.34-10C164.62,63.68,164.28,62.72,162.88,61.7Zm-139,29.37c-1.45-4.61-3.37-9.12-3.09-14.13a17.57,17.57,0,0,0-4.53-7.56c-1.37-1.36-3.22-3.91-.94-6.3a62.28,62.28,0,0,1,7.27-7l1.29-1.39ZM116.4,19.54c1.92-.27,2.23,8.92,3.7,9.18.68-.38.31-8,.43-8.59s.17-1.1.76-1.11c.8,0,.82.69.9,1.27,0,.3.06,7.6,0,7.9-.18,1.22.66,3-.55,3.55s-1.73-1.33-2.7-1.95c-.24-.16-.5-.31-1.15-.71-.24,1.13-.42,2-.7,3.27C115.83,30.18,116.46,21.37,116.4,19.54Zm-4.85,0c.58,1.77.76,10.53-.2,12.23C110.91,30,110.55,21.23,111.55,19.52ZM102,19.31c.22-.8,1.64-.8,2.66-.3s1.9,8.42,1.31,9.56c-.75,1.43,0,2.42.65,3.65-1.21.54-1.58-.74-2.41-.54s-2.13,1.82-2.55,0A59.87,59.87,0,0,1,102,19.31Zm-8.73.51c.35-1.3,2-1.55,3-1.09,2,.89-1,9.28.14,10.4-3.16,2.1-.29,2.26,1.23,3-1.68.48-3.31,1.13-4.17-.16C92.47,30.49,92.78,21.49,93.23,19.82ZM84,20.28c0-.75.42-1.08,1.14-.53.23.18.5.31.73.48,1,.79,1.71-1.57,2.76-.31.32.37,0,11-.4,12.42-1.36-.3,0-2.54-1.76-2.49s-.85,2-2.48,2.81C84,30.67,84,22,84,20.28Zm-9.47-.88c.76-1.43,2.1-.63,3.18-.75.7-.08,1.64-.31,2,1-2.75.71-1.33,10.16-2,11.85a.83.83,0,0,1-.68.42c-.59-.05-.72-.55-.77-1.07-.13-1.47.53-10.26-1.55-11A.55.55,0,0,1,74.57,19.4Zm-4.67-.62c.14,2.77-1.28,11.3-2.09,13.16-.43-2.1-1.9-10.6-3-13.36C66.84,20.47,68.33,21.32,69.9,18.78ZM57.78,20.5c0-.71.13-1.59,1-1.54s.67,1,.69,1.65c0,1.64-.42,10.54,2.18,10.68.18,0,.47.42.48.67,0,.46-.35.58-.76.7-2.53.73-3.61-.36-3.58-3.68C57.78,28.49,57.76,21,57.78,20.5Zm-7.1-1.62a1.84,1.84,0,0,1,2.2.13c.34.25.62.68.26,1a3.48,3.48,0,0,1-1.35.31l-.14.14c0,1.11,1.12,8.28,1.68,8.9s.94,1.49.24,2.35a2.13,2.13,0,0,1-2.59.84c-.33-.12-.55-.51-.82-.77,2.75-1.76-.39-2.47-.66-3.69C49.27,27,49.91,19.37,50.68,18.88ZM45.26,44c.54.11.39.79-.12,1.14-.85.59-.52,1.17,0,1.69a1.77,1.77,0,0,0,2,.28A1.27,1.27,0,0,0,48,45.42c-.31-1-.67-2.21.83-2.24,1.24,0,1.39,1.06,1.1,2.21-.22.93.41,1.49,1.26,1.71a2.58,2.58,0,0,0,2.55-.34c.72-.67.4-1.29-.19-2-1.45-1.85,1.19-2.56,1.29-4A.94.94,0,0,1,56,40c.76.12,2.72,4.11,2.21,4.7s-.95,1.4-.3,2.08a2.35,2.35,0,0,0,2.53.38c.9-.31,1.68-.88,1.31-2s-.32-1.94.85-2,1.06,1,1.11,1.9c.07,1.12.8,2.24,2,1.9s1.17-1.35.19-2.22c-.49-.43,0-.76.32-.8,2-.27,3.19-2.24,5.73-2.69-2.7,3.63-4.21,7.13-3.22,11.3.26,1.1-.81.9-1.43.9-7.55,0-15.1,0-22.66.05-1.79,0-2-1.06-1.85-2.31.32-3.57-.18-6.87-3.44-9.72C42.21,41.49,43.32,43.55,45.26,44ZM68.83,90.87c.21.81-.63.87-1.22.87H42.45c1-4.58.34-8.48-2.79-12.2,2.55.11,3.5,2.43,5.5,2.66.57.07.51.77,0,1.14-.81.61-.55,1.19,0,1.72a1.67,1.67,0,0,0,1.94.28,1.43,1.43,0,0,0,1-1.66c-.21-.93-.43-2,.81-2.1,1.6-.11,1.15,1.16,1.07,2.13-.1,1.13.69,1.6,1.6,1.84A2.2,2.2,0,0,0,53.81,85c.83-.9-.09-1.41-.43-2.2-.79-1.87,1.06-3.24,2-4.23,1.13-1.14,1.39.88,2,1.63.86,1.12,2.21,2.11.31,3.51-.36.27-.17,1,.26,1.32a2.69,2.69,0,0,0,2.56.31c.81-.24,1.52-.74,1.28-1.7s-.58-2.19.91-2.21,1.24,1.19,1,2.22a1.29,1.29,0,0,0,.86,1.67,1.83,1.83,0,0,0,2-.29c.55-.51.91-1.1.1-1.73-.45-.35-.68-1-.06-1.12C68.4,82,69.31,80,71.64,79.73,69.44,83.39,67.75,86.81,68.83,90.87Zm0-19.27c.18.84-.5.93-1.12.94-8,0-15.91,0-23.86,0-.67,0-1.28-.14-1-1.27.92-3.84-.39-7.21-2.49-10.36-.11-.11-.32-.29-.32-.33.21-.3.41-.17.59.06A2.58,2.58,0,0,1,42,61.1a5.19,5.19,0,0,1,.46.36,4.5,4.5,0,0,0,2.29,1.34c.61.08.53.76.09,1.14-.94.81-.66,1.45.12,2.19a1.84,1.84,0,0,0,2.41.38c1-.55.89-1.49.63-2.38-.19-.63-.84-1.32.36-1.55s2-.08,1.3,1.52c-.62,1.36.47,2.09,1.43,2.5a2.07,2.07,0,0,0,2.69-.51c.8-1.06.14-1.57-.48-2.47C52,61.75,54,60.4,54.93,59.46c1.29-1.25,1.81.41,2.38,1.48.68,1.27,2.12,2.2.39,3.85-.62.6.35,1.43,1.24,1.5,1.94.14,3.86-.69,5.86.13A1.88,1.88,0,0,0,67.05,65c.29-2.82,1.16-3.72,4.86-4.5C69.23,63.91,67.92,67.48,68.78,71.6Zm79,53.58a1.39,1.39,0,0,0,.41.12A1.14,1.14,0,0,1,147.75,125.18Zm-.74-.71a2.53,2.53,0,0,1-.13-.22l.18.28Zm7.26-55.09a17.57,17.57,0,0,0-4.53,7.56c.32,5.64-2.16,10.64-3.61,15.87a24.12,24.12,0,0,1-.89,3h0a1.11,1.11,0,0,1-.07.16,4.56,4.56,0,0,1-.78,1.21,4,4,0,0,1-1,.8l-.3.17c.67,4.19-1.25,8-1.88,12s-1.3,7.85,1.95,11.13c.75.75.06,1.23-.54,1.62a9,9,0,0,0-3.12,3.07l0,0c.65,1.66,2.56,2.34,3.34,3.89a3,3,0,0,1,.29.81c2.49.17,3.21.6,1.58,3.31a5.37,5.37,0,0,1-7.06,2.82,21.4,21.4,0,0,0-7.14-.78l-.49,0,.1.17a13.81,13.81,0,0,0,4.6,5c1.64,1,2.21,2.14.32,3.84-3.36,3-3.23,3.13-6.46-.15-1-1.05-2.19-2-3.28-3-1.07,1.63-2.33,3.16-2.51,5.21a22.81,22.81,0,0,0,2.62,2.67c1.54,1.15.88,1.92-.12,2.71l-.16.13a125.9,125.9,0,0,1-11.79,6.6c-.9.47-1.82.92-2.73,1.38-2,1-4,1.89-6.1,2.75-5.26,2.21-10.6,4.28-15.32,7.54a6.09,6.09,0,0,1-3.79,1.46A6.67,6.67,0,0,1,82,170.88a61.52,61.52,0,0,0-12.31-6.28c-2.33-1-4.68-1.91-7-3a11.26,11.26,0,0,1-1-.53,15.36,15.36,0,0,1-2.41-1.69c-4.23-1-7.67-3.63-11.3-5.8C38.54,148,30.38,141,25,131.27c-1.41-2.57-3.15-5-3.42-8.1,7.06-.58,9.79-4.42,8.2-11.45-.66-2.93-1.27-5.86-1.9-8.91-.21-1-.41-2-.62-3s-.36-1.74-.55-2.63H85.21c0-.32,0-.63.05-1,0-.09,0-.19,0-.28,0-19,.11-38,0-57v-.05c0-2.3.65-2.85,2.78-2.84,14.53.06,29.05,0,43.57,0,1,0,2-.09,2.67.91.93,1.38,2.07,2.45-.87,3.11-4.95,1.1-7.93,7.75-5.91,12.4a1.79,1.79,0,0,0,1,1c3,1.35,9.35,0,11.19-2.87,1.18-1.81,1.91-1.47,3-.25l5.25,5.65a62.28,62.28,0,0,1,7.27,7C157.49,65.47,155.64,68,154.27,69.38Z"/><path class="cls-4" d="M111.59,19.59c.59,1.77.76,10.52-.19,12.23C111,30.05,110.6,21.29,111.59,19.59Z"/><path class="cls-3" d="M40.35,60.94c-.11-.11-.33-.3-.31-.33.21-.3.41-.16.59.06Z"/><path class="cls-3" d="M90.44,97.36a.27.27,0,0,0-.34,0,10.43,10.43,0,0,1,1.32.73,25.71,25.71,0,0,1,5,4.79A118.05,118.05,0,0,0,111,117.06a13,13,0,0,0,4.65-4.17c-3-4-7-7-10.2-10.73a16.24,16.24,0,0,0-4.88-4.07Z"/><path class="cls-3" d="M93.24,118.31c-.83-2.13-2.73-3.24-4.36-4.63-2.21-1.9-4.5-3.79-3.53-7.35.32-1.17.05-2.51.05-4.3,5.94,5.29,11,10.69,16.11,16.1C98.79,119.79,96,117.75,93.24,118.31Z"/><path class="cls-3" d="M115.5,97.23a17.07,17.07,0,0,0-4.57.7l.17.16a137.87,137.87,0,0,1,10.11,10.61c2.18-.94,4.35-1.88,5.9-3.79-.23-.33-.46-.65-.69-1s-.45-.6-.67-.88-.33-.41-.5-.6l-.37-.44,0,0c-.16-.18-.32-.36-.48-.52s-.28-.3-.43-.44l-.45-.44a10.38,10.38,0,0,0-.82-.71,3.52,3.52,0,0,0-.39-.31,2.88,2.88,0,0,0-.35-.26,10.76,10.76,0,0,0-1.22-.77,8.49,8.49,0,0,0-1-.47,3.59,3.59,0,0,0-.51-.2,7.32,7.32,0,0,0-.75-.25,3,3,0,0,0-.52-.13.27.27,0,0,0-.12,0,3.86,3.86,0,0,0-.49-.09l-.21,0a2.06,2.06,0,0,0-.26,0,5.51,5.51,0,0,0-.57-.06Z"/><path class="cls-2" d="M94.66,150.13a3.34,3.34,0,0,1-1.73,3.19l-.12.05a3.78,3.78,0,0,1-2.29.11,5.43,5.43,0,0,1-2.29-1.22.88.88,0,0,0,0-.15c-.94-2.92-3.91-5.24-2.56-8.82a2.06,2.06,0,0,1,.23-.47h0a2.82,2.82,0,0,1,1.1-.93h0a8.41,8.41,0,0,0,1.68-1c.57,2.9,3.26,4,5.07,5.78,1,1,1-.73,1.63-.84C95.76,147.38,94.72,148.65,94.66,150.13Z"/><path class="cls-3" d="M95.35,145.86c-.65.11-.59,1.87-1.63.84-1.81-1.81-4.5-2.88-5.08-5.79,2.37-1,4.42-3,7.34-2.23a1.3,1.3,0,0,0,.9,1.11C97.37,142.07,95.12,143.65,95.35,145.86Z"/><path class="cls-3" d="M88.23,152.26a13,13,0,0,1-3.66.14,2.5,2.5,0,0,1-1.7-1.17,4,4,0,0,1-.38-.83,5.43,5.43,0,0,1,2.31-6.7s0,0,.06,0a6,6,0,0,1,.76-.37c-1.35,3.58,1.62,5.9,2.56,8.82A.88.88,0,0,1,88.23,152.26Z"/><path class="cls-3" d="M133.75,102.13c-.12-2.27-2.61-2.67-3.73-4.73,3.09,0,5.91,0,8.73,0,.52,0,.8.52.9,1,0,1.61-1.35,1.69-2.42,2.13S134.91,101.62,133.75,102.13Z"/><path class="cls-2" d="M96.88,139.79a1.3,1.3,0,0,1-.9-1.11c.21-1.31,1.22-1.74,2-.92C98.85,138.73,97.82,139.41,96.88,139.79Z"/><path class="cls-2" d="M120.91,17.58c-6.34-.29-12.71-.77-19-.79-5.94,0-11.74,1.35-17.65,1.4-5.71.06-11.27-1.77-17-2-5.3-.18-12,1.94-17,.08C44.2,14,41.59,30.71,47.57,33c5.16,1.93,10.73.42,16.08.28C70,33.07,76,34.86,82.36,35.16S94.7,33.85,100.9,33.8c6.66-.07,13.36.48,20,.78C127.35,34.88,127.33,17.87,120.91,17.58Z"/><path class="cls-5" d="M82.49,36.13q-16.35.06-32.7,0H38.92c-1,0-2-.09-2.67.91-.54.8-1.14,1.5-1,2.07a35.09,35.09,0,0,1-7,10.92,4.77,4.77,0,0,0-.45.45l-4,4.26L22.6,56.16a62.28,62.28,0,0,0-7.27,7c-2.28,2.39-.43,4.94.94,6.3A17.57,17.57,0,0,1,20.8,77c-.28,5,1.64,9.52,3.09,14.13.19.58.36,1.16.52,1.74.42,1.54.66,3.19,1.72,4.39H85.32V36.13Z"/><path class="cls-1" d="M145.21,97.23c.08-.4.16-.79.24-1.2H87.5c-1.59.5-3.2,0-4.8.1-2.61,1.26-4.43,3.51-6.25,5.63q-4.15,4.86-8.71,9.25c6.51,2.88,12.19,5.56,11.84,6.48,1.68,1.05,3.57.48,5.39.73v-21Z"/><path class="cls-1" d="M146.39,121.57v10.56c.26-.45.51-.9.76-1.36,1.39-2.62,3.12-5.14,3.39-8.26A13.65,13.65,0,0,1,146.39,121.57Z"/><path class="cls-1" d="M53.9,108c-.75.58-4.11,10.72-4.11,9-3.22,3,5,1.11,12.34-.27-.06-.19-.13-.37-.19-.57,2-1.66,3.92-3.41,5.8-5.21-5.75-2.54-12.12-5.23-15.63-7A33.82,33.82,0,0,1,53.9,108Z"/><path class="cls-1" d="M66.07,118.74c1.73-.58,3.71-.3,5.31-1.44,2.29-2.5-3.16-1.66-9.25-.51C62.77,118.58,63.87,119.49,66.07,118.74Z"/><path class="cls-1" d="M49.5,102c-.32.28.74,1,2.61,2C51.27,102.45,50.31,101.31,49.5,102Z"/><path class="cls-6" d="M143.76,119.76q-2.65-2.94-1.35-8.93l.36-1.65c.06-.33.14-.68.22-1,.74-3.53,1.45-7.12,2.22-10.92H85v21s.07.37-.11,1.15c-.67,3-4.34,12-21.64,30.73-2.77,3-3.6,7.59-1.7,10.8a2.39,2.39,0,0,0,.13.21c1.35,2.11,3.94,3.57,8,3.49a1.34,1.34,0,0,0,.28,0c4.17-.14,9.84-1.88,17.27-6.14,2.39-1.37,5-3,7.71-4.92A187.73,187.73,0,0,0,112.2,139.7c4.27-3.8,2.58,10.9,2.41,16.56,0,1-.78,2-1.26,3l-.11.22c4.2-1,7.61-3.7,11.21-5.91.57-.35,1.13-.7,1.68-1.06a62.83,62.83,0,0,0,17.5-16.1,47.36,47.36,0,0,0,2.76-4.28V121.56A7.4,7.4,0,0,1,143.76,119.76ZM84.57,152.4a13,13,0,0,0,3.66-.14,5.43,5.43,0,0,0,2.29,1.22C87.35,153.57,85.56,153,84.57,152.4Z"/><path class="cls-4" d="M85,143.58l1.5-1.24C85.88,142.79,85.37,143.21,85,143.58Zm33.88-3.45s1.85,10.11,2.42,9.64,1.21-.91,1.21-.91l1.89-3.63a.36.36,0,0,0,0-.09,9.9,9.9,0,0,1,.76-1.44l2.24-4.3,0-.1C127.88,138.5,118.84,140.13,118.84,140.13ZM85,143.58l1.5-1.24C85.88,142.79,85.37,143.21,85,143.58Z"/><path class="cls-4" d="M96,145.28c.14-.75.23-1.25.23-1.25A3.79,3.79,0,0,0,96,145.28ZM147,131a1.13,1.13,0,0,0-.61-.42,7,7,0,0,0-1.76-.27,8.72,8.72,0,0,1-.89-.16l-.89-.28-5.33-1.72.59-.74.08-.09a6.2,6.2,0,0,1,1-1s0,0,0,0l.3-.29a12.43,12.43,0,0,1,3.2-2.51h0q.19-.16.39-.3c.32-.25.66-.49,1-.71.61-.4,1.32-.88.55-1.64a9.81,9.81,0,0,1-.92-1.06c-2.24-3.07-1.64-6.57-1.06-10.19,0-.13,0-.26.07-.39.06-.33.14-.68.22-1,1-3.9,3.22-8.9,2.62-12.66l-.37.36-.17.17a14.59,14.59,0,0,1-1.28,1.17l0,0a3.36,3.36,0,0,1-.49.33,2.68,2.68,0,0,1-.33.18.2.2,0,0,1-.08,0c-.82.45-2,1-3,1.47l0,0a7.73,7.73,0,0,1-1.24.58l-.5.21,0,0c-1,.42-2,.87-3,1.31a16.32,16.32,0,0,0-3.95,1.84h0a8.46,8.46,0,0,1-1.86.79l-1.25.56h0a15.5,15.5,0,0,1-5.55,3.4h0l-.09,0a2.92,2.92,0,0,0-.29.23h0c-1.74,1.35-3,3.31-5.32,4a14.23,14.23,0,0,1-3.43,3.45h0c-2.64,3-1.91,3.28-1.91,3.28-.77,1.15-4.09,0-4.09,0-2.23-.43-4.3-.73-6.21-.92a10.16,10.16,0,0,1-4.31-.25h0l-3,0h-.09c-1.87,1-4,.23-5.94.73-.53.13-1.05.27-1.57.42l-1.25.37-1,.34-.08,0h0a39.89,39.89,0,0,0-23.36,20c-2.62,5.06-2.64,10.79-2.47,16.4,0,1.08.92,2.13,1.4,3.2a16,16,0,0,0,2.21,1.55,12.41,12.41,0,0,0,1.3.69c2.33,1.06,4.73,2,7.11,3a62.63,62.63,0,0,1,12.49,6.33,8,8,0,0,0,3,1.47c1.4.26,2.66-.25,4.37-1.42,4.8-3.29,10.23-5.38,15.58-7.61,2.09-.87,5.17-1.78,7.2-2.78a138.32,138.32,0,0,0,13.77-8.06.66.66,0,0,0-.2,0,3.89,3.89,0,0,0-.83,0c-1.43.13-3.07.64-3.37-.31a4.22,4.22,0,0,1,.45-3.17l.09-.19s-.63.44-1.21.91-2.14-8.15-2.39-9.47l0-.17s9-1.63,8.61-.83a6.43,6.43,0,0,1,2.68-3,3.55,3.55,0,0,1,.39-.2,5.49,5.49,0,0,1,.78-.29,22,22,0,0,1,7.76.76,8.56,8.56,0,0,0,2.7.37,4.36,4.36,0,0,0,1.87-.49,7,7,0,0,0,2.61-2.73C147.08,132.29,147.31,131.5,147,131ZM84.57,152.4a13,13,0,0,0,3.66-.14,5.43,5.43,0,0,0,2.29,1.22C87.35,153.57,85.56,153,84.57,152.4Zm.36-8.8,0,0c.26-.23.56-.49.89-.76h0l.6-.47v0a2.91,2.91,0,0,1,.49-.44h0a5.53,5.53,0,0,1,.71-.42,24.17,24.17,0,0,1,5.12-2.74l.32-.13.12-.05a5.24,5.24,0,0,1,3.39-.2c.22-1.32,1.25-1.76,2-.93s-.13,1.66-1.1,2c.38,1.73-.84,3.07-1.35,4.58a3.79,3.79,0,0,0-.23,1.25,2.83,2.83,0,0,0,0,.29c.42,1.55-.64,2.83-.7,4.33a4.76,4.76,0,0,1-.31,1.62h0a2.84,2.84,0,0,1-2,1.79l-.27.05a3.72,3.72,0,0,1-.67,0,5.25,5.25,0,0,1-3.25-1.35l-.56.06c-.69.07-1.4.17-2.07.18a3,3,0,0,1-2.77-1.22,4.19,4.19,0,0,1-.43-.9,5.66,5.66,0,0,1,.62-5.22l0,0a5.39,5.39,0,0,1,1.23-1.2s0,0,.06,0S84.91,143.62,84.93,143.6Z"/><path class="cls-4" d="M90.52,153.48c-3.17.09-5-.47-6-1.08a13,13,0,0,0,3.66-.14A5.43,5.43,0,0,0,90.52,153.48Z"/><path class="cls-4" d="M138.42,100.31l-4.84,11-9.7,11.42s-13.85,2.48-14,2.62-14.3,1.46-14.3,1.46l-11.79-7.1.08,0c.56-.26,3.78-1.61,9.79-1.86h.09c.92,0,1.92,0,3,0h0c1.33,0,2.77.1,4.31.25,1.91.19,4,.49,6.21.92,0,0,3.32,1.15,4.09,0,0,0-.73-.33,1.91-3.28h0c.79-.89,1.9-2,3.43-3.45,0,0,2.47-2,5.32-4h0l.38-.27h0a39,39,0,0,1,5.55-3.4h0l1.25-.56c.6-.26,1.22-.53,1.86-.79h0C134.53,101.79,138.19,100.39,138.42,100.31Z"/><path class="cls-4" d="M93.24,138.53l-.12.05-.32.13a24.17,24.17,0,0,0-5.12,2.74c-.43.29-.84.59-1.21.87v0c-.58.45-1.09.87-1.5,1.24l0,0c-.75.67-1.22,1.15-1.36,1.3l0,0s-4.07-2.78-1.39-5.16S97.49,136.67,93.24,138.53Z"/><path class="cls-4" d="M96.19,144s-1.06,5.71-1.23,7.5,4.26-4.32,4.26-4.32Z"/><path class="cls-4" d="M127.36,139.49l0,.1-2.24,4.3-.72,1.36s0,.05,0,.08a.36.36,0,0,1,0,.09l-.19.36-.18.35c-.1.17-.18.33-.26.49l-.26.5c0,.11-.11.21-.16.31a.41.41,0,0,1,0,.09c-.09.16-.16.31-.23.45l0,.05c-.11.21-.2.4-.29.55a.67.67,0,0,1-.06.12l0,.07-.15.29s-.63.44-1.21.91-2.42-9.64-2.42-9.64l.12,0C119.94,140.11,127.76,138.74,127.36,139.49Z"/><path class="cls-4" d="M139.19,126.31l-1,1A6.2,6.2,0,0,1,139.19,126.31Z"/><path class="cls-4" d="M143.13,123.17a.6.6,0,0,1-.39.3Q142.94,123.31,143.13,123.17Z"/><path class="cls-4" d="M144.05,100.31l-6-.23h0l.06,0,1.74-.79,0,0c1-.46,2.17-1,3-1.47a.2.2,0,0,0,.08,0l.33-.18a3.36,3.36,0,0,0,.49-.33l0,0C144.5,96.73,144.05,100.31,144.05,100.31Z"/><path class="cls-4" d="M92.8,138.71s2.87-1.67,4.15-.22-.14,1.53.47,2.74,3.1,2.07,3.29,1.73.38-6,0-7-.29-5.08-2.41-5-4.39-.17-5,1.43S92.8,138.71,92.8,138.71Z"/><path class="cls-4" d="M96,157.88s-4.66.33-8.79.57a49.65,49.65,0,0,1-6.23.19c-.09-.3-.77-6.47-.77-6.47l2.67-.94.47-.16a2.46,2.46,0,0,0,1.23,1.33c1,.61,2.78,1.17,6,1.08.43,0,.89,0,1.38-.07H92l.67,0h.15a9,9,0,0,1,2.1.16C98.63,154.35,96,157.88,96,157.88Z"/><path d="M66.68,26.43a6.35,6.35,0,0,1-2.69,5c-.35.24-.85.64-1.49,1.19a8.3,8.3,0,0,0-1,1.41l-1.83-2.71c-1-1.29-1.81-1.92-2.5-1.9a1.1,1.1,0,0,0-.62.39,2.41,2.41,0,0,0-.53.75c-.12.27-.11.45,0,.53a.76.76,0,0,1,.54-.21.83.83,0,0,1,.61.26.88.88,0,0,1,.25.63.84.84,0,0,1-.25.62.83.83,0,0,1-.61.26,1.51,1.51,0,0,1-1.07-.48,1.44,1.44,0,0,1-.55-.92,2.43,2.43,0,0,1,.32-.89,6.77,6.77,0,0,1,1.44-1.95,3.13,3.13,0,0,1,2.13-1,2.86,2.86,0,0,1,2.27,1.11l1,1.33c.18.23.46.55.82.94a3.45,3.45,0,0,0,.85-2.71,3.39,3.39,0,0,0-.65-2.16,1.19,1.19,0,0,0-.91-.44,1.28,1.28,0,0,0-.7.22,5.33,5.33,0,0,1-2.88.69,3.34,3.34,0,0,1-3-1.63,3.21,3.21,0,0,1,.28-.29,3.78,3.78,0,0,1-.53-1.83q0-2.19,2.74-4.82c.28-.27,1-.93,2.24-2l.39.34c-.06.08-.18.24-.35.49a.57.57,0,0,1,.35-.16c.13,0,.33.15.62.45A6.45,6.45,0,0,0,63,18.26a3.86,3.86,0,0,0,1.77.56c.49,0,.73-.18.73-.54a.68.68,0,0,0-.05-.23.86.86,0,0,1-.6-.23.79.79,0,0,1,0-1.15.83.83,0,0,1,.6-.24c.75,0,1.12.5,1.09,1.5a2.19,2.19,0,0,1-1,1.81,5.06,5.06,0,0,1-2.81.89,5.91,5.91,0,0,1-3.28-.9,9.11,9.11,0,0,1-.94-.67,10.34,10.34,0,0,0-.14,1.75A4.9,4.9,0,0,0,59.49,24a4.07,4.07,0,0,0,.76.69,1.58,1.58,0,0,1-.92.52,2.65,2.65,0,0,0,2.07-.84c.09-.08.21-.21.37-.38A3,3,0,0,1,64,22.93a2.31,2.31,0,0,1,2,1.07A4.42,4.42,0,0,1,66.68,26.43Z"/><path d="M71.87,31.48c0,.06,0,.13-.17.2l-1.43.6a2.65,2.65,0,0,1-.61.22.67.67,0,0,1-.43-.14L69,32l-.77-1.14-.67.26a.36.36,0,0,1-.21,0s-.06,0-.08-.07a.25.25,0,0,1,.13-.31l.28-.18a.58.58,0,0,0,.19-.29,1.31,1.31,0,0,0,.09-.38c0-.18,0-.47.07-.85.06-.67.1-1.35.12-2.05.07-1.54.11-2.38.11-2.5,0-1,0-1.83,0-2.48V18c0-.25-.12-.36-.31-.32l-.49.08c-.11,0-.17,0-.18-.13a.27.27,0,0,1,.1-.24l.8-.39c.2-.11.61-.31,1.24-.59.31-.17.69-.36,1.14-.56.19-.06.28,0,.28.19a.14.14,0,0,1,0,.09l-.31.3a.83.83,0,0,0-.14.45c0,.66,0,1.49,0,2.5,0,.11,0,.8,0,2.06,0,.78,0,1.75,0,2.9,0,.34,0,1.08-.07,2.23s-.1,2-.16,2.65a.72.72,0,0,1,0,.21.37.37,0,0,1-.14.1l-.49.26v0a.87.87,0,0,1,.56,0c.06.14.16.32.27.53.2.39.38.71.52.95a.31.31,0,0,0,.34.12l.39,0A.26.26,0,0,1,71.87,31.48Z"/><path d="M78.83,23.06A32.06,32.06,0,0,1,77.36,26c-.24.45-.65,1.15-1.21,2.13-.45.76-.8,1.33-1.05,1.72l-.64,1c-.15.23-.37.53-.64.93a6.66,6.66,0,0,1-.61.83.53.53,0,0,1-.4.19,10.46,10.46,0,0,1-1.63-.14c-.44-.07-.88-.16-1.3-.27a12,12,0,0,1-2.67-1,.12.12,0,0,1,0-.18,1.92,1.92,0,0,1,.18-.3,4.41,4.41,0,0,1,.64-.73l.18-.15a.37.37,0,0,1,.31-.06l1.38.14c.15,0,.22.05.22.09s-.08.07-.21.11l-1.11.31s-.09.05-.12.14l-.1.29a.17.17,0,0,0,.12.25l.55.13,1.06.15c.24,0,.64,0,1.19.07a5.85,5.85,0,0,0,1,0l.51-.79,1-1.54c-.12-.43-.56-1.91-1.3-4.43-.07-.23-.16-.5-.27-.79a.48.48,0,0,0-.3-.15c-.1,0-.15,0-.16-.08s0-.13.13-.13l1.52,0,1.36-.05c.17,0,.26,0,.25.07s-.06.09-.17.13l-.23.08a.17.17,0,0,0-.12.13.44.44,0,0,0,0,.23c0,.18.12.54.25,1.06s.27,1,.45,1.57c.18-.31.43-.75.74-1.31.13-.2.33-.6.63-1.18a8.53,8.53,0,0,0,.37-1,5,5,0,0,1-.59-.42c.38,0,.77.06,1.17.07Z"/><path d="M83.47,21.44c-.39,0-.79,0-1.19,0,0,.15,0,.52,0,1.12,0,.9,0,2-.07,3.19,0,.82-.12,2.3-.26,4.46,0,.44,0,.69,0,.77a.79.79,0,0,0,.27.68l.62.44c.12.08.15.17.09.25l-.1.15c-.06.07-.15.07-.29,0l-1.79-1a3.13,3.13,0,0,1-.55-.37,1.12,1.12,0,0,1-.23-.72s0-.46,0-1.24c0-.43.07-1.61.19-3.56,0-.23,0-.62,0-1.16s0-1,0-1.5c0-.32,0-.81-.07-1.45q0-.15-.21-.15H78.58c-.07,0-.11,0-.11-.15a.21.21,0,0,1,.1-.19l.8-.47a12.71,12.71,0,0,0,1.32-1.1,9.76,9.76,0,0,0,1.2-1.29c0-.07.11-.16.19-.27s.17-.07.17.13a1.21,1.21,0,0,0,0,.18c0,.07,0,.11,0,.14v2.17l1.12,0C83.42,20.71,83.44,21,83.47,21.44Z"/><path d="M92.06,31.35s-.27.07-.75.07c-1.17,0-1.9,0-2.18,0s-.56,0-.56-.09.11-.21.33-.35.32-.27.33-.38c.06-1.5.08-2.53.08-3.07,0-.94,0-2.07-.16-3.37,0-.3-.15-.44-.39-.44a3,3,0,0,0-1.73.67,55.29,55.29,0,0,1-.32,5.53c.23.58.45.88.67.88a1,1,0,0,0,.27-.06,1,1,0,0,1,.27-.06c.11,0,.17.09.17.28s-.08.11-.22.16a16.31,16.31,0,0,1-2,.79.79.79,0,0,1-.6-.34c-.13-.21-.27-.42-.41-.62a8,8,0,0,1-.84.3c-.11,0-.16-.08-.16-.25s.1-.11.3-.26a1.07,1.07,0,0,0,.36-.34s0-.17.08-.38,0-.47.07-.85c.05-.69.09-1.37.12-2,.1-2.28.14-3.88.14-4.83V18.55c0-.41-.08-.61-.25-.61a1.52,1.52,0,0,0-.31,0A1.6,1.6,0,0,1,84,18c-.07,0-.11-.05-.11-.14a.29.29,0,0,1,.1-.23c.07-.06.62-.33,1.64-.82s1.55-.74,1.59-.74.23.06.23.18-.08.12-.24.27a.86.86,0,0,0-.27.59c0,.14,0,.88,0,2.22,0,.4,0,1,.07,1.78s.07,1.4.07,1.82a5.45,5.45,0,0,1,1-.44,3.78,3.78,0,0,1,1-.26,2.08,2.08,0,0,1,1,.58c.34.29.6.51.76.68.36.39.53,2.08.53,5.08,0,.61,0,1.24,0,1.89a.68.68,0,0,0,.34.57C92,31.19,92.06,31.29,92.06,31.35Z"/><path d="M98.24,25a.44.44,0,0,1-.26.17l-1.64.55c-.78.33-1.12.68-1,1.06.1-.15.23-.16.41,0a.35.35,0,0,1,.09.53c-.15.26-.38.29-.7.08a1.29,1.29,0,0,1-.6-1.13,2,2,0,0,1,1.35-2.08c-.19-.45-.46-1-.81-1.69,0-.08-.11-.09-.18,0a.44.44,0,0,0-.14.16,1.75,1.75,0,0,0-.18.56c0,.11,0,.32-.08.65,0,.53,0,1.34,0,2.41,0,.54,0,1,0,1.52,0,.19,0,.53,0,1a.89.89,0,0,0,.11.35,1.4,1.4,0,0,0,.27.33,2.12,2.12,0,0,0,.77.33c.21.07.35.06.39,0a5.29,5.29,0,0,0,.49-1.18c.06-.19.13-.47.22-.84,0-.14.07-.19.13-.15s.11.14.19.26l.27.36a4,4,0,0,0,.23.34c.08.1.1.18.07.22l-.45.62-.45.62c0,.05-.17.21-.4.49a.39.39,0,0,1-.3.17h-.46l-1.06,0a3.68,3.68,0,0,1-1.15-.92c-.14-.13-.34-.34-.61-.62a4.1,4.1,0,0,0-.26-.32.57.57,0,0,1-.12-.39s0-.11,0-.23,0-.2,0-.26v-3c0-.43.11-.94.2-1.53A.63.63,0,0,1,92.7,23l1-.79.91-.71a.69.69,0,0,1,.33-.16.7.7,0,0,1,.32,0,7.17,7.17,0,0,1,.87.38c.26.12.61.3,1,.54a.43.43,0,0,1,.18.22c.27.63.56,1.35.88,2.14A.31.31,0,0,1,98.24,25Z"/><path d="M103.56,22c0,.11-.07.21-.22.31l-1.44.89q-.2.12-.27,0l-.09-.1a.1.1,0,0,1,0-.15l.2-.17c.07-.07.08-.19,0-.36l-.47-1.33c-.07-.21-.13-.32-.19-.32s-.07.11-.06.33v.41c0,.28,0,.66,0,1.14s0,1,.08,1.85c0,.44.08,1.29.18,2.54,0,.19,0,.47.06.85,0,.22,0,.36.12.4l.26.16c.11.07.16.14.16.2s0,0-.1,0l-.49,0H99l-.4,0c-.05,0-.1,0-.16-.13s.06-.1.19-.19l.32-.23a.31.31,0,0,0,.15-.26V21.8a6.44,6.44,0,0,0,0-.92c0-.21-.11-.32-.35-.32H98c-.15,0-.22,0-.21-.07s.06-.08.16-.16l2.15-1.49a.92.92,0,0,1,.39-.21,1,1,0,0,1,.4.17A.3.3,0,0,1,101,19l.07.79c0,.2.06.27.15.22a5.92,5.92,0,0,1,.52-.31,4.6,4.6,0,0,1,.45-.24c.22-.11.44.1.68.62.07.15.21.49.42,1l.17.41A1.59,1.59,0,0,1,103.56,22Z"/><path d="M106.94,19c0,.08,0,.15-.12.2l-1.22.64a2.32,2.32,0,0,1-.64.25.54.54,0,0,1-.39-.12,3.73,3.73,0,0,1-.29-.33L104,19.3c0-.05-.13-.06-.25,0l-.29.07a.2.2,0,0,1-.21-.06q-.12-.15.06-.24l.22-.11,1-.45c.22-.11.51-.24.86-.39a.3.3,0,0,1,.43.1,2.64,2.64,0,0,1,.22.33c.07.1.17.22.28.38s.19.17.29.12l.2-.09C106.85,18.9,106.91,18.94,106.94,19Zm1.2,11.46-.1.16c-.06.07-.15.07-.29,0l-1.9-.94a2.55,2.55,0,0,1-.55-.34.91.91,0,0,1-.28-.7,4.08,4.08,0,0,0,0-.59c0-.31,0-.53,0-.67s0-.35,0-.78,0-.72,0-.94c0-.7,0-1.31,0-1.82,0-.32,0-1,0-2,0-.25-.13-.35-.33-.31l-.48.11c-.1,0-.16,0-.16-.12s0-.22.06-.25l.83-.32,1.14-.5,1.13-.53a.24.24,0,0,1,.2,0,.18.18,0,0,1,.11.15.31.31,0,0,1-.05.1A1.13,1.13,0,0,0,107,21c0,.24,0,.6,0,1.07s0,1.44,0,2.58c0,.24,0,.61,0,1.13s0,.77,0,.94v1.7c0,.31,0,.56,0,.76a1.49,1.49,0,0,0,0,.38.61.61,0,0,0,.26.28l.63.42C108.15,30.34,108.19,30.42,108.14,30.5Z"/><path d="M116.25,33.25l-.16.34c0,.07-.14.08-.3,0L114.11,33a1.65,1.65,0,0,1-.57-.35,1,1,0,0,1-.3-.68,12.5,12.5,0,0,1,0-1.25c0-.26,0-.6,0-1s0-.82,0-1c0-.78,0-1.26,0-1.42,0-1.08,0-1.87-.07-2.36,0-.29-.06-.7-.09-1.24a.44.44,0,0,0-.33-.43,1,1,0,0,0-.55.14,5.1,5.1,0,0,0-.67.37v1.62c0,1.49.05,2.46.07,2.92a7.35,7.35,0,0,1-.16,2.14l-.23.88c-.07.23-.18.35-.33.37a.63.63,0,0,1-.48-.19l-1.61-1.29c-.09-.07-.14-.12-.14-.15s.06-.06.2-.07l.31,0a.35.35,0,0,0,.31-.38V25.65c0-.58,0-1.27,0-2a.49.49,0,0,0-.08-.33.36.36,0,0,0-.29,0l-.76.26c-.14,0-.22,0-.22-.09a.33.33,0,0,1,.17-.25l2.23-1.5a1.54,1.54,0,0,1,.5-.29.46.46,0,0,1,.26.08s.08.11.09.23l.11.71c.27-.15.71-.35,1.33-.61a.53.53,0,0,1,.49,0,3.85,3.85,0,0,1,.63.45c.39.33.68.59.86.77a1,1,0,0,1,.24.51c.07.4.13.85.17,1.36s.09,1,.1,1.36,0,.84,0,1.4,0,1.22,0,1.93,0,1.27,0,2.05c0,.21,0,.52.06.91a2.19,2.19,0,0,0,.07.23.32.32,0,0,0,.33.23l.42,0h.08S116.3,33.16,116.25,33.25Z"/></svg>