<svg id="Layer_1" data-name="Layer 1" xmlns="http://www.w3.org/2000/svg" width="100" height="100" viewBox="0 0 100 100"><defs><style>.cls-1{fill:#f7b284;}.cls-2{fill:#f99b55;}.cls-3{fill:#fc7f10;}</style></defs><path class="cls-1" d="M22.34,50a28.4,28.4,0,0,1,28.4-28.4V14.48a35.52,35.52,0,0,0,0,71V78.4A28.4,28.4,0,0,1,22.34,50Z"/><path class="cls-2" d="M22.34,50a28.4,28.4,0,0,0,28.4,28.4V21.6A28.4,28.4,0,0,0,22.34,50Z"/><path class="cls-2" d="M50.74,14.48V21.6h0a28.4,28.4,0,0,1,0,56.8h0v7.12a35.52,35.52,0,1,0,0-71Z"/><path class="cls-3" d="M50.75,78.4a28.4,28.4,0,0,0,0-56.8h0V78.4Z"/><path class="cls-2" d="M67,57.26,63.15,41c-.07-3.66.36-4.13,3.72-4.65V34.93H60L50.77,61.42l0-.08V67.2c1.87-5.87,6.33-18.82,9.21-27.42l3.67,17.48c0,5.59-.07,5.9-3.28,6.32V65h10.4V63.58C67.3,63.11,67.18,62.85,67,57.26Z"/><path class="cls-1" d="M34.46,57.26,38.33,41c.08-3.66-.35-4.13-3.71-4.65V34.93h6.84l9.26,26.49,0-.08V67.2c-1.86-5.87-6.32-18.82-9.2-27.42L37.86,57.26c0,5.59.08,5.9,3.29,6.32V65H30.75V63.58C34.19,63.11,34.31,62.85,34.46,57.26Z"/></svg>